<?xml version="1.0" encoding="UTF-8"?><svg id="uuid-22d18c80-35a2-4ab7-8875-c5e4dfe3d17e" xmlns="http://www.w3.org/2000/svg" viewBox="0 0 23.96 23.96"><defs><style>.uuid-00af4417-b790-4769-895b-710b034f825d{fill:#fff;}</style></defs><g id="uuid-ded2615a-be77-472d-86ca-bebe8cf762a1"><g><path class="uuid-00af4417-b790-4769-895b-710b034f825d" d="M11.98,0C5.37,0,0,5.37,0,11.98s5.37,11.98,11.98,11.98,11.98-5.37,11.98-11.98S18.58,0,11.98,0Zm0,23.14C5.82,23.14,.82,18.13,.82,11.98S5.82,.82,11.98,.82s11.16,5.01,11.16,11.16-5.01,11.16-11.16,11.16Z"/><path class="uuid-00af4417-b790-4769-895b-710b034f825d" d="M18.17,11.57h-5.78V5.79c0-.23-.18-.41-.41-.41s-.41,.18-.41,.41v5.78H5.79c-.23,0-.41,.18-.41,.41s.18,.41,.41,.41h5.78v5.78c0,.23,.18,.41,.41,.41s.41-.18,.41-.41v-5.78h5.78c.23,0,.41-.18,.41-.41s-.18-.41-.41-.41Z"/></g></g></svg>