<?xml version="1.0" encoding="UTF-8"?><svg id="uuid-fb909267-8db6-4dcd-8a3b-029d9654a918" xmlns="http://www.w3.org/2000/svg" viewBox="0 0 29.15 29.15"><g id="uuid-e657e6bb-32f2-416c-b373-cf2b131fbf7e"><g><path d="M14.57,0C6.54,0,0,6.54,0,14.57s6.54,14.57,14.57,14.57,14.57-6.54,14.57-14.57S22.61,0,14.57,0Zm0,27.55c-7.15,0-12.97-5.82-12.97-12.97S7.42,1.6,14.57,1.6s12.97,5.82,12.97,12.97-5.82,12.97-12.97,12.97Z"/><path d="M21.96,13.77h-6.59V7.18c0-.44-.36-.8-.8-.8s-.8,.36-.8,.8v6.59H7.18c-.44,0-.8,.36-.8,.8s.36,.8,.8,.8h6.59v6.59c0,.44,.36,.8,.8,.8s.8-.36,.8-.8v-6.59h6.59c.44,0,.8-.36,.8-.8s-.36-.8-.8-.8Z"/></g></g></svg>