<?xml version="1.0" encoding="UTF-8"?><svg id="uuid-f87fc66e-b343-4b27-a961-d0422b1cb4b4" xmlns="http://www.w3.org/2000/svg" viewBox="0 0 27.66 27.8"><defs><style>.uuid-15f2843c-b1ca-4c3b-9f52-77f566f1f310{fill:#eaa668;}</style></defs><g id="uuid-0fb7491a-e7c5-4db1-80f3-ad711b107b68"><path class="uuid-15f2843c-b1ca-4c3b-9f52-77f566f1f310" d="M23.22,13.33c-1.28-.18-2.49,.12-3.47,.75-.54,.34-1.25,.27-1.7-.19l-3.66-3.72c-.66-.68-.85-1.71-.4-2.55,.49-.9,.71-1.96,.58-3.08C14.29,2.16,12.34,.27,9.97,.03c-2.77-.28-5.16,1.64-5.62,4.24C1.75,4.68-.21,7.03,.02,9.8c.2,2.4,2.09,4.38,4.48,4.68,1.26,.16,2.44-.14,3.4-.74,.62-.39,1.41-.32,1.92,.2l3.72,3.79c.59,.6,.7,1.53,.26,2.25-.56,.93-.84,2.05-.71,3.25,.26,2.39,2.21,4.32,4.6,4.56,2.77,.28,5.16-1.65,5.61-4.24,2.6-.41,4.57-2.76,4.34-5.54-.2-2.38-2.06-4.35-4.43-4.67Z"/></g></svg>