<?xml version="1.0" encoding="UTF-8"?><svg id="uuid-91b4e9ac-2adc-42e0-806b-0f9d6767cfdd" xmlns="http://www.w3.org/2000/svg" viewBox="0 0 28.72 29.26"><defs><style>.uuid-dc137a10-3523-42bc-8fdb-60879f224095{fill:#0c0d0e;}</style></defs><g id="uuid-5bbdaa19-2bbe-4d6c-b0d7-52a4191bf05e"><g><path class="uuid-dc137a10-3523-42bc-8fdb-60879f224095" d="M26.23,14.56c-.11-.25-.33-.42-.6-.47-.27-.05-.54,.04-.73,.23l-4.72,4.72-1.61-1.61,5.06-5.06c.32-.32,.32-.84,0-1.16s-.84-.32-1.16,0l-5.06,5.06-.96-.96,4.15-4.15c.32-.32,.32-.84,0-1.16s-.84-.32-1.16,0l-4.15,4.15-.96-.96,3.49-3.49c.32-.32,.32-.84,0-1.16s-.84-.32-1.16,0l-3.49,3.49-.96-.96,2.89-2.89c.32-.32,.32-.84,0-1.16s-.84-.32-1.16,0l-2.89,2.89-.96-.96,2.03-2.03c.32-.32,.32-.84,0-1.16s-.84-.32-1.16,0l-2.03,2.03-.97-.97L7.41,.74c-.03-.32-.24-.58-.54-.69-.3-.11-.63-.03-.86,.19L.24,6.01c-.22,.22-.3,.56-.19,.86,.11,.3,.38,.51,.69,.54l6.08,.56,.97,.97-2.03,2.03c-.32,.32-.32,.84,0,1.16,.16,.16,.37,.24,.58,.24s.42-.08,.58-.24l2.03-2.03,.96,.96-2.89,2.89c-.32,.32-.32,.84,0,1.16,.16,.16,.37,.24,.58,.24s.42-.08,.58-.24l2.89-2.89,.96,.96-3.49,3.49c-.32,.32-.32,.84,0,1.16,.16,.16,.37,.24,.58,.24s.42-.08,.58-.24l3.49-3.49,.96,.96-4.15,4.15c-.32,.32-.32,.84,0,1.16,.16,.16,.37,.24,.58,.24s.42-.08,.58-.24l4.15-4.15,.96,.96-5.06,5.06c-.32,.32-.32,.84,0,1.16,.16,.16,.37,.24,.58,.24s.42-.08,.58-.24l5.06-5.06,1.61,1.61-5.27,5.27c-.18,.18-.27,.43-.23,.68,.03,.25,.18,.47,.4,.6,1.2,.7,10.12,2.53,13.29,2.53,.36,0,.64-.02,.83-.07,.34-.09,.59-.39,.61-.74,.28-4.59-.66-9.91-2.44-13.89ZM2.62,5.94l3.32-3.32,.34,3.66-3.66-.34ZM27.07,27.65c-2.16-.03-8.57-1.21-11.23-1.95l9.36-9.36c1.28,3.36,1.99,7.61,1.87,11.31Z"/><path class="uuid-dc137a10-3523-42bc-8fdb-60879f224095" d="M23.95,21.15c-.38,0-.69,.31-.69,.69s.31,.69,.69,.69,.69-.31,.69-.69-.31-.69-.69-.69Z"/></g></g></svg>