<?xml version="1.0" encoding="UTF-8"?><svg id="uuid-f45af92a-3cea-4577-8182-f4e8c91bb2aa" xmlns="http://www.w3.org/2000/svg" viewBox="0 0 33.4 29.6"><defs><style>.uuid-edab3ba9-05ad-4c03-84f6-ee6e6bf6f1ca{fill:#0c0d0e;}</style></defs><g id="uuid-dd00d087-c51e-4a19-b015-167411df6600"><g><path class="uuid-edab3ba9-05ad-4c03-84f6-ee6e6bf6f1ca" d="M28.97,0c-2.53,0-4.43,2.07-4.43,3.92v.21H8.85v-.21c0-1.85-1.89-3.92-4.43-3.92S0,1.99,0,4.43v15.01c0,5.61,4.56,10.17,10.17,10.17h13.07c5.61,0,10.17-4.56,10.17-10.17V4.43c0-2.44-1.99-4.43-4.43-4.43Zm2.79,19.43c0,4.7-3.83,8.53-8.53,8.53H10.17c-4.7,0-8.53-3.83-8.53-8.53V4.43c0-1.54,1.25-2.79,2.79-2.79s2.79,1.25,2.79,2.28v1.02c0,.45,.37,.82,.82,.82H25.36c.45,0,.82-.37,.82-.82v-1.02c0-1.03,1.25-2.28,2.79-2.28s2.79,1.25,2.79,2.79v15.01Z"/><path class="uuid-edab3ba9-05ad-4c03-84f6-ee6e6bf6f1ca" d="M21.5,10.6H11.9c-3.93,0-7.14,3.2-7.14,7.14s3.2,7.14,7.14,7.14h9.6c3.93,0,7.14-3.2,7.14-7.14s-3.2-7.14-7.14-7.14Zm0,12.64H11.9c-3.03,0-5.5-2.47-5.5-5.5s2.47-5.5,5.5-5.5h9.6c3.03,0,5.5,2.47,5.5,5.5s-2.47,5.5-5.5,5.5Z"/><circle class="uuid-edab3ba9-05ad-4c03-84f6-ee6e6bf6f1ca" cx="11.34" cy="17.49" r="1.36"/><path class="uuid-edab3ba9-05ad-4c03-84f6-ee6e6bf6f1ca" d="M22.06,16.13c-.75,0-1.36,.61-1.36,1.36s.61,1.36,1.36,1.36,1.36-.61,1.36-1.36-.61-1.36-1.36-1.36Z"/></g></g></svg>