<?xml version="1.0" encoding="UTF-8"?><svg id="uuid-fde7aa44-6d32-4858-8f5e-7424ec5cbcd0" xmlns="http://www.w3.org/2000/svg" viewBox="0 0 25.21 24.96"><defs><style>.uuid-8b1e0881-480f-4e89-83bf-b414547c2c15{fill:#0c0d0e;}</style></defs><g id="uuid-e86372fe-f724-4896-9275-487789ff8aec"><g><path class="uuid-8b1e0881-480f-4e89-83bf-b414547c2c15" d="M24.39,3.64h-2.83V.82c0-.45-.37-.82-.82-.82s-.82,.37-.82,.82V3.64h-2.83c-.45,0-.82,.37-.82,.82s.37,.82,.82,.82h2.83v2.83c0,.45,.37,.82,.82,.82s.82-.37,.82-.82v-2.83h2.83c.45,0,.82-.37,.82-.82s-.37-.82-.82-.82Z"/><path class="uuid-8b1e0881-480f-4e89-83bf-b414547c2c15" d="M22.66,12.44L12.1,6.63c-.31-.17-.69-.17-1.01,0L.54,12.44c-.72,.4-.72,1.43,0,1.83l10.55,5.81c.31,.17,.69,.17,1.01,0l10.55-5.81c.72-.4,.72-1.43,0-1.83Z"/><polygon class="uuid-8b1e0881-480f-4e89-83bf-b414547c2c15" points="11.6 22.16 1.2 16.43 .01 18.58 11.6 24.96 23.19 18.58 22 16.43 11.6 22.16"/></g></g></svg>