<?xml version="1.0" encoding="UTF-8"?><svg id="uuid-fdadf853-574f-4707-b066-c66bf80b4667" xmlns="http://www.w3.org/2000/svg" viewBox="0 0 32.34 27.69"><defs><style>.uuid-c5410e44-d78f-44ae-abe3-5a97eb976b9f{fill:#0c0d0e;}</style></defs><g id="uuid-971916e4-e10c-49ad-9ffd-83fa12a3e24c"><g><path class="uuid-c5410e44-d78f-44ae-abe3-5a97eb976b9f" d="M15.36,14.55c4.01,0,7.27-3.26,7.27-7.27S19.37,0,15.36,0s-7.27,3.26-7.27,7.27,3.26,7.27,7.27,7.27Zm0-12.91c3.11,0,5.64,2.53,5.64,5.64s-2.53,5.64-5.64,5.64-5.64-2.53-5.64-5.64S12.25,1.63,15.36,1.63Z"/><path class="uuid-c5410e44-d78f-44ae-abe3-5a97eb976b9f" d="M20.42,16.58H10.29C4.62,16.58,0,21.2,0,26.88c0,.45,.37,.82,.82,.82s.82-.37,.82-.82c0-4.78,3.89-8.66,8.66-8.66h10.13c4.77,0,8.66,3.89,8.66,8.66,0,.45,.37,.82,.82,.82s.82-.37,.82-.82c0-5.68-4.62-10.29-10.29-10.29Z"/><path class="uuid-c5410e44-d78f-44ae-abe3-5a97eb976b9f" d="M32.07,9.2c-.33-.3-.85-.28-1.15,.05l-4.6,5.04-2.24-2.45c-.3-.33-.82-.36-1.15-.05-.33,.3-.36,.82-.05,1.15l2.84,3.12c.15,.17,.37,.27,.6,.27s.45-.1,.6-.27l5.21-5.7c.3-.33,.28-.85-.05-1.15Z"/></g></g></svg>