<?xml version="1.0" encoding="UTF-8"?><svg id="uuid-58aafc9b-7a9b-47c5-9443-013800f913da" xmlns="http://www.w3.org/2000/svg" viewBox="0 0 28.18 28.18"><defs><style>.uuid-122b0649-b5d3-4e05-902d-d60fb60ede3f{fill:#0c0d0e;}</style></defs><g id="uuid-41ae7fbe-a4fb-4903-afaf-0531f5e8aabf"><path class="uuid-122b0649-b5d3-4e05-902d-d60fb60ede3f" d="M14.09,0C6.31,0,0,6.31,0,14.09s6.31,14.09,14.09,14.09,14.09-6.31,14.09-14.09S21.87,0,14.09,0Zm7.11,14.63l-8.77,8.77c-.15,.15-.34,.22-.53,.22s-.38-.07-.53-.22c-.29-.29-.29-.77,0-1.06l8.24-8.24L11.37,5.86c-.29-.29-.29-.77,0-1.06s.77-.29,1.06,0l8.77,8.77c.29,.29,.29,.77,0,1.06Z"/></g></svg>