<?xml version="1.0" encoding="UTF-8"?><svg id="uuid-44d752d2-b06e-4280-aada-ecefcaa850a5" xmlns="http://www.w3.org/2000/svg" viewBox="0 0 27.66 27.8"><defs><style>.uuid-29508929-82ee-4ada-a0ca-0c51327bca94{fill:#0c0d0e;}</style></defs><g id="uuid-95f5c545-1053-4768-bf53-09e5530ab76b"><path class="uuid-29508929-82ee-4ada-a0ca-0c51327bca94" d="M22.77,12.55h0c-1.34-.18-2.69,.11-3.81,.82-.19,.12-.42,.09-.58-.06l-3.45-3.51c-.39-.39-.48-.98-.24-1.43,.56-1.03,.78-2.2,.64-3.39C15.02,2.38,12.9,.29,10.28,.03,7.53-.25,4.97,1.53,4.24,4.14,1.61,4.83-.21,7.35,.02,10.11c.22,2.65,2.29,4.82,4.93,5.15,1.32,.17,2.62-.11,3.74-.82,.27-.17,.59-.14,.79,.06l3.5,3.56c.29,.3,.35,.76,.13,1.12-.65,1.07-.92,2.3-.78,3.57,.29,2.64,2.42,4.75,5.06,5.01,.19,.02,.38,.03,.57,.03,2.53,0,4.79-1.71,5.48-4.14,2.63-.69,4.45-3.21,4.22-5.97-.22-2.62-2.26-4.78-4.87-5.14Zm-.16,9.62c-.34,.05-.62,.32-.68,.67-.36,2.07-2.28,3.53-4.4,3.32-1.88-.19-3.4-1.69-3.6-3.56-.1-.9,.09-1.78,.56-2.54,.61-1,.46-2.28-.36-3.11l-3.5-3.56c-.43-.44-1-.66-1.59-.66-.42,0-.85,.12-1.24,.36-.8,.5-1.72,.7-2.66,.58-1.87-.24-3.35-1.78-3.5-3.66-.17-2.1,1.32-4.01,3.4-4.34,.34-.05,.62-.32,.68-.67,.36-2.07,2.29-3.53,4.4-3.32,1.86,.19,3.37,1.67,3.6,3.52,.1,.85-.06,1.68-.45,2.41-.58,1.08-.37,2.46,.51,3.36l3.45,3.51c.7,.71,1.77,.83,2.62,.3,.81-.51,1.75-.71,2.72-.58,1.85,.25,3.31,1.79,3.46,3.66,.17,2.1-1.32,4.01-3.4,4.34Z"/></g></svg>