<?xml version="1.0" encoding="UTF-8"?><svg id="uuid-8af53d1f-71b9-4a01-962b-dd0d4905f6bf" xmlns="http://www.w3.org/2000/svg" viewBox="0 0 20.07 20.18"><defs><style>.uuid-7328fdfb-9802-48ec-b860-0ac30ec29903{fill:#fff;}</style></defs><g id="uuid-86a8a10d-143c-43b4-97d9-403819fcc598"><path class="uuid-7328fdfb-9802-48ec-b860-0ac30ec29903" d="M13.08,20.18c-.13,0-.27,0-.4-.02-1.87-.19-3.37-1.67-3.57-3.53-.1-.89,.09-1.76,.55-2.52,.21-.34,.16-.78-.12-1.07l-2.59-2.64c-.22-.22-.56-.25-.83-.08-.79,.49-1.7,.69-2.64,.58C1.63,10.67,.17,9.14,.01,7.27c-.17-1.99,1.17-3.8,3.08-4.24C3.58,1.13,5.41-.18,7.39,.02c1.85,.19,3.35,1.65,3.57,3.5,.1,.83-.06,1.66-.45,2.39-.22,.41-.14,.94,.21,1.29l2.55,2.59c.17,.18,.45,.21,.67,.07,.8-.51,1.73-.71,2.69-.58h0c1.84,.25,3.28,1.77,3.43,3.63,.17,1.99-1.17,3.8-3.08,4.24-.44,1.78-2.07,3.03-3.89,3.03ZM6.5,9.4c.38,0,.75,.15,1.03,.43l2.59,2.64c.54,.55,.64,1.4,.24,2.06-.36,.6-.52,1.29-.44,2,.16,1.48,1.36,2.66,2.84,2.81,1.65,.16,3.18-.98,3.47-2.62,.03-.17,.17-.3,.34-.33,1.64-.26,2.81-1.76,2.68-3.42-.12-1.47-1.27-2.68-2.73-2.88h0c-.76-.1-1.5,.06-2.14,.46-.54,.34-1.25,.26-1.69-.19l-2.55-2.59c-.6-.6-.74-1.53-.35-2.25,.31-.58,.44-1.24,.36-1.9-.17-1.46-1.37-2.63-2.84-2.78-1.65-.16-3.18,.98-3.47,2.62-.03,.17-.17,.31-.34,.33-1.64,.26-2.81,1.76-2.68,3.42,.12,1.49,1.28,2.7,2.76,2.89,.75,.09,1.47-.06,2.1-.46,.25-.16,.53-.24,.81-.24Z"/></g></svg>