<?xml version="1.0" encoding="UTF-8"?><svg id="uuid-5eabb94d-70f1-4043-99d3-a462d35e3497" xmlns="http://www.w3.org/2000/svg" viewBox="0 0 14.73 25.31"><defs><style>.uuid-f7d09f8d-fbe5-4027-b8b7-bba386a70c17{fill:#0c0d0e;}</style></defs><g id="uuid-4c17533b-28a7-4001-8ba5-ebd648b1f15f"><path class="uuid-f7d09f8d-fbe5-4027-b8b7-bba386a70c17" d="M8.18,10.63V2.79l2.86,2.86c.16,.16,.37,.24,.58,.24s.42-.08,.58-.24c.32-.32,.32-.84,0-1.16L7.94,.24c-.15-.15-.36-.24-.58-.24s-.42,.09-.58,.24L2.53,4.49c-.32,.32-.32,.84,0,1.16s.84,.32,1.16,0l2.86-2.86v7.84c-3.68,.41-6.55,3.53-6.55,7.32,0,4.06,3.3,7.36,7.37,7.36s7.36-3.3,7.36-7.36c0-3.79-2.87-6.91-6.55-7.32Zm-.82,13.05c-3.16,0-5.73-2.57-5.73-5.73s2.57-5.73,5.73-5.73,5.73,2.57,5.73,5.73-2.57,5.73-5.73,5.73Z"/></g></svg>