<?xml version="1.0" encoding="UTF-8"?><svg id="uuid-3f429803-198d-4d13-8153-1a62289ea82b" xmlns="http://www.w3.org/2000/svg" viewBox="0 0 26.65 28.17"><defs><style>.uuid-fb4091bd-d047-432c-a3f7-08ef082c6c5b{fill:#0c0d0e;}</style></defs><g id="uuid-e487ac17-3280-4489-b3df-b523790b8368"><path class="uuid-fb4091bd-d047-432c-a3f7-08ef082c6c5b" d="M18.89,12.76h-2.18v-4.47c0-1.02-.83-1.85-1.85-1.85h-.05c.42-.72,.65-1.54,.65-2.4,0-1.54-.71-2.95-1.95-3.88-.29-.22-.69-.22-.98,0-1.24,.92-1.95,2.34-1.95,3.88,0,.86,.23,1.68,.65,2.4h-.05c-1.02,0-1.85,.83-1.85,1.85v4.47h-1.58c-4.28,0-7.75,3.48-7.75,7.75v6.84c0,.45,.37,.82,.82,.82H25.83c.45,0,.82-.37,.82-.82v-6.84c0-4.28-3.48-7.75-7.75-7.75ZM13.03,1.92c.52,.58,.81,1.33,.81,2.12s-.29,1.54-.81,2.12c-.52-.58-.81-1.32-.81-2.12s.29-1.54,.81-2.12Zm-2.06,6.37c0-.12,.1-.21,.21-.21h3.69c.12,0,.21,.1,.21,.21v4.47h-4.12v-4.47Zm-3.21,6.1h11.14c2.99,0,5.49,2.16,6.01,5.01-.06,.11-.1,.23-.1,.37,0,.52-.99,1.13-2.26,1.13s-2.26-.61-2.26-1.13c0-.45-.37-.82-.82-.82s-.82,.37-.82,.82c0,.52-.99,1.13-2.26,1.13s-2.26-.61-2.26-1.13c0-.45-.37-.82-.82-.82s-.82,.37-.82,.82c0,.52-.99,1.13-2.26,1.13s-2.26-.61-2.26-1.13c0-.45-.37-.82-.82-.82s-.82,.37-.82,.82c0,.52-.99,1.13-2.26,1.13s-2.26-.61-2.26-1.13c0-.14-.04-.26-.1-.37,.52-2.85,3.02-5.01,6.01-5.01ZM1.63,26.54v-4.62c.67,.39,1.52,.63,2.46,.63,1.27,0,2.37-.42,3.08-1.07,.71,.65,1.8,1.07,3.08,1.07s2.37-.42,3.07-1.07c.71,.65,1.8,1.07,3.08,1.07s2.37-.42,3.08-1.07c.71,.65,1.8,1.07,3.08,1.07,.95,0,1.8-.24,2.46-.63v4.62H1.63Z"/></g></svg>