<?xml version="1.0" encoding="UTF-8"?><svg id="uuid-da4c40de-80ee-4d99-9c23-3ea7fd3d757a" xmlns="http://www.w3.org/2000/svg" viewBox="0 0 39.09 34.34"><defs><style>.uuid-44c9d62a-eb7f-4987-bb9d-72193c8e4b3c{fill:#fdf4d5;}.uuid-914b47e0-8975-47b1-9210-1872337810c7{fill:#343434;}</style></defs><g id="uuid-2c2bfeff-7ed3-44c1-8b6c-f903370593a5"><g><path class="uuid-44c9d62a-eb7f-4987-bb9d-72193c8e4b3c" d="M34.49,12.79c-.23-.29-.31-.68-.22-1.04,.99-4.1,1.39-8.31,.89-9.29-.92,.07-2.99,1.55-4.39,2.54-2.3,1.63-4.27,3.03-5.93,2.86-3.03-.34-11.43,.31-11.52,.32-.19,.01-.37-.01-.54-.08-3.95-1.56-8.72-3.1-10.36-3.23,.06,1.38,1.21,5.02,2.42,7.98,.14,.34,.12,.73-.06,1.05-.03,.05-3.01,5.61-1.36,10.53,.85,2.53,2.83,4.51,5.87,5.87,6.08,2.72,17.36,2.11,23.38-2.76,2.97-2.41,4.29-5.52,3.92-9.25-.2-2.01-.98-4.06-2.09-5.49Z"/><path class="uuid-914b47e0-8975-47b1-9210-1872337810c7" d="M39.02,18.04c-.23-2.27-1.04-4.52-2.24-6.27,.59-2.57,1.79-8.7,.33-10.81-.37-.54-.89-.86-1.5-.94-1.79-.23-3.95,1.33-6.26,2.97-1.4,1-3.54,2.5-4.23,2.42-2.96-.33-10.16,.18-11.7,.29C2.54,1.45,1.24,2.43,.74,2.8c-.54,.41-1.97,1.48,1.61,10.45-.8,1.67-2.95,6.92-1.27,11.94,1.08,3.22,3.5,5.68,7.19,7.34,2.64,1.18,6.15,1.82,9.84,1.82,5.72,0,11.9-1.53,16.08-4.92,3.6-2.92,5.27-6.86,4.82-11.39ZM9.28,30.29c-3.04-1.36-5.01-3.33-5.87-5.87-1.66-4.91,1.33-10.47,1.36-10.53,.18-.32,.2-.71,.06-1.05-1.21-2.96-2.36-6.6-2.42-7.98,1.65,.13,6.41,1.68,10.36,3.23,.17,.07,.36,.09,.54,.08,.08,0,8.49-.66,11.52-.32,1.65,.17,3.63-1.23,5.93-2.86,1.4-.99,3.47-2.47,4.39-2.54,.5,.98,.1,5.2-.89,9.29-.09,.36,0,.75,.22,1.04,1.11,1.43,1.89,3.48,2.09,5.49,.37,3.73-.95,6.84-3.92,9.25-6.02,4.88-17.3,5.48-23.38,2.76Z"/><g><ellipse class="uuid-914b47e0-8975-47b1-9210-1872337810c7" cx="15.1" cy="19.28" rx="1.44" ry="2.19"/><ellipse class="uuid-914b47e0-8975-47b1-9210-1872337810c7" cx="23.96" cy="19.28" rx="1.44" ry="2.19"/></g><path class="uuid-914b47e0-8975-47b1-9210-1872337810c7" d="M24.11,24.13c-.44-.09-.86,.21-.95,.65-.04,.17-.27,1.01-1.61,.98-.5-.02-.86-.13-1.04-.33-.12-.13-.15-.29-.16-.37,0-.11,0-.19,0-.21,0-.03-.02-.05-.02-.08,0-.05-.02-.09-.04-.14,.54-.25,.91-.8,.91-1.43,0-.87-.71-1.58-1.58-1.58h-.15c-.87,0-1.58,.71-1.58,1.58,0,.63,.37,1.17,.91,1.42v.02s-.02,.05-.03,.07c-.01,.04-.03,.08-.04,.13,0,.02,0,.1,0,.2,0,.08-.04,.24-.16,.38-.19,.2-.55,.32-1.04,.33-1.33,.03-1.57-.8-1.61-.98-.08-.44-.49-.74-.94-.66-.44,.07-.75,.5-.67,.94,.14,.82,.96,2.33,3.11,2.33,.05,0,.1,0,.16,0,.83-.03,1.48-.26,1.97-.67,.48,.41,1.14,.64,1.97,.67,.05,0,.11,0,.16,0,2.15,0,2.98-1.51,3.11-2.33,.07-.44-.22-.85-.66-.93Z"/></g></g></svg>