<svg xmlns="http://www.w3.org/2000/svg" viewBox="0 0 26.36 22.48"><path d="M25.64 14.02h-2.07c.07-.45.11-.91.11-1.37 0-.65-.07-1.3-.2-1.94L23.16.7a.7.7 0 0 0-.42-.63.724.724 0 0 0-.76.09l-4.45 3.55c-2.78-1.19-6.02-1.18-8.78.03L4.27.16a.722.722 0 0 0-.76-.09c-.25.12-.41.36-.42.64l-.34 10.85c-.05.39-.07.75-.07 1.09 0 .09 0 .19.01.28v.67c-.02.13.02.24.08.35 0 .03.01.05.01.08H.72c-.4 0-.72.32-.72.72s.32.72.72.72h2.41a9.547 9.547 0 0 0 2.07 3.57l-2.33 1.08a.724.724 0 1 0 .62 1.31l2.85-1.33c1.84 1.48 4.23 2.37 6.84 2.37s4.99-.9 6.82-2.38l2.87 1.34c.1.05.2.07.31.07a.724.724 0 0 0 .31-1.38l-2.34-1.09a9.752 9.752 0 0 0 2.09-3.57h2.4c.4 0 .72-.32.72-.72s-.32-.72-.72-.72Zm-5.88 4.37-3.74-1.74a.724.724 0 0 0-.61 1.31l3.1 1.45c-1.5 1.02-3.34 1.62-5.33 1.62s-3.85-.6-5.35-1.61l3.13-1.46a.724.724 0 0 0-.61-1.31L6.59 18.4c-.84-.83-1.5-1.82-1.92-2.93h3.74c.4 0 .72-.32.72-.72s-.32-.72-.72-.72H4.26c-.03-.17-.06-.35-.08-.53a.47.47 0 0 0-.04-.16V12.65c0-.29.02-.59.06-.98l.3-9.47 3.71 2.95c.22.17.52.21.77.08a9.66 9.66 0 0 1 8.35-.03c.25.12.55.08.76-.09l3.66-2.92.27 8.63s0 .09.02.13c.12.55.19 1.12.19 1.69 0 .47-.05.93-.13 1.37h-4.14c-.4 0-.72.32-.72.72s.32.72.72.72h3.73a8.41 8.41 0 0 1-1.93 2.92Z"/><path d="M9.85 9.56a1.05 1.05 0 1 0 0 2.1 1.05 1.05 0 0 0 0-2.1ZM13.12 12.89a1.05 1.05 0 1 0 0 2.1 1.05 1.05 0 0 0 0-2.1ZM17.56 10.61a1.05 1.05 0 1 0-2.1 0 1.05 1.05 0 0 0 2.1 0Z"/></svg>