<?xml version="1.0" encoding="UTF-8"?><svg id="b" xmlns="http://www.w3.org/2000/svg" viewBox="0 0 29.04 25.94"><g id="c"><path d="M25.89,25.94c-.15,0-.29-.04-.42-.13l-5.93-4.09c-.51,.07-.98,.1-1.42,.1h-7.21C4.9,21.83,0,16.93,0,10.91S4.9,0,10.91,0h7.21c6.02,0,10.91,4.9,10.91,10.91h0c0,3.29-1.52,6.43-4.1,8.5l1.66,5.59c.09,.3-.02,.62-.27,.8-.13,.09-.28,.14-.43,.14Zm-6.17-5.73c.15,0,.29,.04,.42,.13l4.45,3.07-1.21-4.07c-.09-.3,.02-.62,.27-.8,2.45-1.78,3.91-4.64,3.91-7.63,0-5.21-4.24-9.44-9.44-9.44h-7.21C5.71,1.47,1.47,5.71,1.47,10.91s4.24,9.44,9.44,9.44h7.21c.45,0,.93-.04,1.48-.13,.04,0,.08,0,.12,0Z"/></g></svg>