<?xml version="1.0" encoding="UTF-8"?><svg id="uuid-39ca47b3-95ca-47dd-ba85-e2293be05e0e" xmlns="http://www.w3.org/2000/svg" viewBox="0 0 15.94 15.94"><defs><style>.uuid-d09632db-43a0-474e-b2cd-d74f23593771{fill:#0c0d0e;}</style></defs><g id="uuid-82c22be9-2d02-4407-82bf-afeb7d8b5735"><path class="uuid-d09632db-43a0-474e-b2cd-d74f23593771" d="M9.13,7.97L15.7,1.39c.32-.32,.32-.84,0-1.16s-.84-.32-1.16,0L7.97,6.82,1.39,.24C1.08-.08,.56-.08,.24,.24S-.08,1.08,.24,1.39L6.82,7.97,.24,14.55c-.32,.32-.32,.84,0,1.16,.16,.16,.37,.24,.58,.24s.42-.08,.58-.24l6.58-6.58,6.58,6.58c.16,.16,.37,.24,.58,.24s.42-.08,.58-.24c.32-.32,.32-.84,0-1.16l-6.58-6.58Z"/></g></svg>