<?xml version="1.0" encoding="UTF-8"?><svg id="uuid-02f2e901-4a25-4de2-a9eb-293bce032589" xmlns="http://www.w3.org/2000/svg" viewBox="0 0 28.8 26.44"><defs><style>.uuid-e9ba66ca-fef5-4795-93af-4ce8d7f2d769{fill:#ffcc41;}</style></defs><g id="uuid-0a799122-7ec2-45be-a805-769f14fbb897"><g><path class="uuid-e9ba66ca-fef5-4795-93af-4ce8d7f2d769" d="M27.31,1.48c-.36,0-.74,.14-1.04,.44l-5.49,4.67L15.45,.43c-.29-.29-.67-.43-1.05-.43s-.76,.14-1.05,.43l-5.33,6.15L2.53,1.92c-.3-.3-.67-.44-1.04-.44-.76,0-1.49,.59-1.49,1.49L1.63,21.24H27.17l1.63-18.28c0-.89-.73-1.49-1.49-1.49Zm-3.88,15.68H5.37l-.72-8.08,.72,.61,3.08,2.62,2.65-3.06,3.3-3.8,3.3,3.8,2.65,3.06,3.08-2.62,.72-.61-.72,8.08Z"/><path class="uuid-e9ba66ca-fef5-4795-93af-4ce8d7f2d769" d="M1.65,25.38c0,.59,.47,1.06,1.06,1.06H26.09c.59,0,1.06-.47,1.06-1.06v-2.53H1.65v2.53Z"/></g></g></svg>