<svg xmlns="http://www.w3.org/2000/svg" viewBox="0 0 24.47 23.4"><path d="M23.65 4.96C22.86 3.01 21.47.59 19.29.12c-2.69-.58-4.25 1.04-4.9 2.36-1.81-.38-3.43-.17-4.29 0C9.44 1.17 7.88-.46 5.19.12 3.01.59 1.62 3.01.83 4.96.38 6.07-.07 7.38 0 8.71c.07 1.32.86 2.27 2.1 2.66l-.39 2.28c-.21 1.25-.14 2.4.21 3.44 1.27 3.72 5.46 6.31 10.19 6.31 3.71 0 7.2-1.62 9.1-4.23 1.16-1.59 1.62-3.71 1.26-5.82l-.37-1.92c1.4-.33 2.29-1.32 2.37-2.74.07-1.33-.37-2.64-.82-3.75Zm-.63 3.67c-.05.92-.64 1.42-1.75 1.48-1.66.1-3.83-.93-4.08-2.34a.732.732 0 0 0-.84-.59c-.39.07-.66.44-.59.84.34 1.97 2.72 3.37 4.88 3.53l.4 2.07c.29 1.71-.07 3.43-1 4.71-1.63 2.24-4.67 3.63-7.92 3.63-4.12 0-7.74-2.19-8.82-5.33-.28-.81-.33-1.73-.16-2.73l.4-2.34c2.24-.05 4.82-1.48 5.17-3.54.07-.4-.2-.77-.59-.84-.39-.07-.77.2-.84.59-.24 1.41-2.42 2.44-4.08 2.34-1.11-.06-1.7-.56-1.75-1.48-.06-1.04.33-2.16.72-3.12.93-2.29 2.1-3.7 3.32-3.96C8.06.99 8.88 3.3 8.96 3.56c.06.18.18.34.35.43.17.09.37.11.55.05.02 0 2.3-.69 4.75 0 .38.11.77-.11.89-.48.08-.26.89-2.57 3.47-2.02 1.21.26 2.39 1.67 3.32 3.96.39.96.78 2.08.72 3.12Z"/><path d="M7.5 13.11c-.45 0-.83.37-.83.83v.79c0 .45.37.83.83.83s.83-.37.83-.83v-.79c0-.45-.37-.83-.83-.83ZM16.86 15.55c.45 0 .83-.37.83-.83v-.79c0-.45-.37-.83-.83-.83s-.83.37-.83.83v.79c0 .45.37.83.83.83ZM13.32 15.79a1.11 1.11 0 0 0-.48-.09h-1.51c-.17 0-.33.02-.48.09-.28.13-.46.46-.44.77.03.36.31.66.55.9.19.19.39.38.59.56.15.13.32.27.52.26.2 0 .37-.13.52-.26.2-.18.4-.37.59-.56.24-.24.52-.54.55-.9a.808.808 0 0 0-.44-.77Z"/></svg>