<?xml version="1.0" encoding="UTF-8"?><svg id="uuid-ce5805a8-af82-4416-b075-94e703796c91" xmlns="http://www.w3.org/2000/svg" viewBox="0 0 41.84 32.16"><defs><style>.uuid-3c6397c5-15ce-4814-9a5b-4b9c06bea410{fill:#da937c;}.uuid-678f7fcd-9aaa-4cf6-8c84-c39764a60302{fill:#d8cdc3;}.uuid-d5a4b2e6-f55e-43e7-b470-3e61f0426e1e{fill:#343434;}</style></defs><g id="uuid-66f50e40-4a6d-4a4b-9c35-35fd86021f04"><g><path class="uuid-678f7fcd-9aaa-4cf6-8c84-c39764a60302" d="M25.76,2.77c-10.99-1.22-15.43,1.29-16.21,2.36-1.23,1.68-2.93,5.7-3.09,6.07-.16,.44-2.56,7.48,.29,12.6,1.47,2.64,4.15,4.37,7.97,5.14,9.57,1.94,14.91-.13,17.69-2.21,2.56-1.91,4.06-4.62,4.34-7.82,.49-5.51-.29-14.94-10.99-16.13Z"/><path class="uuid-d5a4b2e6-f55e-43e7-b470-3e61f0426e1e" d="M26.03,.34C15.1-.87,9.26,1.38,7.58,3.68c-1.45,1.99-3.31,6.41-3.39,6.6,0,.02-.01,.03-.02,.05-.13,.34-3.04,8.4,.44,14.65,1.84,3.3,5.08,5.44,9.62,6.36,2.85,.58,5.36,.82,7.58,.82,5.94,0,9.75-1.74,12.06-3.47,3.09-2.31,4.98-5.7,5.32-9.57,.96-10.9-3.84-17.75-13.16-18.78Zm10.72,18.56c-.28,3.21-1.78,5.91-4.34,7.82-2.79,2.08-8.12,4.15-17.69,2.21-3.81-.77-6.49-2.5-7.97-5.14-2.86-5.12-.45-12.16-.29-12.6,.16-.37,1.86-4.39,3.09-6.07,.78-1.07,5.22-3.57,16.21-2.36,10.7,1.18,11.48,10.61,10.99,16.13Z"/><path class="uuid-3c6397c5-15ce-4814-9a5b-4b9c06bea410" d="M18.3,20.57s-.56,5.08,2.34,5.41,3.23-1.53,2.98-5.41"/><path class="uuid-d5a4b2e6-f55e-43e7-b470-3e61f0426e1e" d="M29.4,16.49c-.45,.03-.79,.42-.76,.87,.02,.31-.27,.88-.95,1.41-.9,.71-2.45,1.29-4.08,.79-2-.62-2.75-.52-3.91-.3-.63,.12-1.34,.26-2.63,.26-2.83,0-3.75-2.4-3.79-2.5-.15-.42-.62-.64-1.04-.49-.42,.15-.65,.62-.49,1.04,.05,.15,1.33,3.58,5.33,3.58,.13,0,.25,0,.37,0-.1,2.22,.46,5.34,3.11,5.63,.24,.03,.47,.04,.69,.04,.94,0,1.67-.25,2.2-.76,.95-.9,1.14-2.43,1.04-4.71,.12,0,.25,.03,.37,.03,1.56,0,2.94-.62,3.84-1.33,1.04-.82,1.63-1.87,1.56-2.81-.03-.45-.43-.78-.87-.76Zm-7.08,8.4c-.11,.1-.43,.41-1.58,.28-1.67-.19-1.69-3.1-1.64-4.14,.36-.05,.66-.11,.93-.16,.85-.17,1.35-.26,2.82,.17,.09,1.7,.07,3.29-.52,3.85Z"/><path class="uuid-678f7fcd-9aaa-4cf6-8c84-c39764a60302" d="M2.72,7.66c-.62,1.86,0,2.55,.2,2.78,1.15,1.3,4.17,1.3,4.84,1.2,.17-.06,.34-.08,.48-.1,.47-.06,1.91-.26,2.66-4.79,.46-2.78,.27-3.9,.15-4.28-1.12,.02-6.71,.35-8.31,5.19Z"/><path class="uuid-d5a4b2e6-f55e-43e7-b470-3e61f0426e1e" d="M12.61,.49C12.13,.06,11.58-.04,11.15,.01h0C10.03,.01,2.58,.27,.39,6.89c-.99,3,.08,4.72,1.16,5.64,1.47,1.25,3.72,1.6,5.33,1.6,.89,0,1.58-.11,1.83-.24-.13,.07-.23,.09-.24,.09h.09c1.59-.23,3.82-1.17,4.75-6.83,.59-3.6,.37-5.72-.69-6.66Zm-4.38,11.05c-.14,.02-.3,.04-.48,.1-.67,.1-3.68,.1-4.84-1.2-.2-.23-.81-.92-.2-2.78C4.32,2.82,9.91,2.48,11.03,2.47c.12,.38,.31,1.5-.15,4.28-.75,4.53-2.18,4.72-2.66,4.79Z"/><path class="uuid-678f7fcd-9aaa-4cf6-8c84-c39764a60302" d="M30.8,2.47c-.12,.38-.31,1.5,.15,4.28,.75,4.53,2.18,4.72,2.66,4.79,.14,.02,.3,.04,.48,.1,.67,.1,3.68,.1,4.84-1.2,.2-.23,.81-.92,.2-2.78-1.6-4.84-7.19-5.17-8.31-5.19Z"/><path class="uuid-d5a4b2e6-f55e-43e7-b470-3e61f0426e1e" d="M41.45,6.89C39.25,.27,31.8,.01,30.69,.01h0c-.43-.06-.98,.05-1.46,.47-1.06,.94-1.28,3.05-.69,6.66,.93,5.67,3.16,6.61,4.75,6.82h.09s-.11,0-.24-.08c.24,.13,.94,.24,1.83,.24,1.6,0,3.86-.36,5.33-1.6,1.08-.91,2.15-2.63,1.16-5.64Zm-2.52,3.55c-1.15,1.3-4.17,1.3-4.84,1.2-.17-.06-.34-.08-.48-.1-.47-.06-1.91-.26-2.66-4.79-.46-2.78-.27-3.9-.15-4.28,1.12,.02,6.71,.35,8.31,5.19,.62,1.86,0,2.55-.2,2.78Z"/><path class="uuid-d5a4b2e6-f55e-43e7-b470-3e61f0426e1e" d="M13.22,13.18c-.4,0-.75-.3-.81-.7-.06-.45,.25-.86,.7-.92l4.15-.58c.45-.07,.86,.25,.92,.7s-.25,.86-.7,.92l-4.15,.58s-.08,0-.11,0Z"/><path class="uuid-d5a4b2e6-f55e-43e7-b470-3e61f0426e1e" d="M28.79,13.18s-.07,0-.11,0l-4.15-.58c-.45-.06-.76-.47-.7-.92s.48-.76,.92-.7l4.15,.58c.45,.06,.76,.47,.7,.92-.06,.41-.41,.7-.81,.7Z"/><path class="uuid-d5a4b2e6-f55e-43e7-b470-3e61f0426e1e" d="M21.82,16.79h-1.68c-.87,0-1.58-.71-1.58-1.58s.71-1.58,1.58-1.58h1.68c.87,0,1.58,.71,1.58,1.58s-.71,1.58-1.58,1.58Z"/></g></g></svg>