<?xml version="1.0" encoding="UTF-8"?><svg id="uuid-e203888c-7d25-49ef-925d-90ed2fb1e0e3" xmlns="http://www.w3.org/2000/svg" viewBox="0 0 110.37 83.35"><defs><style>.uuid-53ac6868-43b2-43f1-9a11-ede68fc69ba1{fill:#cbcbcb;}</style></defs><g id="uuid-9f831124-ad44-4004-8ac1-cbfad495a015"><g><path class="uuid-53ac6868-43b2-43f1-9a11-ede68fc69ba1" d="M72.85,63.69h-6.36l-16.28-16.28,7.2-7.2,18.45,18.45h9.68v-.22l-28.12-28.12-12.15,12.15L18.96,16.17,7.16,27.97V7H90.62V45.97h7V0H.16V34.97l-.16,.16,.16,.16v35.4H72.85v-7Zm-65.68,0v-25.82l11.8-11.8,21.34,21.34h0l16.28,16.28H7.16Z"/><circle class="uuid-53ac6868-43b2-43f1-9a11-ede68fc69ba1" cx="80.21" cy="17.86" r="3.94"/><polygon class="uuid-53ac6868-43b2-43f1-9a11-ede68fc69ba1" points="110.37 63.66 110.37 70.66 97.68 70.66 97.68 83.35 90.68 83.35 90.68 70.66 78 70.66 78 63.66 90.68 63.66 90.68 50.98 97.68 50.98 97.68 63.66 110.37 63.66"/></g></g></svg>