<?xml version="1.0" encoding="UTF-8"?><svg id="uuid-b0caedc0-ba2d-4f92-9f43-6a12d5060b81" xmlns="http://www.w3.org/2000/svg" viewBox="0 0 22.17 22.17"><defs><style>.uuid-b59677bb-16b1-481d-b3b1-7b079cf61f6a{fill:#0c0d0e;}</style></defs><g id="uuid-d747af77-fb38-43ef-aef8-efb279832efd"><g><path class="uuid-b59677bb-16b1-481d-b3b1-7b079cf61f6a" d="M11.09,0C4.97,0,0,4.97,0,11.09s4.97,11.09,11.09,11.09,11.09-4.97,11.09-11.09S17.2,0,11.09,0Zm0,20.54c-5.21,0-9.45-4.24-9.45-9.45S5.87,1.63,11.09,1.63s9.45,4.24,9.45,9.45-4.24,9.45-9.45,9.45Z"/><path class="uuid-b59677bb-16b1-481d-b3b1-7b079cf61f6a" d="M16.58,7.77H5.59c-.45,0-.82,.37-.82,.82s.37,.82,.82,.82h10.99c.45,0,.82-.37,.82-.82s-.37-.82-.82-.82Z"/><path class="uuid-b59677bb-16b1-481d-b3b1-7b079cf61f6a" d="M16.58,12.77H5.59c-.45,0-.82,.37-.82,.82s.37,.82,.82,.82h10.99c.45,0,.82-.37,.82-.82s-.37-.82-.82-.82Z"/></g></g></svg>