<svg xmlns="http://www.w3.org/2000/svg" viewBox="0 0 203.91 88.95"><path d="M38.22 2.95c-.02-.43.1-.75.35-.96s.53-.31.84-.31c.32 0 .62.09.88.27.26.18.4.43.42.76v1.81l.05 2.87c.02.5.03.99.03 1.45v1.37c.02.43.03.79.03 1.07s0 .48.03.61c0 .54-.23.9-.68 1.08-.23.09-.46.16-.66.2-.21.05-.41.08-.61.1-.52.04-1.11.06-1.76.08-.65.02-1.31.03-1.98.03s-1.35-.02-1.99-.05-1.21-.09-1.72-.16a1.75 1.75 0 0 1-.81-.28c-.27-.17-.51-.5-.73-.99-.09-.14-.14-.62-.16-1.43l-.05-2.79V3.64c0-.3 0-.52.03-.66-.02-.4.1-.71.35-.93.25-.23.53-.34.84-.34s.59.12.87.35c.27.24.42.6.46 1.08-.02.14-.03.48-.03 1.02v1.83c1.05.02 2.05.03 3 .03h3.06c-.02-.38-.03-.74-.04-1.08 0-.34-.01-.65-.01-.92V2.96Zm-5.98 5.17c0 .69 0 1.28.03 1.77.02.5.04.78.08.85.2.07.54.13 1.02.16.48.04 1.01.06 1.58.08.58 0 1.17-.01 1.79-.04.61-.03 1.15-.07 1.62-.12-.02-.05-.03-.16-.03-.32v-.6c-.02-.23-.03-.5-.03-.8v-.93c-1.03.04-2.05.04-3.06 0-.5 0-1.01 0-1.52-.01s-1-.02-1.49-.04Zm.7 8.23c-.04-.32.07-.63.32-.92.25-.29.62-.43 1.11-.43.23.04.55.06.96.07s.86.02 1.37.04c.5.02 1.05.03 1.62.03h3.52c.58 0 1.12 0 1.62-.01.5 0 .96-.02 1.38-.04.41-.02.76-.04 1.03-.05.49.02.84.16 1.06.42.22.26.32.55.32.85-.02.32-.14.61-.35.87-.22.25-.51.38-.87.38-.41.02-1.06.03-1.95.03h-5.97c-1.04 0-1.91 0-2.61-.03 0 .16 0 .4-.01.72s-.02.64-.04.96c-.02.34-.03.65-.03.93s.02.47.05.58c.22.05.5.09.87.12.36.03.78.05 1.24.07s.97.03 1.52.04 1.09.01 1.65.01 1.1 0 1.62-.01c.52 0 1.04-.02 1.54-.04 1.05-.04 1.8-.09 2.25-.16.47-.02.83.09 1.08.34s.39.52.41.83-.09.6-.31.89c-.23.29-.58.46-1.07.51-.25.02-.58.03-.99.03s-.89 0-1.45.03c-.56.02-1.12.03-1.69.03h-1.75c-.6 0-1.19 0-1.79-.01l-1.66-.03c-.51-.01-.98-.02-1.39-.04-.42-.02-.75-.05-1-.08-.27-.04-.55-.14-.83-.3-.28-.16-.53-.49-.74-.97-.05-.13-.09-.44-.11-.93-.02-.5-.03-1.04-.03-1.64s0-1.2.03-1.77.04-1 .05-1.29ZM44.07 2.73c-.09-.47-.03-.83.19-1.1s.48-.41.78-.45c.29-.04.58.04.87.23.29.19.47.5.54.93.02.38.04.75.08 1.12.04.37.07.73.11 1.07.04.36.07.71.09 1.06.03.34.06.68.09 1h2.41c.4 0 .7.13.91.38s.31.53.31.84-.1.58-.3.83c-.2.24-.5.37-.92.37h-2.25c.04.56.06 1.09.08 1.58.02.5.03.95.03 1.37 0 .49-.13.86-.39 1.11-.26.25-.55.38-.85.38-.32.02-.61-.1-.87-.34-.25-.24-.38-.63-.38-1.15 0-1.08-.04-2.38-.11-3.88-.07-1.51-.22-3.29-.43-5.35ZM67.18 11.42c.47-.05.83.03 1.08.24.25.22.4.47.43.76.04.31-.05.6-.26.88-.21.28-.53.46-.96.53-.97.07-2.04.13-3.21.19-1.16.05-2.37.09-3.61.11s-2.46.01-3.64-.01-2.29-.09-3.32-.18c-.49 0-.85-.13-1.1-.39-.24-.26-.36-.55-.34-.85 0-.31.13-.58.38-.83.25-.24.63-.37 1.14-.37.97.09 2.02.15 3.14.18s2.27.03 3.46.01c1.19 0 2.36-.02 3.52-.07 1.15-.05 2.25-.11 3.27-.2ZM55 16.64c0 .52.02 1.05.07 1.58s.1.96.15 1.29c.67.2 1.5.34 2.49.43.99.09 2.03.14 3.11.16 1.08 0 2.13-.04 3.14-.11 1.01-.07 1.89-.19 2.65-.35.49-.07.87 0 1.15.23s.43.5.45.83-.09.64-.34.95c-.24.31-.63.5-1.15.57-.81.14-1.8.26-2.95.34s-2.33.11-3.52.1c-1.19-.02-2.33-.08-3.41-.18-1.08-.1-1.94-.24-2.57-.42-.36-.02-.66-.14-.91-.35s-.47-.57-.69-1.06c-.05-.13-.1-.36-.15-.69a8.9 8.9 0 0 1-.09-1.1c-.02-.41-.03-.82-.04-1.22 0-.4-.01-.73-.01-1 0-.5.14-.88.41-1.14s.57-.38.89-.38.63.13.91.39.42.64.42 1.12Zm5.1-15.42c.78 0 1.53.07 2.27.22.73.14 1.38.38 1.94.7.56.34 1.01.78 1.36 1.31.34.53.52 1.19.52 1.96 0 .65-.15 1.22-.45 1.72s-.73.91-1.29 1.24c-.56.33-1.23.58-2.01.75-.78.16-1.64.24-2.58.24s-1.76-.07-2.52-.2c-.76-.14-1.43-.37-2.01-.69-.58-.31-1.03-.72-1.36-1.24s-.49-1.19-.49-2 .22-1.5.65-2.02.97-.91 1.62-1.2c.67-.29 1.39-.49 2.16-.6.77-.11 1.5-.17 2.18-.19Zm.02 2.19c-.49 0-.98.03-1.47.1-.5.06-.94.16-1.34.28-.41.14-.75.33-1 .57-.25.23-.38.52-.38.87 0 .65.34 1.16 1.03 1.53.69.37 1.65.52 2.9.45 1.41.05 2.42-.08 3.04-.39.62-.31.94-.81.96-1.48-.04-1.21-1.28-1.85-3.73-1.92ZM87.61 3.57c.05.5.04 1.19-.04 2.06-.08.87-.23 1.73-.45 2.6-.29.9-.77 1.77-1.43 2.6s-1.38 1.51-2.14 2.03c-.41.22-.79.28-1.14.2-.34-.08-.6-.24-.76-.47-.16-.22-.21-.49-.15-.81s.28-.63.66-.92c.58-.45 1.08-.96 1.52-1.51.43-.56.79-1.19 1.06-1.89.18-.56.29-1.19.32-1.89.02-.36.03-.66.04-.89s0-.42-.01-.57l-6.22.03c-.5.02-.88-.1-1.12-.35-.24-.25-.36-.52-.34-.81 0-.31.12-.59.37-.84.24-.25.61-.38 1.1-.38h6.66c.76 0 1.27.15 1.54.45s.45.76.54 1.39Zm-4.22 13.18c0 .27 0 .55.01.84s.02.58.04.87.04.55.07.8.06.45.09.61c.22.05.5.09.84.12.34.03.73.05 1.18.08s.92.05 1.42.05 1.02.01 1.54.01 1.02 0 1.53-.01l1.45-.03c.45-.01.86-.02 1.23-.04s.67-.04.91-.08c.45-.02.8.09 1.06.32.25.24.39.51.41.84.02.31-.08.6-.3.88-.22.28-.57.45-1.06.5-.27 0-.6 0-1 .03s-.84.03-1.34.04c-.5 0-1.02.02-1.57.03s-1.11.01-1.66.01-1.14 0-1.69-.01c-.55 0-1.07-.02-1.56-.04s-.93-.04-1.33-.05c-.4-.02-.72-.05-.97-.08-.27-.04-.54-.14-.81-.3-.27-.16-.51-.49-.73-.97-.05-.13-.1-.37-.15-.74-.05-.37-.08-.78-.09-1.23-.04-.45-.06-.9-.07-1.34 0-.44-.01-.8-.01-1.07 0-.5.13-.88.39-1.14s.55-.38.88-.38.62.13.89.38.41.62.41 1.11Zm8.44-13.96c-.09-.47-.03-.83.19-1.1s.48-.41.78-.45c.29-.04.58.04.87.23.29.19.47.5.54.93l.35 4.25H97c.4 0 .7.13.91.38.21.25.31.53.31.84s-.1.58-.3.83-.5.37-.92.37h-2.3c.05.92.09 1.76.12 2.53s.04 1.41.04 1.93c0 .49-.13.86-.39 1.11s-.55.38-.85.38c-.32.02-.61-.09-.87-.34-.25-.24-.38-.63-.38-1.15s0-1.21-.03-2.02c-.02-.8-.05-1.69-.08-2.67-.04-.94-.09-1.93-.16-2.96-.07-1.04-.16-2.07-.27-3.1ZM106.91 2.49c.32.56.69 1.19 1.08 1.89.4.7.79 1.43 1.19 2.19s.77 1.5 1.12 2.23c.35.73.65 1.39.91 1.99.11.45.08.81-.1 1.07s-.4.43-.69.5c-.27.07-.56.04-.88-.11-.32-.14-.55-.41-.72-.81-.18-.34-.41-.8-.69-1.38l-.85-1.76c-.31-.6-.59-1.15-.84-1.66s-.43-.91-.54-1.18c-.14.43-.31.91-.5 1.43-.19.52-.39 1.05-.61 1.57-.22.52-.45 1.05-.7 1.57-.25.52-.5 1-.73 1.43-.25.45-.56.74-.92.85-.36.12-.69.11-.97-.01-.29-.13-.49-.36-.61-.69-.12-.33-.04-.73.23-1.2.25-.43.54-.98.85-1.65.32-.67.64-1.38.96-2.14s.63-1.48.92-2.18c.29-.7.54-1.3.76-1.8.07-.25.22-.45.43-.6.22-.14.44-.23.68-.24.23-.02.46.03.69.15.23.12.4.29.53.53Zm8.74 19.08c0-.58-.02-1.15-.05-1.71-.04-.56-.09-1.04-.16-1.43-.25 0-.56 0-.93.01-.37 0-.78.02-1.23.03-.45 0-.93.01-1.45.01h-4.59c-.96 0-1.67-.02-2.14-.05-.47-.02-.82-.16-1.06-.43-.23-.27-.35-.56-.35-.87-.02-.31.09-.59.32-.84s.6-.38 1.08-.38c.23.04.55.06.93.07s.82.02 1.29.04c.47.02.97.03 1.52.03h3.27c.54 0 1.05 0 1.53-.01.48 0 .92-.02 1.31-.03.4 0 .73-.02 1-.04.69 0 1.17.12 1.45.37.28.24.42.58.42 1.01.04.6.08 1.27.12 2.03.04.76.08 1.49.09 2.19-.04.49-.18.84-.43 1.07-.25.23-.52.33-.81.31-.29 0-.55-.12-.78-.35-.23-.23-.35-.58-.35-1.03Zm-.08-18.84c-.09-.47-.03-.83.19-1.1.22-.26.47-.41.76-.45.31-.04.6.04.88.23s.46.5.53.93l.45 5.39c.14 1.68.2 3.09.2 4.22 0 .49-.13.86-.39 1.11-.26.25-.55.38-.85.38-.31.02-.59-.1-.84-.34s-.38-.63-.38-1.15c0-1.08-.04-2.38-.11-3.88-.07-1.51-.22-3.29-.43-5.35ZM138.38 5.06c0 .88-.13 1.63-.39 2.25-.26.61-.62 1.12-1.07 1.52-.43.4-.95.68-1.54.85-.6.17-1.22.26-1.87.26-1.37 0-2.53-.39-3.46-1.16s-1.41-2.01-1.41-3.71c0-.92.13-1.69.38-2.31.25-.62.6-1.12 1.06-1.5.43-.38.95-.65 1.54-.81.6-.16 1.23-.24 1.89-.24s1.27.09 1.87.27c.59.18 1.11.47 1.54.87.45.4.81.9 1.07 1.52.26.61.39 1.35.39 2.22Zm6.71 14.15c-.36.07-.79.14-1.29.19a52.236 52.236 0 0 1-3.47.24c-.65.03-1.3.04-1.95.04-.65.02-1.28.03-1.88.04-.6.01-1.19 0-1.75-.01-.56-.02-1.03-.04-1.42-.05s-.7-.05-.93-.08c-.04.15-.06.3-.07.47 0 .17 0 .33.01.49 0 .16 0 .32.01.48s.01.3.01.43c.4.04.84.06 1.34.08.5.02 1.06.04 1.69.05 1.24.04 2.51.04 3.79 0 .65 0 1.28 0 1.89-.01.61-.01 1.19-.03 1.73-.05s1.03-.05 1.46-.08.78-.07 1.06-.12c.41-.04.74.05.97.27s.37.46.41.72c.02.28-.08.56-.3.84-.22.28-.55.45-1 .52-.31.04-.71.07-1.2.09-.5.03-1.05.06-1.66.09-.63.02-1.3.04-2.02.05s-1.43.03-2.15.03h-2.18c-.7 0-1.35 0-1.96-.03-.61 0-1.15-.01-1.62-.04-.47-.03-.83-.05-1.08-.07-.41-.05-.73-.21-.95-.46-.22-.25-.38-.51-.49-.78-.09-.22-.15-.51-.19-.89-.04-.38-.05-.77-.05-1.16s0-.77.03-1.12c.02-.35.04-.63.05-.83.02-.18.04-.37.08-.55.04-.19.1-.35.2-.49.1-.13.23-.25.41-.34s.41-.14.72-.14c.7.13 1.61.21 2.72.26 1.11.05 2.26.06 3.45.04 1.21 0 2.37-.03 3.49-.1 1.12-.06 2.06-.15 2.81-.26-.02-.07-.03-.19-.03-.35v-.52c0-.2 0-.39-.03-.58-.02-.19-.04-.36-.05-.5-.59.07-1.42.13-2.46.16-1.05.04-2.14.06-3.27.08-.58 0-1.14 0-1.69-.01s-1.08-.02-1.58-.04c-.51-.02-.97-.05-1.38-.08-.42-.04-.76-.08-1.03-.14-.45 0-.79-.13-1.02-.39-.23-.26-.34-.55-.34-.88 0-.31.11-.59.34-.84.23-.25.56-.37 1.02-.35.32.05.7.1 1.14.15s.91.08 1.42.11c.51.03 1.06.05 1.62.07.57.02 1.14.03 1.72.03 1.19 0 2.32-.02 3.4-.07 1.07-.04 1.94-.12 2.61-.23.16 0 .33 0 .5.03s.34.06.5.14c.16.07.31.18.43.34.13.15.22.37.27.64.05.25.1.61.12 1.07.03.46.04.93.04 1.42.02.47.02.9.01 1.3 0 .4-.01.66-.01.79-.04.34-.16.58-.38.7-.22.13-.42.2-.6.22Zm-8.98-14.15c0-.54-.07-.98-.22-1.31-.14-.33-.33-.6-.55-.78-.23-.19-.5-.32-.81-.39a4.69 4.69 0 0 0-1.02-.11c-.74 0-1.36.16-1.87.49-.52.32-.77 1.03-.73 2.11-.07 1.07.15 1.77.68 2.11.54.32 1.18.49 1.92.49.36 0 .7-.04 1.02-.12.32-.08.59-.22.83-.41.23-.19.42-.45.55-.78s.2-.76.2-1.29Zm6.2-3.33c-.09-.47-.03-.83.19-1.08.22-.25.48-.4.78-.43.29-.04.58.04.87.23.29.19.47.49.54.91.02.27.04.54.07.8.03.26.05.51.07.74.02.24.04.47.05.69.02.23.04.44.08.64h2.52c.4 0 .7.13.91.38s.31.53.31.84-.1.58-.3.83-.5.37-.92.37h-2.35c0 .25 0 .5.01.74 0 .24.01.48.01.72s0 .47.01.7c0 .23.01.47.01.7 0 .49-.13.86-.39 1.11-.26.25-.55.38-.85.38-.32 0-.61-.12-.87-.37-.25-.24-.38-.62-.38-1.12V7.95c0-.5 0-1.04-.03-1.64-.02-.58-.05-1.23-.11-1.95-.05-.72-.14-1.6-.24-2.62ZM165.28 19.7c-.36.07-.79.14-1.27.19-.49.05-1.02.1-1.58.13s-1.17.07-1.8.1-1.26.04-1.89.04c-.63.02-1.25.03-1.85.03s-1.17 0-1.69-.01c-.52 0-.99-.02-1.39-.04s-.72-.05-.93-.08c-.07.25-.09.53-.05.85 0 .16 0 .31.01.45 0 .14.01.28.01.4.78.05 1.73.1 2.87.13s2.3.05 3.49.05c1.19.02 2.3 0 3.32-.03 1.02-.04 1.81-.1 2.37-.19.43-.04.77.05 1 .26s.36.46.38.75c.04.31-.05.6-.27.88-.22.27-.55.46-1 .55-.31.04-.69.06-1.14.08-.45.02-.99.04-1.62.05-.61.02-1.24.03-1.88.04-.64 0-1.29.01-1.96.01-1.35 0-2.63-.03-3.84-.08-.6-.02-1.11-.04-1.53-.05-.42-.02-.76-.05-1.02-.08-.42-.05-.73-.21-.95-.46-.22-.25-.38-.51-.49-.78-.09-.23-.15-.53-.19-.88-.04-.35-.05-.72-.05-1.1s0-.74.03-1.08c.02-.34.04-.61.05-.81.02-.18.04-.37.08-.55.04-.19.1-.35.2-.49s.23-.25.41-.34c.17-.09.41-.14.72-.14.69.13 1.57.21 2.64.26 1.07.05 2.21.07 3.4.07 1.15-.02 2.28-.05 3.38-.11 1.1-.05 2.03-.14 2.79-.25-.02-.07-.02-.16-.01-.26s.01-.21.01-.32 0-.23-.03-.36c-.02-.13-.04-.27-.05-.41-.59.02-1.43.03-2.52.03h-3.41c-1.19 0-2.35 0-3.46-.01-1.12 0-2.01-.02-2.68-.04-.47 0-.81-.13-1.03-.39-.22-.26-.32-.55-.32-.87 0-.3.11-.58.34-.83.23-.25.56-.38 1.02-.38.61.04 1.47.06 2.56.08s2.26.04 3.5.05h3.61c1.16 0 2.12-.02 2.88-.05.16 0 .33 0 .5.03s.34.06.5.14c.16.07.31.18.43.34.13.15.22.37.27.64.04.25.07.58.09.97.03.4.04.79.04 1.19.02.4.02.76.01 1.08s-.01.55-.01.68c-.04.34-.16.58-.38.7-.22.13-.41.2-.59.22Zm.14-10.58c.47-.05.83.03 1.08.26.25.23.39.49.41.8.04.31-.05.6-.24.88-.2.28-.51.44-.95.47-.97.07-2.04.13-3.19.18-1.15.05-2.34.08-3.55.1-1.21 0-2.4-.01-3.59-.04s-2.29-.08-3.32-.18c-.49 0-.85-.13-1.1-.39-.24-.26-.37-.54-.37-.83 0-.31.13-.58.38-.83s.64-.36 1.16-.34c.97.09 2.02.15 3.14.18s2.25.03 3.41.01c1.15 0 2.3-.02 3.45-.07s2.23-.11 3.26-.2ZM158.34 0c.78 0 1.53.07 2.27.22.73.14 1.38.38 1.94.7.56.34 1.01.78 1.36 1.31s.52 1.19.52 1.96c0 .65-.15 1.22-.45 1.72-.3.5-.73.91-1.29 1.25-.56.33-1.23.58-2.01.74-.78.16-1.64.24-2.58.24s-1.76-.07-2.52-.2-1.43-.37-2.01-.69c-.58-.31-1.03-.72-1.36-1.25s-.49-1.19-.49-2 .22-1.5.65-2.02c.43-.52.97-.92 1.62-1.2.67-.29 1.39-.49 2.16-.6.77-.11 1.5-.17 2.18-.19Zm.02 2.19c-.49 0-.98.03-1.47.1-.5.06-.94.16-1.34.28-.41.14-.75.34-1 .57-.25.24-.38.52-.38.87 0 .65.34 1.16 1.03 1.53.69.37 1.65.52 2.9.45 1.41.05 2.42-.08 3.04-.39.62-.32.94-.81.96-1.48-.04-1.21-1.28-1.85-3.73-1.92ZM21.86 51.61l-.03 2.73c0 .52-.13.91-.39 1.16s-.55.38-.85.38-.59-.12-.85-.37c-.26-.24-.39-.6-.39-1.07l-.03-2.76c-1.24.02-2.4.02-3.46 0s-1.89-.06-2.46-.13c-.51-.05-.86-.22-1.06-.5-.2-.28-.27-.57-.22-.88.04-.31.18-.57.42-.8s.57-.31.99-.26c.27.04.62.06 1.06.08.43.02.92.03 1.46.04.54 0 1.12.01 1.73.01h1.89c1.32-.02 2.64-.06 3.98-.12 1.33-.06 2.52-.16 3.55-.28.47-.07.83 0 1.08.23.25.23.4.49.43.8.04.31-.04.6-.23.89-.19.29-.5.46-.93.51-.76.07-1.62.14-2.6.2s-2 .1-3.09.12Zm-1.79-17.54c1.89 0 3.43.48 4.6 1.43 1.19.96 1.79 2.52 1.79 4.68 0 .85-.13 1.6-.38 2.26-.25.66-.65 1.21-1.19 1.66s-1.24.79-2.1 1.03c-.86.23-1.89.33-3.1.3-1.08 0-2.04-.08-2.87-.23-.83-.15-1.53-.45-2.08-.88-.56-.42-.98-.99-1.27-1.72s-.42-1.66-.41-2.8c-.02-1.19.18-2.16.6-2.9.41-.74.96-1.33 1.65-1.76.67-.41 1.41-.69 2.23-.84.82-.14 1.66-.23 2.53-.24Zm.05 2.27c-.61 0-1.2.05-1.75.15-.55.1-1.03.28-1.45.55-.41.25-.74.6-.97 1.04-.23.44-.35 1-.35 1.66 0 .76.09 1.36.28 1.8.19.44.46.77.83.99.36.24.79.38 1.3.45s1.08.09 1.73.07c1.46.02 2.5-.21 3.11-.69.61-.48.92-1.29.92-2.42 0-1.03-.3-1.89-.89-2.57-.6-.68-1.52-1.03-2.76-1.03ZM34.2 44.9c-.02.23-.03.56-.04.97 0 .42 0 .84.01 1.27.02.43.04.84.07 1.22.03.38.08.64.15.78.29.09.7.15 1.24.19s1.12.05 1.73.05 1.24-.01 1.87-.04c.63-.03 1.2-.08 1.7-.15.49-.05.85.04 1.1.27.24.23.37.51.39.81.02.32-.08.63-.3.92-.22.29-.54.46-.97.51-.54.07-1.16.13-1.87.16-.7.04-1.39.05-2.06.05s-1.28 0-1.83-.03c-.55-.02-.95-.05-1.2-.11-.76-.13-1.33-.31-1.72-.54-.39-.23-.64-.71-.74-1.43-.04-.22-.07-.54-.09-.97-.03-.43-.04-.91-.04-1.43v-1.57c0-.52.02-.98.05-1.38 0-.22.04-.44.11-.66.07-.23.18-.43.34-.62s.36-.35.61-.49.56-.21.92-.23l4.82-.11c.02-.22.04-.58.05-1.1.02-.51.03-1.06.03-1.64s-.01-1.13-.04-1.66-.07-.92-.12-1.18l-6.47.08c-.45.02-.79-.1-1.03-.34s-.35-.52-.35-.83c-.02-.31.09-.59.31-.85.23-.26.58-.39 1.07-.39l6.2-.05c.6 0 1.06.05 1.41.15.34.1.6.26.78.47.18.2.31.46.38.77s.14.69.19 1.12c.05.87.08 1.79.07 2.79 0 .99-.04 2.03-.1 3.11 0 .22-.04.44-.11.68-.07.23-.18.45-.32.64s-.34.34-.58.46c-.24.12-.54.18-.88.18l-4.74.14Zm11.72-9.31c-.09-.47-.03-.83.19-1.08.22-.25.48-.4.78-.43.29-.04.57.04.85.23s.46.49.53.91c.09.97.18 2.16.27 3.54.09 1.39.17 2.88.24 4.47.07 1.59.14 3.2.19 4.83.05 1.63.08 3.16.08 4.59 0 .49-.13.86-.39 1.11-.26.25-.55.38-.85.38s-.59-.12-.84-.36-.38-.62-.38-1.12c0-1.43-.02-2.92-.05-4.48-.04-1.56-.08-3.11-.14-4.64-.05-1.53-.12-2.98-.2-4.34-.08-1.36-.18-2.56-.28-3.59ZM60.43 34.31h7.04c.76 0 1.27.15 1.54.45.27.3.45.77.54 1.42.07.54.11 1.16.12 1.85 0 .69 0 1.42-.04 2.18-.04.72-.1 1.42-.18 2.08-.08.67-.18 1.22-.28 1.65-.16.49-.4.84-.72 1.06-.32.22-.72.36-1.2.43-.45.05-.95.09-1.5.11-.55.02-1.1.03-1.64.03s-1.04 0-1.5-.03c-.46-.02-.82-.05-1.07-.11-.36-.05-.68-.13-.95-.22s-.51-.23-.7-.41c-.2-.2-.37-.46-.5-.8s-.24-.77-.31-1.31c-.05-.2-.11-.6-.18-1.22-.06-.61-.12-1.3-.18-2.06-.05-.72-.09-1.42-.11-2.1-.02-.68 0-1.18.03-1.5 0-.43.17-.8.5-1.1.33-.3.76-.44 1.29-.42Zm1.24 8.5c.23.07.59.12 1.07.15.48.03.98.04 1.5.04.54.02 1.06.01 1.54-.01.49-.03.87-.07 1.14-.12.2-1.08.3-2.16.31-3.22 0-1.06-.06-2.06-.2-2.98l-5.9.03c-.05 1.51-.03 2.77.08 3.76.11.99.26 1.78.46 2.35Zm7.51 4.65c1.19 0 2.21.11 3.05.33s1.55.52 2.11.9.97.83 1.23 1.34c.26.52.39 1.07.39 1.67 0 1.47-.54 2.5-1.62 3.09-1.06.62-2.88.92-5.46.92-2.43 0-4.22-.31-5.38-.92-1.13-.61-1.7-1.78-1.7-3.5 0-1.36.63-2.33 1.89-2.93 1.26-.6 3.09-.9 5.48-.9Zm.18 2.33c-.72 0-1.39.03-2 .1-.61.06-1.14.16-1.57.28-.43.13-.77.3-1.01.51s-.37.47-.37.76c-.02.67.37 1.17 1.15 1.52.78.34 1.88.51 3.29.51s2.62-.12 3.48-.35c.86-.23 1.29-.68 1.31-1.35-.02-.56-.34-1.03-.97-1.41-.63-.38-1.73-.57-3.3-.57Zm5.03-14.59c-.09-.47-.03-.83.19-1.1.22-.26.48-.41.78-.45.31-.04.6.04.88.23s.46.5.53.93c.07.47.14 1.17.22 2.1.07.93.14 1.9.22 2.91.07.99.13 1.95.16 2.87.05.9.08 1.51.08 1.84 0 .49-.14.85-.41 1.08s-.56.35-.87.35-.59-.12-.85-.35-.38-.6-.37-1.08c0-.34-.01-.84-.04-1.49s-.07-1.35-.12-2.11h-2.71c-.43 0-.75-.13-.95-.38-.2-.25-.3-.53-.3-.84 0-.29.1-.56.31-.83s.52-.39.93-.39h2.54c-.04-.34-.06-.68-.08-1-.02-.32-.04-.63-.05-.92-.04-.29-.06-.55-.08-.78-.02-.23-.03-.43-.03-.6ZM82.84 42.14c.25.09.64.15 1.18.19s1.11.05 1.72.05 1.25-.02 1.87-.05 1.15-.09 1.6-.16c.49-.07.85 0 1.1.23s.37.5.39.83c.02.32-.08.64-.3.93-.22.3-.55.48-1 .55-.43.05-.99.1-1.66.12-.68.03-1.36.04-2.04.04s-1.32 0-1.89-.03-.99-.05-1.24-.11a5.34 5.34 0 0 1-.95-.22c-.27-.09-.51-.23-.7-.41-.2-.2-.37-.46-.5-.8s-.24-.77-.31-1.31c-.05-.2-.11-.59-.16-1.18s-.1-1.22-.14-1.91c-.04-.67-.05-1.32-.05-1.96s.02-1.11.05-1.42c0-.47.14-.82.41-1.06s.56-.35.87-.35c.32 0 .61.12.87.35.25.23.38.58.38 1.03-.02.42-.02.93-.01 1.54 0 .61.03 1.25.07 1.89.05.65.12 1.26.19 1.84.07.58.17 1.03.3 1.35Zm7.32 5.33c1.19 0 2.21.11 3.05.33s1.55.52 2.11.9.97.83 1.23 1.34c.26.52.39 1.07.39 1.67 0 1.47-.54 2.5-1.62 3.09-1.06.62-2.88.92-5.46.92-2.43 0-4.22-.31-5.38-.92-1.13-.61-1.7-1.78-1.7-3.5 0-1.36.63-2.33 1.89-2.93 1.26-.6 3.09-.9 5.48-.9Zm.18 2.33c-.72 0-1.39.03-2 .1-.61.06-1.14.16-1.57.28-.43.13-.77.3-1.01.51s-.37.47-.37.76c-.02.67.37 1.17 1.15 1.52.78.34 1.88.51 3.29.51s2.62-.12 3.48-.35c.86-.23 1.29-.68 1.31-1.35-.02-.56-.34-1.03-.97-1.41-.63-.38-1.73-.57-3.3-.57Zm3.71-14.59c-.09-.47-.03-.83.19-1.1.22-.26.48-.41.79-.45.31-.04.6.04.88.23s.46.5.53.93c.02.25.04.5.07.75.03.24.05.48.07.72h2.03c.4 0 .69.13.89.39s.31.55.32.85c0 .31-.1.59-.31.84s-.51.38-.91.38h-1.81c0 .2 0 .38.03.55.02.17.03.35.03.53l.08 1h1.68c.4 0 .69.13.89.39s.31.54.32.83c0 .31-.1.59-.31.84s-.51.38-.91.38h-1.57c0 .22 0 .42.01.62 0 .2.01.38.01.54 0 .49-.13.86-.39 1.11-.26.25-.55.38-.85.38-.31.02-.59-.1-.84-.34-.25-.24-.38-.63-.38-1.15 0-1.08-.04-2.38-.11-3.88-.07-1.51-.22-3.29-.43-5.35ZM106.97 34.4c1.46 0 2.6.29 3.42.87.82.58 1.43 1.31 1.83 2.19.4.88.64 1.86.73 2.94.09 1.07.14 2.11.16 3.1-.02 1.35-.1 2.55-.26 3.59-.15 1.04-.44 1.91-.85 2.61s-.98 1.24-1.7 1.6c-.72.36-1.65.54-2.79.54-1.71.05-3.07-.63-4.06-2.06-.97-1.42-1.44-3.36-1.41-5.79-.02-1.24.02-2.44.12-3.57s.32-2.16.66-3.09c.36-.88.87-1.59 1.52-2.12s1.52-.8 2.63-.8Zm.03 2.38c-.58.02-1.04.25-1.38.69-.34.44-.6 1.01-.78 1.69-.2.68-.32 1.45-.38 2.29s-.08 1.66-.08 2.48c-.04 1.89.27 3.28.92 4.17.65.87 1.41 1.29 2.27 1.27.72.02 1.29-.1 1.71-.35s.72-.63.92-1.14c.2-.49.32-1.09.38-1.81.05-.72.09-1.54.11-2.46-.02-.92-.06-1.79-.12-2.61-.06-.82-.21-1.54-.45-2.15-.25-.63-.62-1.13-1.1-1.49-.48-.36-1.15-.55-2.02-.57Zm10.5-1.19c-.09-.47-.03-.83.19-1.08.22-.25.48-.4.78-.43.29-.04.57.04.85.23s.46.49.53.91c.09.97.18 2.16.27 3.54.09 1.39.17 2.88.24 4.47.07 1.59.14 3.2.19 4.83.05 1.63.08 3.16.08 4.59 0 .49-.13.86-.39 1.11-.26.25-.55.38-.85.38s-.59-.12-.84-.36-.38-.62-.38-1.12c0-1.43-.02-2.92-.05-4.48-.04-1.56-.08-3.11-.14-4.64-.05-1.53-.12-2.98-.2-4.34-.08-1.36-.18-2.56-.28-3.59ZM125.19 38.83c0 .07 0 .17-.01.3 0 .13-.01.25-.01.38s0 .24.01.34c0 .1.03.16.07.18.27.07.88.13 1.84.16.47.02.96.03 1.49.03h1.62l3.25-.08c1.05-.05 1.81-.11 2.3-.16.47-.05.83.03 1.07.26.24.23.37.49.37.8.02.31-.08.6-.28.88-.21.28-.53.44-.96.47-.52.09-1.34.14-2.44.16-.56.02-1.12.03-1.69.04s-1.14.01-1.72.01c-1.15.02-2.22.02-3.19 0-1.01-.04-1.61-.07-1.81-.11-.72-.11-1.27-.28-1.65-.52-.38-.23-.62-.7-.73-1.41-.07-.41-.1-.8-.1-1.15 0-.35.03-.7.07-1.04 0-.2.04-.41.11-.64.07-.23.18-.44.32-.64s.34-.37.58-.5c.24-.14.55-.2.91-.2l9.99-.03c0-.11 0-.22.01-.34 0-.12.01-.24.01-.37 0-.29-.04-.53-.11-.73l-9.77.05c-.45.02-.79-.09-1.02-.34s-.35-.51-.37-.82c0-.3.11-.58.34-.84.23-.26.57-.39 1.04-.39h9.55c.58 0 1.03.05 1.37.15.33.1.59.25.77.44.18.2.31.45.38.75.07.31.14.66.19 1.08v.94c0 .16 0 .31-.01.44s-.02.26-.04.39c0 .22-.03.44-.1.66-.06.23-.17.42-.31.59-.14.17-.34.31-.58.43-.24.12-.54.18-.88.18l-9.88.16Zm11.39 5.22c.45-.07.81 0 1.07.23s.41.48.45.77c.04.31-.04.6-.23.89-.19.29-.5.46-.93.51-.97.11-1.98.18-3.02.22-1.04.04-2.1.06-3.18.08-1.08 0-2.16 0-3.25-.01s-2.15-.02-3.19-.04c-.49 0-.86-.12-1.11-.36-.25-.24-.38-.52-.38-.83 0-.29.12-.56.37-.81.24-.25.62-.38 1.12-.38.94 0 1.91 0 2.92.03 1.01.02 2.04.03 3.09.03s2.1-.02 3.15-.07c1.06-.05 2.1-.13 3.13-.26Zm-.38 9.8c-.67.13-1.51.23-2.52.31s-2.03.14-3.06.18c-1.05.05-2.02.08-2.91.07-.89 0-1.56-.04-1.99-.09-.04.14-.05.26-.05.34v.26c0 .09 0 .18.03.28.02.1.03.22.03.37.76.04 1.63.06 2.63.08.99.02 2 .03 3.03.03 1.03-.02 1.99-.05 2.9-.1.9-.05 1.61-.1 2.14-.18.4-.05.71.02.93.23.23.21.35.46.37.74.04.27-.05.54-.24.81-.2.27-.51.44-.95.51-.29.04-.65.07-1.08.1s-.91.05-1.42.07c-.51.02-1.06.04-1.65.05-.59.02-1.18.03-1.77.03h-1.76c-.58 0-1.12 0-1.62-.01-.51-.01-.96-.02-1.37-.04-.41-.02-.73-.05-.96-.08-.38-.05-.67-.2-.88-.43-.21-.24-.37-.49-.47-.76-.09-.22-.15-.47-.18-.76s-.04-.59-.04-.89c0-.27 0-.54.01-.81s.02-.5.04-.7c.02-.18.04-.36.08-.53.04-.17.1-.32.2-.46.1-.13.23-.24.41-.32.17-.08.39-.12.66-.12.65.11 1.42.18 2.31.22.89.04 1.81.05 2.75.03s1.86-.06 2.77-.12 1.72-.15 2.42-.26a.978.978 0 0 1-.03-.26v-.31c0-.11 0-.22-.01-.34s-.02-.25-.04-.39c-.58.02-1.32.03-2.22.03h-2.81c-.99 0-1.95 0-2.88-.01-.93 0-1.71-.02-2.34-.04-.43 0-.75-.13-.96-.38-.21-.25-.31-.52-.31-.81s.1-.55.31-.8c.21-.24.53-.36.96-.34.58.02 1.33.04 2.25.05.92.02 1.89.03 2.92.03 1.03.02 2.03.03 3 .03s1.82-.02 2.54-.05c.14 0 .3 0 .46.03.16.02.32.06.47.14s.29.18.42.32.22.34.27.6c.04.25.07.56.09.92.03.36.04.72.04 1.08.02.36.02.7.01 1s-.01.51-.01.62c-.04.32-.16.55-.37.66-.21.12-.39.18-.55.2ZM153.25 34.1c2.02-.04 3.61.32 4.78 1.08 1.16.76 1.75 1.9 1.75 3.44s-.56 2.67-1.68 3.52c-1.12.81-2.55 1.21-4.3 1.19-.76.02-1.48-.04-2.18-.16-.7-.13-1.32-.34-1.88-.65a3.79 3.79 0 0 1-1.31-1.3c-.33-.54-.49-1.24-.47-2.11-.02-.87.12-1.61.42-2.23s.69-1.14 1.18-1.56c.5-.42 1.08-.72 1.72-.92.64-.2 1.3-.3 1.99-.3Zm2.84 14.23c-.04.38-.05.73-.05 1.06s0 .65.03.97c0 .31 0 .62.03.93.02.32.04.65.05.99 0 .52-.13.92-.39 1.19-.26.27-.55.41-.85.43-.32.02-.61-.09-.87-.32-.25-.23-.38-.6-.38-1.08 0-.36 0-.71-.01-1.04 0-.33-.01-.66-.01-.99s0-.65-.01-.97-.01-.67-.01-1.03c-.87.04-1.66.05-2.37.04s-1.31-.04-1.8-.1c-.5-.05-.85-.22-1.04-.51s-.27-.57-.23-.86c.04-.3.18-.57.43-.79s.58-.31.97-.25c.56.07 1.29.1 2.19.09.9 0 1.89-.04 2.98-.09s2.18-.13 3.3-.22c1.12-.09 2.19-.19 3.22-.3.45-.07.81 0 1.07.23s.41.48.45.77c.04.3-.04.6-.23.88-.19.29-.5.46-.93.51-.81.09-1.69.17-2.64.25s-1.91.15-2.88.2Zm-2.84-12.02c-.88 0-1.61.27-2.17.81-.58.54-.85 1.18-.81 1.92 0 .34.1.63.31.87.21.23.48.42.83.57.34.14.73.25 1.15.32.42.07.85.1 1.29.08 1.05 0 1.89-.18 2.52-.54.63-.36.96-.92.97-1.68 0-.54-.31-1.06-.92-1.57-.61-.52-1.67-.78-3.17-.78Zm10.45-.73c-.09-.47-.03-.83.19-1.08.22-.25.48-.4.78-.43.31-.04.6.04.88.23s.46.49.53.91c.09.97.18 2.16.27 3.54.09 1.39.17 2.88.24 4.47.07 1.59.14 3.2.19 4.83.05 1.63.08 3.16.08 4.59 0 .49-.13.86-.39 1.11-.26.25-.55.38-.85.38-.32 0-.61-.12-.87-.36s-.38-.62-.38-1.12a234.275 234.275 0 0 0-.19-9.12c-.05-1.53-.12-2.98-.2-4.34s-.18-2.56-.28-3.59ZM180.31 36.94h-7.98c-.49.02-.85-.1-1.1-.35s-.37-.52-.37-.81c0-.31.12-.59.37-.84s.61-.38 1.1-.38h2.54l-.03-1.16c-.02-.49.1-.85.35-1.08.25-.23.52-.35.81-.35.31 0 .59.12.84.36s.38.6.38 1.07l.03 1.16h3.03c.49 0 .84.13 1.06.38.22.25.32.52.32.81-.02.31-.14.58-.38.83s-.56.37-.97.37Zm.87 5.72c0 .81-.13 1.51-.39 2.09-.26.58-.61 1.04-1.04 1.38-.45.36-.97.62-1.56.79-.59.16-1.21.24-1.88.24-1.53 0-2.72-.35-3.57-1.06-.85-.71-1.27-1.85-1.27-3.42 0-.87.13-1.6.38-2.19.25-.59.6-1.05 1.06-1.4a3.8 3.8 0 0 1 1.53-.76c.59-.14 1.21-.22 1.88-.22s1.29.09 1.88.26c.59.17 1.1.44 1.56.8.43.36.78.83 1.04 1.4s.39 1.26.39 2.08Zm-5.3 7.35c0 1.05.07 1.79.22 2.22.2.05.47.1.83.12.35.03.76.05 1.22.05s.96.02 1.49.03c.53.01 1.07.01 1.61.01s1.12 0 1.68-.01c.56 0 1.09-.02 1.58-.03.5 0 .96-.02 1.38-.04.42-.02.79-.04 1.1-.05.47-.05.83.04 1.1.27s.4.51.42.84c0 .32-.11.64-.34.93-.23.3-.58.47-1.07.53-.27 0-.61 0-1.03.03-.42.02-.89.03-1.42.04l-1.69.03c-.59 0-1.2.01-1.81.01s-1.21 0-1.8-.01-1.16-.02-1.72-.04-1.04-.04-1.43-.05c-.4-.02-.72-.05-.97-.08-.27-.04-.54-.14-.81-.3s-.51-.49-.73-.97c-.05-.13-.1-.33-.15-.61-.05-.28-.09-.59-.12-.93-.04-.34-.06-.68-.07-1.03s-.01-.65-.01-.92c-.02-.43.11-.77.38-1s.57-.36.89-.38.62.08.89.3.41.57.41 1.06Zm3.06-7.32c-.04-.91-.3-1.51-.78-1.8s-1.1-.43-1.84-.43-1.33.14-1.84.43-.75.89-.73 1.8c-.07.88.15 1.46.68 1.75.54.27 1.17.4 1.89.4.38 0 .73-.03 1.04-.09.32-.06.59-.17.83-.34.23-.16.42-.38.55-.66.14-.28.2-.63.2-1.06Zm6.47-7.4c-.09-.47-.03-.83.19-1.1.22-.26.48-.41.78-.45.29-.04.57.04.85.23s.46.5.53.93c.05.69.11 1.43.18 2.22l.18 2.41h2.19c.4 0 .7.13.91.38s.31.53.31.84-.1.58-.3.83-.5.36-.92.36h-2.03c.05 1.03.09 1.99.12 2.87.03.88.04 1.59.04 2.11 0 .49-.13.86-.39 1.11-.26.25-.55.38-.85.38-.32.02-.61-.1-.87-.34-.25-.24-.38-.63-.38-1.15s0-1.26-.03-2.15c-.02-.89-.05-1.88-.08-2.96s-.09-2.18-.16-3.3-.16-2.19-.27-3.22ZM6.1 67.44c.32.56.69 1.19 1.08 1.89.4.7.79 1.43 1.19 2.19s.77 1.5 1.12 2.23c.35.73.65 1.39.91 1.99.11.45.08.81-.1 1.07s-.4.43-.69.5c-.27.07-.56.04-.88-.11-.32-.14-.55-.41-.72-.81-.18-.34-.41-.8-.69-1.38l-.85-1.76c-.31-.6-.59-1.15-.84-1.66s-.43-.91-.54-1.18c-.14.43-.31.91-.5 1.43-.19.52-.39 1.05-.61 1.57-.22.52-.45 1.05-.7 1.57-.25.52-.5 1-.73 1.43-.25.45-.56.74-.92.85-.36.12-.69.11-.97-.01-.29-.13-.49-.36-.61-.69-.12-.33-.04-.73.23-1.2.25-.43.54-.98.85-1.65.32-.67.64-1.38.96-2.14s.63-1.48.92-2.18c.29-.7.54-1.3.76-1.8.07-.25.22-.45.43-.6.22-.14.44-.23.68-.24.23-.02.46.03.69.15.23.12.4.29.53.53Zm4.02 12.5c1.19 0 2.21.11 3.05.33s1.55.52 2.11.9.97.83 1.23 1.34c.26.52.39 1.07.39 1.67 0 1.47-.54 2.5-1.62 3.09-1.06.62-2.88.92-5.46.92-2.43 0-4.22-.31-5.38-.92-1.13-.61-1.7-1.78-1.7-3.5 0-1.36.63-2.33 1.89-2.93 1.26-.6 3.09-.9 5.48-.9Zm.18 2.33c-.72 0-1.39.03-2 .1-.61.06-1.14.16-1.57.28-.43.13-.77.3-1.01.51s-.37.47-.37.76c-.02.67.37 1.17 1.15 1.52.78.34 1.88.51 3.29.51s2.62-.12 3.48-.35c.86-.23 1.29-.68 1.31-1.35-.02-.56-.34-1.03-.97-1.41-.63-.38-1.73-.57-3.3-.57Zm3.33-14.59c-.09-.47-.03-.83.19-1.1s.48-.41.78-.45c.29-.04.58.04.87.23.29.19.47.5.54.93.02.38.04.75.08 1.12.04.37.07.73.11 1.07.04.36.07.71.09 1.06.03.34.06.68.09 1h2.41c.4 0 .7.13.91.38s.31.53.31.84-.1.58-.3.83c-.2.24-.5.37-.92.37h-2.25c.04.56.06 1.09.08 1.58.02.5.03.95.03 1.37 0 .49-.13.86-.39 1.11-.26.25-.55.38-.85.38-.32.02-.61-.1-.87-.34-.25-.24-.38-.63-.38-1.15 0-1.08-.04-2.38-.11-3.88-.07-1.51-.22-3.29-.43-5.35ZM36.74 76.05c.47-.05.83.04 1.07.27s.38.5.42.81c.02.31-.07.6-.27.88s-.51.44-.92.47c-.87.05-1.8.1-2.81.15-1.01.05-2.06.08-3.14.1l.05 1.79c-.02.45-.15.78-.41.99s-.53.3-.84.28-.59-.14-.84-.37c-.25-.23-.37-.55-.35-.96l-.03-1.71c-1.03 0-2.03-.02-3-.05s-1.87-.09-2.68-.16c-.49 0-.85-.13-1.1-.39s-.36-.55-.34-.85c0-.29.13-.55.38-.8.25-.24.63-.37 1.14-.37.97.09 2.04.15 3.19.19 1.15.04 2.34.05 3.54.03 1.21-.02 2.41-.05 3.6-.1s2.3-.11 3.33-.2Zm-.6 5.14c.22-.02.43 0 .64.03s.4.11.57.22.31.25.42.43c.11.18.16.41.16.68 0 .31 0 .69.01 1.15s.02.93.04 1.39l.08 2.38c0 .52-.23.88-.68 1.06-.43.18-.85.3-1.24.35-.25.02-.59.03-1 .03s-.91 0-1.49.03c-1.14.04-2.33.04-3.57 0-.63 0-1.24 0-1.83-.01-.59 0-1.17-.02-1.75-.04-.56-.02-1.04-.03-1.45-.04s-.74-.03-.99-.07a2.23 2.23 0 0 1-.83-.31c-.28-.17-.53-.5-.74-.99-.05-.13-.1-.4-.14-.83-.04-.42-.05-.9-.05-1.42-.02-.52-.03-1.04-.03-1.54s0-.9.03-1.19c-.04-.32.07-.63.32-.92.25-.29.62-.43 1.11-.43.29.02.66.03 1.11.04.45 0 .95.02 1.5.03.55 0 1.14.01 1.76.01h7.01c.42 0 .76 0 1.02-.03Zm-12.1-9.39.46.08c.09.02.19.03.28.04s.21.01.34.01c-.04-.2-.07-.43-.1-.69-.03-.26-.05-.53-.07-.8-.04-.25-.07-.51-.09-.77-.03-.26-.05-.5-.07-.72h-.87c-.49.02-.85-.1-1.1-.35-.24-.25-.37-.52-.37-.81 0-.31.12-.59.37-.84.24-.25.61-.38 1.1-.38l11.29.03c.49 0 .84.13 1.07.38.23.25.33.52.31.81-.02.31-.14.58-.37.83-.23.24-.55.36-.99.36h-.7c.05.6.09 1.13.11 1.6.02.47.03.89.03 1.27.16 0 .31 0 .43-.03s.24-.04.35-.05c.49-.07.86 0 1.12.23.26.23.39.49.39.8.02.31-.08.6-.3.89s-.55.47-1 .54c-.22.02-.54.04-.97.05-.43.02-.92.04-1.46.05-.56.02-1.16.03-1.8.04-.64 0-1.29.01-1.93.01-.65.02-1.29.03-1.91.03H25.9c-.52-.02-.96-.03-1.31-.04-.35 0-.59-.03-.72-.07-.45-.07-.78-.25-.99-.53-.21-.28-.3-.57-.28-.88.02-.29.15-.55.39-.78s.59-.34 1.04-.32Zm11.53 14.5c-.02-.16-.03-.38-.04-.65s-.01-.54-.01-.81c-.02-.29-.03-.56-.03-.81v-.57c-.25 0-.57 0-.96.01-.39 0-.82.01-1.3.01h-6.35c-.49-.02-.9-.03-1.24-.03s-.61 0-.81-.03v.69c0 .28 0 .56.03.85 0 .29 0 .56.01.81 0 .25.03.43.07.54.22.05.51.1.88.12.37.03.78.04 1.24.05.46 0 .96.02 1.5.03.54 0 1.08.01 1.62.01l3.17-.08c1.03-.04 1.77-.09 2.22-.16Zm-7.96-14.29c.76.02 1.54.02 2.34.01.8 0 1.58-.03 2.34-.07 0-.38-.02-.85-.07-1.41-.05-.56-.09-1.08-.15-1.57l-4.84-.03c.02.25.04.53.08.83.04.3.07.59.11.87s.07.54.09.78c.03.24.06.44.1.58ZM54.41 83.24c.47-.07.83 0 1.08.22.25.22.4.48.43.78.04.31-.04.6-.23.89-.19.29-.49.46-.91.51-.97.11-2 .19-3.08.26-1.08.06-2.19.11-3.33.15-1.14.04-2.27.06-3.41.08-1.14.02-2.23.02-3.27 0-.49 0-.85-.12-1.1-.37s-.37-.52-.37-.83c0-.29.12-.56.37-.81.24-.25.62-.38 1.12-.38.94 0 1.93 0 2.99-.01 1.06 0 2.13-.03 3.23-.07 1.08-.04 2.17-.09 3.27-.16s2.16-.16 3.19-.27Zm-6.25-16.27c2.02.09 3.64.67 4.87 1.73 1.24 1.04 1.89 2.59 1.92 4.64 0 .85-.15 1.62-.46 2.32s-.77 1.31-1.38 1.82-1.37.91-2.26 1.19c-.89.28-1.92.42-3.07.42-1.03 0-1.97-.09-2.81-.26s-1.59-.47-2.22-.9c-.63-.43-1.12-1.02-1.48-1.75-.35-.74-.52-1.68-.5-2.84-.02-1.19.19-2.19.62-3.01.43-.82 1-1.47 1.71-1.96.7-.5 1.49-.86 2.37-1.08.87-.22 1.77-.32 2.69-.32Zm.08 2.33c-1.44 0-2.63.36-3.57 1.08-.94.72-1.4 1.69-1.38 2.9 0 1.3.43 2.2 1.3 2.71.88.52 1.97.77 3.25.73 1.46.02 2.59-.27 3.4-.87s1.18-1.51 1.12-2.76c0-.56-.1-1.07-.3-1.54-.2-.47-.47-.87-.83-1.2-.35-.33-.78-.59-1.3-.77-.51-.18-1.08-.27-1.69-.27ZM64.8 84.65l-.03-2.49c-.02-.49.1-.86.35-1.12.25-.26.53-.39.84-.39.31-.02.59.09.85.32s.4.6.42 1.08l.05 2.49c.81-.04 1.61-.08 2.41-.14.79-.05 1.6-.13 2.41-.24.45-.07.81 0 1.07.23s.41.49.45.8c.04.31-.04.61-.23.89-.19.29-.5.46-.93.51-.96.11-1.95.19-2.99.26-1.04.06-2.1.11-3.18.15s-2.17.06-3.26.08c-1.09.02-2.16.03-3.21.03-.49 0-.86-.12-1.11-.36s-.38-.52-.38-.83.12-.59.37-.84c.24-.25.62-.38 1.12-.38h2.41c.41 0 .84 0 1.27-.01.43 0 .87-.02 1.3-.04Zm-3.38-9.66c-.02.09-.03.28-.03.58v.96c0 .32 0 .63.03.91.02.28.04.43.08.45.29.09.85.15 1.69.19.84.04 1.75.05 2.75.05s1.95-.01 2.88-.04c.93-.03 1.65-.08 2.15-.15.49-.05.86.04 1.11.27s.38.5.38.81c.02.31-.08.6-.3.89-.22.29-.54.45-.97.49-.27.04-.6.07-1 .09-.4.03-.83.05-1.3.07-.47.02-.97.03-1.49.04s-1.04.01-1.54.01h-1.5c-.48 0-.92 0-1.31-.03-.4-.02-.74-.03-1.03-.04s-.5-.03-.62-.07c-.78-.11-1.35-.28-1.73-.53-.38-.24-.62-.73-.73-1.45-.05-.2-.09-.48-.1-.85s-.01-.75-.01-1.15 0-.78.01-1.14.02-.63.04-.81c0-.22.04-.44.11-.68.07-.23.19-.45.34-.64.15-.19.36-.35.61-.49s.56-.2.92-.2l8.96-.13c0-.11 0-.29.01-.55 0-.26.01-.55.01-.88 0-.31 0-.63-.01-.96 0-.33-.04-.63-.1-.88l-9.82.03c-.47.02-.82-.1-1.06-.34s-.35-.52-.35-.83c-.02-.31.09-.59.32-.85s.6-.39 1.08-.39l9.55-.03c.6 0 1.06.05 1.41.15.34.1.6.25.78.45.18.2.31.46.38.77.07.32.14.69.19 1.12 0 .2 0 .47.01.83 0 .35.01.72.01 1.1s0 .74-.03 1.07c-.02.34-.04.56-.05.69 0 .22-.03.44-.1.68s-.17.44-.31.62c-.14.18-.34.33-.58.45-.24.12-.54.18-.88.18l-8.88.16ZM86.37 83.03l.03-4.63c-.02-.38.1-.67.35-.87.25-.2.53-.3.84-.3.32 0 .62.1.88.3.26.2.4.5.42.89v4.57h.65c.22 0 .43 0 .65-.03h.65c.22 0 .44 0 .68-.03l.05-4.52c-.02-.38.1-.67.35-.87.25-.2.53-.3.84-.3s.59.1.85.3c.26.2.4.5.42.89v4.38c.78-.04 1.54-.08 2.29-.14.75-.05 1.47-.12 2.15-.19.45-.07.81 0 1.07.23s.41.49.45.8c.02.31-.07.6-.26.89-.19.29-.49.46-.91.51-.97.09-2.05.17-3.22.23s-2.38.12-3.63.18c-1.24.04-2.48.06-3.69.08s-2.35.02-3.4 0c-.49 0-.86-.12-1.11-.37-.25-.24-.38-.52-.38-.83s.12-.59.37-.84.62-.38 1.12-.38h1.49Zm9.47-6.47.11-3.87c.02-.7.02-1.38.01-2.03 0-.65-.02-1.2-.04-1.65H85.8c-.5.02-.88-.09-1.12-.33-.24-.24-.36-.51-.34-.82 0-.29.12-.55.37-.8.24-.25.61-.37 1.1-.37h10.47c.76 0 1.28.15 1.57.46.29.31.46.78.51 1.43.02.54.03 1.17.03 1.88s0 1.44-.03 2.2c0 .76-.02 1.48-.05 2.17-.04.69-.06 1.27-.08 1.74-.04.49-.19.84-.46 1.07-.27.22-.55.33-.84.31-.31 0-.58-.12-.81-.37-.23-.24-.32-.58-.27-1.01ZM106.8 78.48l-.03-1.73c-.05-.45.04-.8.28-1.06.24-.25.52-.38.83-.38.31-.02.59.09.87.31.27.23.42.58.46 1.07l.03 1.76c.76 0 1.51-.01 2.25-.04s1.41-.07 2-.12c.49-.04.85.06 1.08.28.23.23.36.48.38.77.02.31-.07.59-.26.87-.19.27-.46.43-.83.49-.99.07-1.99.12-3 .13-1.01.02-1.98.03-2.92.03s-1.87 0-2.69-.03c-.82-.02-1.55-.03-2.18-.03-.49 0-.86-.13-1.11-.38-.25-.25-.38-.53-.38-.84 0-.29.12-.56.37-.83.24-.26.63-.39 1.15-.39.5.04 1.07.06 1.71.08.63.02 1.3.03 2 .03Zm2.46-12.75v.65h3.17c.49 0 .84.13 1.06.38.22.25.32.53.32.84-.02.31-.14.58-.38.83s-.56.37-.97.37h-8.36c-.51.02-.88-.1-1.12-.35s-.36-.53-.34-.84c0-.29.12-.56.37-.83s.61-.39 1.1-.39h2.81l-.05-.62c0-.4.12-.7.37-.91.24-.21.52-.32.83-.34.31 0 .59.1.84.3.25.2.38.51.38.92Zm-1.41 3.92c2 .02 3.48.28 4.42.77s1.43 1.39 1.45 2.69c0 .7-.13 1.3-.38 1.77-.25.48-.62.86-1.1 1.14-.48.28-1.06.47-1.76.58-.7.11-1.48.16-2.37.16-.69.02-1.35-.01-2-.1-.65-.08-1.24-.25-1.76-.5-.5-.25-.92-.61-1.23-1.07-.32-.46-.47-1.08-.47-1.85 0-.7.15-1.29.45-1.75s.69-.83 1.18-1.1c.49-.27 1.04-.46 1.66-.57.62-.11 1.26-.17 1.91-.19Zm-1.22 13.8c-.02.36-.01.72.01 1.07.03.35.09.64.2.85.54.13 1.3.23 2.29.32s2.04.14 3.18.16c1.14.04 2.24.03 3.3-.01 1.06-.05 1.96-.14 2.68-.28.4-.05.71.03.95.24s.37.48.41.78-.05.61-.24.91c-.2.3-.53.51-1 .64-.87.13-1.87.21-3 .26-1.14.04-2.28.05-3.44.01-1.15-.02-2.26-.07-3.33-.15-1.06-.08-1.96-.18-2.68-.28-.27-.04-.54-.14-.81-.31-.27-.17-.51-.49-.73-.96-.14-.27-.23-.74-.27-1.41-.04-.32-.06-.64-.07-.96s-.01-.61-.01-.88c0-.5.13-.88.39-1.14s.55-.38.88-.38.62.13.89.39.41.64.41 1.12Zm1.24-11.56c-.79 0-1.47.06-2.03.19-.58.14-.87.51-.87 1.11 0 .36.09.64.27.83.18.19.42.33.73.42.29.11.63.17 1.03.18s.8.01 1.22.01c1.03 0 1.8-.09 2.3-.26.5-.17.76-.55.76-1.15 0-.23-.05-.44-.14-.61-.09-.17-.26-.31-.51-.42-.47-.2-1.39-.3-2.76-.3Zm8.39-4.11c-.09-.47-.03-.83.19-1.08.22-.25.48-.4.79-.43.31-.04.6.04.88.23s.46.49.53.91c.09.87.18 1.88.26 3.03.08 1.15.15 2.33.2 3.52h2.38c.4 0 .69.13.89.38s.31.53.32.84c0 .31-.1.58-.31.83s-.51.36-.91.36h-2.27c0 .49 0 .95.03 1.39.02.44.03.86.03 1.26.02.38.03.73.04 1.04 0 .32.01.58.01.8 0 .49-.13.86-.39 1.11s-.55.38-.85.38c-.32.02-.61-.1-.87-.34-.25-.24-.38-.63-.38-1.15s0-1.33-.03-2.38c-.02-1.05-.05-2.19-.08-3.44-.05-1.24-.12-2.51-.19-3.79-.07-1.28-.16-2.44-.27-3.46ZM132.94 67.9c-.02-.43.1-.75.35-.96s.53-.31.84-.31c.32 0 .62.09.88.27.26.18.4.43.42.76v1.81l.05 2.87c.02.5.03.99.03 1.45v1.37c.02.43.03.79.03 1.07s0 .48.03.61c0 .54-.23.9-.68 1.08-.23.09-.46.16-.66.2-.21.05-.41.08-.61.1-.52.04-1.11.06-1.76.08-.65.02-1.31.03-1.98.03s-1.35-.02-1.99-.05-1.21-.09-1.72-.16a1.75 1.75 0 0 1-.81-.28c-.27-.17-.51-.5-.73-.99-.09-.14-.14-.62-.16-1.43l-.05-2.79v-4.02c0-.3 0-.52.03-.66-.02-.4.1-.71.35-.93.25-.23.53-.34.84-.34s.59.12.87.35c.27.24.42.6.46 1.08-.02.14-.03.48-.03 1.02v1.83c1.05.02 2.05.03 3 .03H133c-.02-.38-.03-.74-.04-1.08 0-.34-.01-.65-.01-.92v-1.06Zm-5.98 5.17c0 .69 0 1.28.03 1.77.02.5.04.78.08.85.2.07.54.13 1.02.16.48.04 1.01.06 1.58.08.58 0 1.17-.01 1.79-.04.61-.03 1.15-.07 1.62-.12-.02-.05-.03-.16-.03-.32v-.6c-.02-.23-.03-.5-.03-.8v-.93c-1.03.04-2.05.04-3.06 0-.5 0-1.01 0-1.52-.01s-1-.02-1.49-.04Zm.7 8.23c-.04-.32.07-.63.32-.92.25-.29.62-.43 1.11-.43.23.04.55.06.96.07s.86.02 1.37.04c.5.02 1.05.03 1.62.03h3.52c.58 0 1.12 0 1.62-.01.5 0 .96-.02 1.38-.04.41-.02.76-.04 1.03-.05.49.02.84.16 1.06.42.22.26.32.55.32.85-.02.32-.14.61-.35.87-.22.25-.51.38-.87.38-.41.02-1.06.03-1.95.03h-5.97c-1.04 0-1.91 0-2.61-.03 0 .16 0 .4-.01.72s-.02.64-.04.96c-.02.34-.03.65-.03.93s.02.47.05.58c.22.05.5.09.87.12.36.03.78.05 1.24.07s.97.03 1.52.04 1.09.01 1.65.01 1.1 0 1.62-.01c.52 0 1.04-.02 1.54-.04 1.05-.04 1.8-.09 2.25-.16.47-.02.83.09 1.08.34s.39.52.41.83-.09.6-.31.89c-.23.29-.58.46-1.07.51-.25.02-.58.03-.99.03s-.89 0-1.45.03c-.56.02-1.12.03-1.69.03h-1.75c-.6 0-1.19 0-1.79-.01l-1.66-.03c-.51-.01-.98-.02-1.39-.04-.42-.02-.75-.05-1-.08-.27-.04-.55-.14-.83-.3-.28-.16-.53-.49-.74-.97-.05-.13-.09-.44-.11-.93-.02-.5-.03-1.04-.03-1.64s0-1.2.03-1.77.04-1 .05-1.29Zm11.12-13.61c-.09-.47-.03-.83.19-1.1s.48-.41.78-.45c.29-.04.58.04.87.23.29.19.47.5.54.93.02.38.04.75.08 1.12.04.37.07.73.11 1.07.04.36.07.71.09 1.06.03.34.06.68.09 1h2.41c.4 0 .7.13.91.38s.31.53.31.84-.1.58-.3.83c-.2.24-.5.37-.92.37h-2.25c.04.56.06 1.09.08 1.58.02.5.03.95.03 1.37 0 .49-.13.86-.39 1.11-.26.25-.55.38-.85.38-.32.02-.61-.1-.87-.34-.25-.24-.38-.63-.38-1.15 0-1.08-.04-2.38-.11-3.88-.07-1.51-.22-3.29-.43-5.35ZM161.3 83.24c.47-.07.83 0 1.08.22.25.22.4.48.43.78.04.31-.04.6-.23.89-.19.29-.49.46-.91.51-.97.11-2 .19-3.08.26-1.08.06-2.19.11-3.33.15-1.14.04-2.27.06-3.41.08-1.14.02-2.23.02-3.27 0-.49 0-.85-.12-1.1-.37s-.37-.52-.37-.83c0-.29.12-.56.37-.81.24-.25.62-.38 1.12-.38.94 0 1.93 0 2.99-.01 1.06 0 2.13-.03 3.23-.07 1.08-.04 2.17-.09 3.27-.16s2.16-.16 3.19-.27Zm-6.25-16.27c2.02.09 3.64.67 4.87 1.73 1.24 1.04 1.89 2.59 1.92 4.64 0 .85-.15 1.62-.46 2.32s-.77 1.31-1.38 1.82-1.37.91-2.26 1.19c-.89.28-1.92.42-3.07.42-1.03 0-1.97-.09-2.81-.26s-1.59-.47-2.22-.9c-.63-.43-1.12-1.02-1.48-1.75-.35-.74-.52-1.68-.5-2.84-.02-1.19.19-2.19.62-3.01.43-.82 1-1.47 1.71-1.96.7-.5 1.49-.86 2.37-1.08.87-.22 1.77-.32 2.69-.32Zm.08 2.33c-1.44 0-2.63.36-3.57 1.08-.94.72-1.4 1.69-1.38 2.9 0 1.3.43 2.2 1.3 2.71.88.52 1.97.77 3.25.73 1.46.02 2.59-.27 3.4-.87s1.18-1.51 1.12-2.76c0-.56-.1-1.07-.3-1.54-.2-.47-.47-.87-.83-1.2-.35-.33-.78-.59-1.3-.77-.51-.18-1.08-.27-1.69-.27ZM171.72 67.87c.41 1.1.82 2.38 1.2 3.83.39 1.45.74 2.89 1.07 4.32.16.72.31 1.42.45 2.1.14.68.26 1.3.38 1.88s.23 1.1.32 1.57c.1.47.18.85.23 1.14.05.52-.01.92-.2 1.19-.19.27-.42.43-.69.49-.29.05-.57 0-.84-.19-.27-.18-.45-.47-.54-.87-.09-.68-.23-1.52-.41-2.52-.18-.99-.39-2.03-.62-3.11-.22-1.05-.44-2.06-.66-3.03-.23-.97-.41-1.79-.55-2.44-.16.92-.36 1.93-.58 3.04-.23 1.11-.46 2.21-.69 3.29-.25 1.08-.51 2.06-.77 2.94s-.51 1.51-.74 1.91c-.25.47-.55.76-.91.87-.35.11-.66.09-.93-.05-.27-.13-.46-.36-.57-.69-.11-.33-.04-.72.22-1.15.29-.5.6-1.33.93-2.46.33-1.14.66-2.41.99-3.82a114.76 114.76 0 0 0 1.6-8.07c.05-.36.18-.64.37-.83.19-.19.4-.29.64-.31.56-.04 1 .29 1.33.97Zm6.09.84c-.09-.47-.03-.83.19-1.08.22-.25.48-.4.79-.43.29-.04.58.04.87.23s.46.49.51.91c.09.97.18 2.06.27 3.26.09 1.2.17 2.48.24 3.83.07 1.35.14 2.75.19 4.18.05 1.43.08 2.86.08 4.29 0 .49-.13.85-.39 1.1-.26.24-.55.37-.85.37-.32.02-.61-.1-.87-.34s-.38-.62-.38-1.12c0-1.19 0-2.35-.03-3.48s-.05-2.23-.08-3.32h-2.76c-.42 0-.73-.12-.93-.37-.21-.24-.3-.52-.28-.83 0-.31.1-.59.3-.84s.5-.38.92-.38h2.65c-.05-1.08-.12-2.12-.19-3.11-.07-.99-.15-1.95-.24-2.87Zm4.95-.65c-.07-.47 0-.83.22-1.08.22-.25.47-.4.76-.43.31-.04.6.04.88.23s.46.49.53.91c.09.97.18 2.16.27 3.54.09 1.39.17 2.88.24 4.47.07 1.59.14 3.2.19 4.83.05 1.63.08 3.16.08 4.59 0 .49-.13.86-.39 1.11-.26.25-.55.38-.85.38-.32 0-.61-.12-.87-.36s-.38-.62-.38-1.12a234.275 234.275 0 0 0-.19-9.12c-.05-1.53-.12-2.98-.2-4.34-.08-1.36-.18-2.56-.28-3.59ZM191.39 83.62l-.03-2.14c-.02-.49.1-.86.35-1.12.25-.26.52-.39.81-.39.31-.02.59.09.84.32s.39.6.41 1.08l.05 2.25c.63 0 1.28 0 1.93-.01s1.32-.03 1.99-.07l-.03-2.06c-.02-.49.1-.86.35-1.12.25-.26.52-.39.81-.39.31-.02.59.09.84.32s.39.6.41 1.08l.05 2.06c.38-.02.75-.04 1.11-.07.36-.03.72-.07 1.08-.12.47-.07.83 0 1.08.23.25.23.4.48.43.77.04.31-.04.6-.23.89s-.49.46-.91.51c-.97.11-2.01.19-3.11.24s-2.22.09-3.36.11c-1.15.04-2.3.05-3.44.05s-2.23 0-3.27-.03c-.49 0-.86-.12-1.11-.36s-.38-.52-.38-.83.12-.59.37-.84c.24-.25.63-.38 1.15-.38h1.79Zm4.52-16.64c2.02.09 3.64.67 4.87 1.73 1.24 1.04 1.89 2.59 1.92 4.64 0 .85-.15 1.62-.46 2.32s-.77 1.31-1.38 1.82-1.37.91-2.26 1.19c-.89.28-1.92.42-3.07.42-1.03 0-1.97-.09-2.81-.26s-1.59-.47-2.22-.9c-.63-.43-1.12-1.02-1.48-1.75-.35-.74-.52-1.68-.5-2.84-.02-1.19.19-2.19.62-3.01.43-.82 1-1.47 1.71-1.96.7-.5 1.49-.86 2.37-1.08.87-.22 1.77-.32 2.69-.32Zm.08 2.33c-1.44 0-2.63.36-3.57 1.08-.94.72-1.4 1.69-1.38 2.9 0 1.3.43 2.2 1.3 2.71.88.52 1.97.77 3.25.73 1.46.02 2.59-.27 3.4-.87s1.18-1.51 1.12-2.76c0-.56-.1-1.07-.3-1.54-.2-.47-.47-.87-.83-1.2-.35-.33-.78-.59-1.3-.77-.51-.18-1.08-.27-1.69-.27Z"/></svg>