<?xml version="1.0" encoding="UTF-8"?><svg id="uuid-a9ca6055-9b7e-447c-a14e-3c2dba09065a" xmlns="http://www.w3.org/2000/svg" viewBox="0 0 26.92 17.25"><defs><style>.uuid-41b0fc9a-0449-425e-ab1a-922ff545a989{fill:#fff;}</style></defs><g id="uuid-5d930eb1-f5bb-4d26-8e2b-5c1e958e4d6b"><g><path class="uuid-41b0fc9a-0449-425e-ab1a-922ff545a989" d="M13.46,3.03c-3.09,0-5.6,2.51-5.6,5.6s2.51,5.6,5.6,5.6,5.6-2.51,5.6-5.6-2.51-5.6-5.6-5.6Zm0,10.38c-2.64,0-4.78-2.15-4.78-4.78s2.15-4.78,4.78-4.78,4.78,2.15,4.78,4.78-2.15,4.78-4.78,4.78Z"/><path class="uuid-41b0fc9a-0449-425e-ab1a-922ff545a989" d="M26.88,8.45C24.36,3.24,19.22,0,13.46,0S2.55,3.24,.04,8.45c-.05,.11-.05,.24,0,.35,2.51,5.21,7.65,8.45,13.42,8.45s10.9-3.24,13.42-8.45c.05-.11,.05-.24,0-.35Zm-13.42,7.99c-5.38,0-10.19-2.99-12.6-7.81C3.27,3.8,8.08,.82,13.46,.82s10.19,2.99,12.6,7.81c-2.41,4.82-7.21,7.81-12.6,7.81Z"/></g></g></svg>