<svg id="uuid-54317d78-39e6-41c6-aa93-a1398881f70a" xmlns="http://www.w3.org/2000/svg" viewBox="0 0 39.37 48.96"><defs><style>.uuid-9b411e49-d3e5-4ee3-99b9-234c19ae4615{fill:#ffc8c5}.uuid-9c5e7797-3d53-4575-a52c-e2fb96d067bc{fill:#fdf4d5}</style></defs><g id="uuid-2a04887f-cd16-4990-9121-5c450b319b50"><path class="uuid-9c5e7797-3d53-4575-a52c-e2fb96d067bc" d="m38.14 47.87-1.96-24.91-23.66-12.75S10.99-1.04 3.99 1.33s.46 19.06.46 19.06l1.87 14.37.75 13.19"/><path d="M7.07 48.96c-.53 0-.97-.41-1-.94l-.75-13.19-1.85-14.16C2.86 19.26-1.67 8.53.66 3.2 1.27 1.8 2.28.85 3.67.38 5.54-.25 7.24-.1 8.74.82c3.23 2 4.39 7.08 4.69 8.73l23.22 12.52c.3.16.5.46.52.8l1.96 24.91c.04.55-.37 1.03-.92 1.08-.53.04-1.03-.37-1.08-.92l-1.92-24.37-23.17-12.48c-.28-.15-.47-.43-.52-.74 0-.06-.85-5.97-3.84-7.81-.98-.6-2.08-.69-3.38-.25-.84.28-1.43.85-1.81 1.72C.75 7.98 3.97 16.9 5.35 19.99a.9.9 0 0 1 .08.28L7.3 34.64l.76 13.27c.03.55-.39 1.02-.94 1.06h-.06Z"/><rect class="uuid-9b411e49-d3e5-4ee3-99b9-234c19ae4615" x="2.73" y="3.97" width="6.93" height="6.93" rx="3.1" ry="3.1" transform="rotate(7.84 6.226 7.417)"/><path class="uuid-9b411e49-d3e5-4ee3-99b9-234c19ae4615" d="M25.6 20.24a10.2 10.2 0 0 0-2.61-.63c-2.65-.27-5.41.23-7.65 1.73-2.55 1.71-4.98 6.04-1.23 7.9 2.43 1.2 3.43.36 5.73-.44 1.15-.4 2.35-.66 3.57-.68 2.28-.04 4.26.09 5.39-2.41 1.18-2.62-.9-4.58-3.19-5.46Z"/><path class="uuid-9c5e7797-3d53-4575-a52c-e2fb96d067bc" d="M6.32 34.76s-6.91-1.08-4.58-9.61c.75-2.74 2.34-5.29 5.03-6.44 2.9-1.25 5.97-.71 7.69 2.02 1.97 3.11.03 6.88-1.87 9.51"/><path d="M6.32 35.76c-.05 0-.1 0-.16-.01-.12-.02-3.05-.5-4.75-3.12-1.28-1.98-1.5-4.59-.64-7.74.94-3.43 2.92-5.95 5.6-7.1 3.54-1.52 7.04-.58 8.93 2.4 1.79 2.83 1.15 6.41-1.9 10.63-.32.45-.95.55-1.4.22a.995.995 0 0 1-.22-1.4c2.53-3.49 3.15-6.32 1.83-8.39-1.62-2.55-4.39-2.52-6.45-1.63-2.84 1.22-4.01 4.15-4.46 5.79-.7 2.58-.57 4.64.39 6.13 1.2 1.85 3.36 2.23 3.38 2.24.55.08.92.6.83 1.14-.08.49-.5.85-.99.85Z"/><path class="uuid-9c5e7797-3d53-4575-a52c-e2fb96d067bc" d="M16.3 7.16s-5.28.68-4.28 9.07c0 0 .64 4.33 4.61 5.01 6.88 1.17 8.4-15.2-.33-14.07Z"/><path d="M17.33 22.3c-.29 0-.58-.02-.87-.08-4.63-.79-5.4-5.64-5.43-5.85-1.1-9.23 4.88-10.17 5.13-10.2 2.53-.33 4.63.63 5.9 2.69 1.83 2.96 1.64 7.86-.42 10.91-1.11 1.65-2.62 2.53-4.32 2.53Zm-.89-14.14c-.22.03-4.28.77-3.42 7.96.02.12.6 3.6 3.78 4.14 1.26.22 2.34-.32 3.2-1.6 1.61-2.38 1.78-6.47.38-8.74-.86-1.39-2.18-1.98-3.93-1.76Z"/><path class="uuid-9c5e7797-3d53-4575-a52c-e2fb96d067bc" d="M22.48 20.82s-3.79-1.98-2.2-7.92c.87-3.26 4.92-6.64 8.31-4.39 3.12 2.07 2.51 6.55.85 9.33-3.11 5.22-6.96 2.98-6.96 2.98Z"/><path d="M24.52 22.28c-1.32 0-2.29-.47-2.5-.58-.18-.1-4.48-2.42-2.71-9.06.63-2.37 2.65-4.62 4.9-5.48 1.71-.65 3.46-.47 4.93.51 3.5 2.32 3.21 7.23 1.15 10.67-1.9 3.18-4.11 3.93-5.77 3.93Zm-1.54-2.33c.31.17 3.1 1.56 5.6-2.62 1.35-2.27 2.08-6.24-.54-7.98-.95-.63-2-.73-3.12-.31-1.66.63-3.2 2.36-3.67 4.12-1.34 5.04 1.58 6.71 1.71 6.78h.02Z"/><path class="uuid-9c5e7797-3d53-4575-a52c-e2fb96d067bc" d="M32.05 13.27c2.18-.65 4.45-.13 5.82 2.39 2.05 3.79-2.64 9.22-4 9.8s-4.86 1.73-7.18-2.53c-2.06-3.77 1.52-8.52 5.37-9.67Z"/><path d="M31.27 27.05c-2.25 0-4.16-1.24-5.47-3.63-.9-1.65-.96-3.61-.17-5.54 1.05-2.55 3.51-4.79 6.13-5.57 2.93-.87 5.54.2 6.98 2.88.78 1.44.83 3.21.16 5.13-1.01 2.88-3.47 5.56-4.65 6.06-1.04.44-2.04.66-2.98.66Zm2.46-13.03c-.49 0-.97.09-1.4.22-2.03.6-4.02 2.42-4.85 4.41-.39.96-.7 2.4.07 3.82 1.37 2.52 3.31 3.2 5.91 2.09.52-.22 2.67-2.37 3.55-4.88.49-1.4.48-2.58-.03-3.52-.88-1.64-2.11-2.13-3.25-2.13Zm-1.68-.74Z"/></g></svg>