<svg id="uuid-7254588a-07f1-421e-b187-d792d3a01354" xmlns="http://www.w3.org/2000/svg" viewBox="0 0 39.37 51.83"><defs><style>.uuid-eb219316-e812-408c-b8ba-bca1c06d9f6f{fill:#ffc8c5}.uuid-b59c76bd-b49e-468e-b93d-140ccfcb9a1f{fill:#fdf4d5}</style></defs><g id="uuid-ddbcacf9-e7fc-41d4-adcc-65ea0c6d935a"><path class="uuid-b59c76bd-b49e-468e-b93d-140ccfcb9a1f" d="m38.14 50.74-1.96-24.91-12.59-14.82S24.47.86 18.03 1s-5.51 12.08-5.51 12.08-1.53-11.25-8.53-8.87.46 19.06.46 19.06l1.87 14.37.75 13.19"/><path d="M7.07 51.83c-.53 0-.97-.41-1-.94L5.32 37.7 3.47 23.54C2.86 22.13-1.67 11.4.66 6.07c.61-1.4 1.62-2.34 3-2.81 1.87-.63 3.57-.48 5.07.44 1.35.84 2.34 2.22 3.06 3.66.34-2.02 1.01-4.15 2.31-5.58C15.15.64 16.46.04 18.01 0c1.69-.05 3.14.54 4.24 1.71 2.45 2.62 2.43 7.48 2.36 8.95l12.33 14.52c.14.16.22.36.24.57l1.96 24.91c.04.55-.37 1.03-.92 1.08-.54.04-1.03-.37-1.08-.92L35.2 26.23 22.82 11.65a.974.974 0 0 1-.23-.73c0-.05.44-5.45-1.8-7.84-.7-.75-1.56-1.09-2.73-1.08-.99.02-1.79.39-2.46 1.12-2.58 2.85-2.08 9.81-2.08 9.88a1.001 1.001 0 0 1-1.99.21c0-.06-.85-5.97-3.84-7.81-.98-.6-2.08-.69-3.38-.25-.84.28-1.43.85-1.81 1.72-1.73 3.97 1.48 12.88 2.86 15.98a.9.9 0 0 1 .08.28L7.31 37.5l.76 13.27c.03.55-.39 1.02-.94 1.06h-.06Z"/><rect class="uuid-eb219316-e812-408c-b8ba-bca1c06d9f6f" x="2.73" y="6.84" width="6.93" height="6.93" rx="3.1" ry="3.1" transform="rotate(7.84 6.203 10.278)"/><rect class="uuid-eb219316-e812-408c-b8ba-bca1c06d9f6f" x="14.49" y="4.06" width="6.93" height="6.93" rx="3.1" ry="3.1" transform="rotate(7.84 17.961 7.493)"/><path class="uuid-eb219316-e812-408c-b8ba-bca1c06d9f6f" d="M25.6 23.11a10.2 10.2 0 0 0-2.61-.63c-2.65-.27-5.41.23-7.65 1.73-2.55 1.71-4.98 6.04-1.23 7.9 2.43 1.2 3.43.36 5.73-.44 1.15-.4 2.35-.66 3.57-.68 2.28-.04 4.26.09 5.39-2.41 1.18-2.62-.9-4.58-3.19-5.46Z"/><path class="uuid-b59c76bd-b49e-468e-b93d-140ccfcb9a1f" d="M6.32 37.63s-6.91-1.08-4.58-9.61c.75-2.74 2.34-5.29 5.03-6.44 2.9-1.25 5.97-.71 7.69 2.02 1.97 3.11.03 6.88-1.87 9.51"/><path d="M6.32 38.63c-.05 0-.1 0-.16-.01-.12-.02-3.05-.5-4.75-3.12-1.28-1.98-1.5-4.59-.64-7.74.94-3.43 2.92-5.95 5.6-7.1 3.54-1.52 7.05-.58 8.93 2.4 1.79 2.83 1.15 6.41-1.9 10.63-.32.45-.95.55-1.4.22a.995.995 0 0 1-.22-1.4c2.53-3.49 3.15-6.32 1.83-8.39-1.62-2.55-4.39-2.52-6.45-1.63-2.84 1.22-4.01 4.15-4.46 5.79-.7 2.58-.57 4.64.39 6.13 1.2 1.85 3.36 2.23 3.38 2.24.55.08.92.6.83 1.14-.08.49-.5.85-.99.85Z"/><path class="uuid-b59c76bd-b49e-468e-b93d-140ccfcb9a1f" d="M22.48 23.69s-3.79-1.98-2.2-7.92c.85-3.19 4.47-6.22 7.92-4.52s2.95 6.6 1.24 9.46c-3.11 5.22-6.96 2.98-6.96 2.98Z"/><path d="M24.52 25.15c-1.32 0-2.29-.47-2.5-.58-.18-.1-4.48-2.42-2.71-9.06.6-2.23 2.31-4.27 4.36-5.2 1.67-.75 3.38-.74 4.96.04 1.42.7 2.42 1.89 2.87 3.44.79 2.66-.16 5.67-1.21 7.43-1.9 3.18-4.11 3.93-5.77 3.93Zm-1.54-2.33c.31.17 3.1 1.57 5.6-2.62.91-1.53 1.58-3.93 1.01-5.84-.3-1.01-.92-1.76-1.84-2.21-1.29-.64-2.48-.36-3.25-.01-1.51.68-2.82 2.25-3.26 3.9-1.35 5.04 1.58 6.71 1.71 6.78h.02Z"/><path class="uuid-b59c76bd-b49e-468e-b93d-140ccfcb9a1f" d="M32.05 16.14c2.18-.65 4.45-.13 5.82 2.39 2.05 3.79-2.64 9.22-4 9.8s-4.86 1.73-7.18-2.53c-2.06-3.77 1.52-8.52 5.37-9.67Z"/><path d="M31.27 29.92c-2.25 0-4.16-1.24-5.47-3.63-.9-1.65-.96-3.61-.17-5.54 1.05-2.55 3.51-4.79 6.13-5.57 2.93-.87 5.54.2 6.98 2.88.78 1.44.83 3.21.16 5.13-1.01 2.88-3.46 5.56-4.65 6.06-1.04.44-2.04.66-2.98.66Zm2.46-13.03c-.49 0-.97.09-1.4.22-2.03.6-4.02 2.42-4.85 4.41-.39.96-.7 2.4.07 3.82 1.38 2.52 3.31 3.2 5.91 2.09.52-.22 2.67-2.37 3.55-4.88.49-1.39.48-2.58-.03-3.52-.88-1.64-2.11-2.13-3.25-2.13Zm-1.68-.74Z"/></g></svg>