<?xml version="1.0" encoding="UTF-8"?><svg id="uuid-6bdc0659-7e54-4ba1-9ae1-0da14411fb6a" xmlns="http://www.w3.org/2000/svg" viewBox="0 0 46.39 47.97"><defs><style>.uuid-95d75991-114a-4ce8-91b4-278251029c8e{fill:#ffc8c5;}.uuid-60e05c0a-a18f-472d-aed3-7419c9fd8e61{fill:#fdf4d5;}</style></defs><g id="uuid-182b67b3-ffd3-4d9a-9e9d-0fa04b190338"><g><g><path class="uuid-60e05c0a-a18f-472d-aed3-7419c9fd8e61" d="M12.39,46.83l-1.21-17.02S-4.24,20.49,3.14,14.27c0,0,3.24-2.48,7.92,1.46,0,0-1.04-13.36,5.43-13.88s6.74,7.41,6.74,7.41l5.64,4.9,2.38-4.56s.09-8.33,6.43-8.58,6.08,10.48,6.07,11.33,1.52,34.64,1.52,34.64"/><path d="M12.32,47.83c-.57-.04-1.03-.45-1.06-.96l-1.19-16.54C8.07,29.05,.54,23.89,.03,18.68c-.19-1.95,.59-3.68,2.32-5.14,.07-.05,3.15-2.33,7.49,.07-.01-4.11,.7-12.3,6.53-12.77,1.87-.15,3.5,.29,4.81,1.31,2.49,1.95,3.03,5.45,3.14,6.65l4.17,3.62,1.61-3.09c.06-1.44,.72-9.08,7.5-9.34,1.53-.06,2.86,.39,3.96,1.32,3.09,2.63,3.34,8.55,3.31,10.97,0,.8,1.04,21.28,1.51,34.65,.02,.55-.47,1.01-1.1,1.02-.62,.02-1.15-.42-1.17-.98-.06-1.58-1.53-33.82-1.52-34.68,.05-3.53-.61-7.85-2.61-9.56-.64-.54-1.38-.79-2.27-.75-5.2,.2-5.35,7.52-5.36,7.6,0,.14-.04,.28-.1,.4l-2.38,4.56c-.15,.3-.46,.5-.83,.56-.37,.06-.74-.05-1-.28l-5.64-4.9c-.21-.18-.33-.43-.34-.69,0-.04-.17-3.88-2.41-5.63-.83-.65-1.84-.91-3.08-.81-4.39,.35-4.66,9.61-4.41,12.83,.03,.41-.23,.8-.65,.97-.42,.17-.93,.1-1.27-.19-3.88-3.26-6.36-1.44-6.39-1.42-1.19,1-1.72,2.16-1.59,3.5,.48,4.93,9.44,10.4,9.53,10.46,.3,.18,.48,.47,.5,.78l1.21,17.02c.03,.55-.45,1.02-1.08,1.04-.04,0-.09,0-.13,0Z"/></g><path class="uuid-95d75991-114a-4ce8-91b4-278251029c8e" d="M32.54,21.01c-.97-.4-2.01-.68-2.92-.82-2.98-.46-6.15-.17-8.8,1.16-3.02,1.51-6.1,5.66-1.98,7.79,2.67,1.38,3.86,.62,6.53-.02,1.33-.32,2.71-.48,4.1-.42,2.59,.13,4.82,.4,6.29-2,1.53-2.53-.67-4.63-3.21-5.69Z"/><g><path class="uuid-60e05c0a-a18f-472d-aed3-7419c9fd8e61" d="M29.25,24.2s-4.72-1.06-4.56-7.21c.09-3.38,3.65-7.59,8-6.17,4,1.31,4.52,5.81,3.44,8.89-2.04,5.79-6.88,4.49-6.88,4.49Z"/><path d="M31.9,25.16c-1.45,.3-2.66,.06-2.92,0h0c-.23-.05-5.6-1.34-5.42-8.21,.06-2.46,1.68-5.11,3.94-6.45,1.72-1.02,3.7-1.24,5.59-.63,4.49,1.46,5.48,6.31,4.13,10.13-1.24,3.53-3.48,4.77-5.32,5.15Zm-2.33-1.92c.39,.1,3.84,.82,5.48-3.83,.89-2.52,.62-6.55-2.74-7.65-1.22-.4-2.4-.26-3.53,.41-1.66,.99-2.9,3.03-2.95,4.85-.14,5.21,3.55,6.17,3.7,6.21h.03Z"/></g><g><path class="uuid-60e05c0a-a18f-472d-aed3-7419c9fd8e61" d="M23.13,10.3s-6.04,.29-5.53,8.73c0,0,.4,4.37,4.85,5.34,7.71,1.68,10.66-14.54,.68-14.06Z"/><path d="M23.17,25.48c-.32-.02-.65-.07-.98-.14-5.19-1.13-5.7-6.03-5.72-6.23-.56-9.29,6.29-9.78,6.58-9.8h.01c2.89-.14,5.2,.97,6.49,3.12,1.85,3.09,1.27,7.96-1.3,10.85-1.39,1.57-3.16,2.33-5.09,2.2Zm.04-14.18c-.25,.02-4.91,.45-4.48,7.69,.01,.12,.41,3.63,3.98,4.41,1.41,.31,2.67-.15,3.74-1.36,2-2.26,2.51-6.32,1.08-8.69-.87-1.45-2.32-2.14-4.33-2.04Z"/></g><path class="uuid-95d75991-114a-4ce8-91b4-278251029c8e" d="M8.73,22.36l-.47,.18c-1.58,.6-3.44-.05-4.14-1.45l-.4-.81c-.69-1.4,.03-3.03,1.61-3.63l.47-.18c1.58-.6,3.44,.05,4.14,1.45l.4,.81c.69,1.4-.03,3.03-1.61,3.63Z"/><path class="uuid-95d75991-114a-4ce8-91b4-278251029c8e" d="M16.61,10.57l-.32-.06c-1.9-.36-3.14-2.02-2.75-3.69l.07-.28c.39-1.67,2.26-2.74,4.16-2.39l.32,.06c1.9,.36,3.14,2.02,2.75,3.69l-.07,.28c-.39,1.67-2.26,2.74-4.16,2.39Z"/><path class="uuid-95d75991-114a-4ce8-91b4-278251029c8e" d="M36.81,10.11l-.32-.06c-1.9-.36-3.14-2.02-2.75-3.69l.07-.28c.39-1.67,2.26-2.74,4.16-2.39l.32,.06c1.9,.36,3.14,2.02,2.75,3.69l-.07,.28c-.39,1.67-2.26,2.74-4.16,2.39Z"/></g></g></svg>