<?xml version="1.0" encoding="UTF-8"?><svg id="uuid-12031bd8-a919-41b5-9ac6-b309c89fbaf3" xmlns="http://www.w3.org/2000/svg" viewBox="0 0 28.72 29.26"><defs><style>.uuid-adbb1040-d6d0-40b6-842f-d6981237c554{fill:#63bff3;}</style></defs><g id="uuid-e9d3e775-b29e-458d-8eaa-2b4dcff65120"><path class="uuid-adbb1040-d6d0-40b6-842f-d6981237c554" d="M26.23,14.56c-.13-.29-.42-.48-.75-.48s-.35,0-5.29,4.96l-1.61-1.61,5.06-5.06c.32-.32,.32-.84,0-1.16s-.84-.32-1.16,0l-5.06,5.06-.96-.96,4.15-4.15c.32-.32,.32-.84,0-1.16s-.84-.32-1.16,0l-4.15,4.15-.96-.96,3.49-3.49c.32-.32,.32-.84,0-1.16s-.84-.32-1.16,0l-3.49,3.49-.96-.96,2.89-2.89c.32-.32,.32-.84,0-1.16s-.84-.32-1.16,0l-2.89,2.89-.96-.96,2.03-2.03c.32-.32,.32-.84,0-1.16s-.84-.32-1.16,0l-2.03,2.03-.97-.97L7.41,.74c-.03-.32-.24-.58-.54-.69-.3-.11-.63-.03-.86,.19L.24,6.02c-.22,.22-.3,.56-.19,.86,.11,.3,.38,.51,.69,.54l6.08,.56,.97,.97-2.03,2.03c-.32,.32-.32,.84,0,1.16,.16,.16,.37,.24,.58,.24s.42-.08,.58-.24l2.03-2.03,.96,.96-2.89,2.89c-.32,.32-.32,.84,0,1.16,.16,.16,.37,.24,.58,.24s.42-.08,.58-.24l2.89-2.89,.96,.96-3.49,3.49c-.32,.32-.32,.84,0,1.16,.16,.16,.37,.24,.58,.24s.42-.08,.58-.24l3.49-3.49,.96,.96-4.15,4.15c-.32,.32-.32,.84,0,1.16,.16,.16,.37,.24,.58,.24s.42-.08,.58-.24l4.15-4.15,.96,.96-5.06,5.06c-.32,.32-.32,.84,0,1.16,.16,.16,.37,.24,.58,.24s.42-.08,.58-.24l5.06-5.06,1.61,1.61-5.26,5.27c-.18,.18-.27,.43-.23,.68,.03,.25,.18,.47,.4,.6,1.2,.7,10.11,2.53,13.29,2.53,.36,0,.64-.02,.83-.07,.34-.09,.59-.39,.61-.74,.28-4.59-.66-9.91-2.44-13.89Zm-2.28,7.96c-.38,0-.69-.31-.69-.69s.31-.69,.69-.69,.69,.31,.69,.69-.31,.69-.69,.69Z"/></g></svg>