<?xml version="1.0" encoding="UTF-8"?><svg id="uuid-df078455-3d70-40ce-acf3-d51d84de57bf" xmlns="http://www.w3.org/2000/svg" viewBox="0 0 27.9 28.45"><defs><style>.uuid-8755c641-448f-4f80-9348-94ca980bd24b{fill:#fff;}</style></defs><g id="uuid-0a5618dc-c44f-4635-8fc6-14301035dc64"><g><path class="uuid-8755c641-448f-4f80-9348-94ca980bd24b" d="M25.45,14.32c-.05-.12-.17-.21-.3-.24-.13-.02-.27,.02-.36,.11l-5.01,5.01-2.19-2.19,5.35-5.35c.16-.16,.16-.42,0-.58s-.42-.16-.58,0l-5.35,5.35-1.54-1.54,4.44-4.44c.16-.16,.16-.42,0-.58s-.42-.16-.58,0l-4.44,4.44-1.54-1.54,3.78-3.78c.16-.16,.16-.42,0-.58s-.42-.16-.58,0l-3.78,3.78-1.54-1.54,3.17-3.17c.16-.16,.16-.42,0-.58s-.42-.16-.58,0l-3.17,3.17-1.54-1.54,2.32-2.32c.16-.16,.16-.42,0-.58s-.42-.16-.58,0l-2.32,2.32-1.37-1.37L6.59,.37c-.02-.16-.12-.29-.27-.35-.15-.05-.32-.02-.43,.1L.12,5.9c-.11,.11-.15,.28-.1,.43,.05,.15,.19,.25,.35,.27l6.22,.58,1.37,1.37-2.32,2.32c-.16,.16-.16,.42,0,.58,.08,.08,.18,.12,.29,.12s.21-.04,.29-.12l2.32-2.32,1.54,1.54-3.18,3.18c-.16,.16-.16,.42,0,.58,.08,.08,.18,.12,.29,.12s.21-.04,.29-.12l3.17-3.18,1.54,1.54-3.78,3.78c-.16,.16-.16,.42,0,.58,.08,.08,.18,.12,.29,.12s.21-.04,.29-.12l3.78-3.78,1.54,1.54-4.44,4.44c-.16,.16-.16,.42,0,.58,.08,.08,.18,.12,.29,.12s.21-.04,.29-.12l4.44-4.44,1.54,1.54-5.35,5.35c-.16,.16-.16,.42,0,.58,.08,.08,.18,.12,.29,.12s.21-.04,.29-.12l5.35-5.35,2.19,2.19-5.55,5.55c-.09,.09-.13,.22-.12,.34,.02,.13,.09,.24,.2,.3,1.27,.74,10.19,2.47,13.11,2.47,.31,0,.55-.02,.71-.06,.17-.04,.29-.19,.3-.37,.27-4.46-.68-9.83-2.4-13.7ZM1.31,5.86L5.86,1.31l.47,5.01-5.01-.47ZM27.05,27.64c-2.02,.14-10.08-1.38-12.4-2.16l5.41-5.41h0l4.87-4.87c1.49,3.6,2.3,8.38,2.12,12.44Z"/><circle class="uuid-8755c641-448f-4f80-9348-94ca980bd24b" cx="23.54" cy="21.43" r=".69"/></g></g></svg>