<?xml version="1.0" encoding="UTF-8"?><svg id="uuid-ed4a76fe-5594-4cad-8785-549574141e33" xmlns="http://www.w3.org/2000/svg" viewBox="0 0 32.34 27.69"><defs><style>.uuid-4bc8bf58-ec1f-42e2-890f-0590bde30f0b{fill:#0c0d0e;}</style></defs><g id="uuid-34c2f635-34a5-4f90-a455-0085d2344bc1"><g><path class="uuid-4bc8bf58-ec1f-42e2-890f-0590bde30f0b" d="M15.36,14.55c4.01,0,7.27-3.26,7.27-7.27S19.37,0,15.36,0s-7.27,3.26-7.27,7.27,3.26,7.27,7.27,7.27Zm0-12.91c3.11,0,5.64,2.53,5.64,5.64s-2.53,5.64-5.64,5.64-5.64-2.53-5.64-5.64S12.25,1.63,15.36,1.63Z"/><path class="uuid-4bc8bf58-ec1f-42e2-890f-0590bde30f0b" d="M20.42,16.58H10.29C4.62,16.58,0,21.2,0,26.88c0,.45,.37,.82,.82,.82s.82-.37,.82-.82c0-4.78,3.89-8.66,8.66-8.66h10.13c4.77,0,8.66,3.89,8.66,8.66,0,.45,.37,.82,.82,.82s.82-.37,.82-.82c0-5.68-4.62-10.29-10.29-10.29Z"/><path class="uuid-4bc8bf58-ec1f-42e2-890f-0590bde30f0b" d="M31.52,11.54h-2.83v-2.83c0-.45-.37-.82-.82-.82s-.82,.37-.82,.82v2.83h-2.83c-.45,0-.82,.37-.82,.82s.37,.82,.82,.82h2.83v2.83c0,.45,.37,.82,.82,.82s.82-.37,.82-.82v-2.83h2.83c.45,0,.82-.37,.82-.82s-.37-.82-.82-.82Z"/></g></g></svg>