<?xml version="1.0" encoding="UTF-8"?><svg id="uuid-4df4a210-becf-4419-a265-c2956c1ab641" xmlns="http://www.w3.org/2000/svg" viewBox="0 0 14.73 25.01"><defs><style>.uuid-9aed0a86-0685-440a-8b12-b42897df63fd{fill:#0c0d0e;}</style></defs><g id="uuid-dc35b4e4-28dc-4195-8574-6e3fe85e2430"><path class="uuid-9aed0a86-0685-440a-8b12-b42897df63fd" d="M12.03,18.24h-3.84v-3.56c3.68-.41,6.55-3.53,6.55-7.32C14.73,3.3,11.43,0,7.37,0S0,3.3,0,7.36c0,3.79,2.87,6.91,6.55,7.32v3.56H2.7c-.45,0-.82,.37-.82,.82s.37,.82,.82,.82h3.84v4.32c0,.45,.37,.82,.82,.82s.82-.37,.82-.82v-4.32h3.84c.45,0,.82-.37,.82-.82s-.37-.82-.82-.82ZM1.63,7.36C1.63,4.2,4.21,1.63,7.37,1.63s5.73,2.57,5.73,5.73-2.57,5.73-5.73,5.73S1.63,10.52,1.63,7.36Z"/></g></svg>