<svg xmlns="http://www.w3.org/2000/svg" viewBox="0 0 24.47 23.87"><path d="M12.24 0C5.48 0 0 5.48 0 12.24c0 5.41 3.51 9.99 8.37 11.61.61.11.81-.27.81-.59v-2.28c-3.4.74-4.11-1.44-4.11-1.44-.56-1.41-1.36-1.79-1.36-1.79-1.11-.76.08-.74.08-.74 1.23.09 1.88 1.26 1.88 1.26 1.09 1.87 2.86 1.33 3.56 1.02.11-.79.43-1.33.78-1.64-2.72-.31-5.57-1.36-5.57-6.05 0-1.34.48-2.43 1.26-3.28-.13-.31-.55-1.55.12-3.24 0 0 1.03-.33 3.37 1.25a11.655 11.655 0 0 1 6.13 0c2.34-1.58 3.36-1.25 3.36-1.25.67 1.69.25 2.93.12 3.24.79.86 1.26 1.95 1.26 3.28 0 4.7-2.86 5.73-5.59 6.04.44.38.84 1.12.84 2.27v3.36c0 .33.2.71.82.59 4.86-1.62 8.36-6.21 8.36-11.61C24.47 5.48 18.99 0 12.24 0Z" style="fill:#fff"/></svg>