<svg xmlns="http://www.w3.org/2000/svg" viewBox="0 0 229.11 86.14"><path d="M1.77 1.24H8.6c.74 0 1.23.14 1.5.43s.44.75.53 1.38c.07.53.11 1.12.12 1.8 0 .67 0 1.38-.04 2.12-.04.7-.09 1.38-.17 2.02-.08.65-.17 1.18-.28 1.6-.16.47-.39.81-.7 1.02-.31.21-.7.35-1.17.42-.44.05-.92.09-1.46.1s-1.06.03-1.59.03-1.01 0-1.46-.03c-.45-.02-.79-.05-1.04-.1a5.02 5.02 0 0 1-.92-.21c-.26-.09-.49-.22-.68-.39-.19-.19-.35-.45-.49-.78-.13-.32-.23-.75-.3-1.27C.4 9.19.34 8.79.28 8.2c-.06-.59-.12-1.26-.17-2-.05-.7-.09-1.38-.1-2.04C0 3.51 0 3.02.04 2.71c0-.42.16-.77.49-1.06.32-.29.74-.42 1.25-.41Zm1.21 8.25c.23.07.57.12 1.04.14.46.03.95.04 1.46.04.53.02 1.02.01 1.5-.01s.84-.07 1.1-.12c.19-1.05.29-2.09.3-3.13s-.06-2-.2-2.89l-5.73.03c-.05 1.47-.03 2.69.08 3.65s.25 1.73.45 2.29Zm7.29 4.52c1.15 0 2.14.11 2.96.32.82.21 1.5.5 2.04.87s.94.8 1.19 1.3.38 1.04.38 1.62c0 1.42-.52 2.42-1.57 3-1.03.6-2.8.9-5.3.9-2.36 0-4.1-.3-5.22-.9-1.1-.6-1.65-1.73-1.65-3.4 0-1.32.61-2.27 1.84-2.85s3-.87 5.32-.87Zm.17 2.26c-.7 0-1.35.03-1.94.09s-1.1.15-1.52.28c-.42.12-.75.29-.99.5a.95.95 0 0 0-.35.74c-.02.65.35 1.14 1.12 1.47.76.33 1.83.5 3.19.5s2.54-.11 3.38-.34c.83-.23 1.26-.67 1.27-1.31-.02-.54-.33-1-.95-1.37-.61-.37-1.68-.55-3.21-.55ZM15.32 2.1c-.09-.46-.03-.81.18-1.06s.46-.4.76-.43c.3-.04.58.04.85.22s.44.49.51.91c.07.46.14 1.13.21 2.04.07.9.14 1.84.21 2.82.07.96.12 1.89.16 2.79.05.88.08 1.47.08 1.79 0 .47-.13.82-.39 1.05s-.54.34-.84.34-.57-.11-.83-.34-.37-.58-.35-1.05c0-.33-.01-.81-.04-1.45-.03-.63-.07-1.31-.12-2.05h-2.63c-.42 0-.73-.12-.92-.37-.19-.25-.29-.52-.29-.81 0-.28.1-.55.3-.8.2-.25.5-.38.91-.38h2.47c-.04-.33-.06-.66-.08-.97-.02-.32-.04-.61-.05-.89-.04-.28-.06-.53-.08-.76-.02-.23-.03-.42-.03-.58ZM23.52 8.83c.25.09.63.15 1.14.18s1.07.05 1.67.05 1.22-.02 1.81-.05c.6-.04 1.11-.09 1.55-.16.47-.07.83 0 1.06.22.24.22.36.49.38.8.02.32-.08.62-.29.91s-.53.47-.97.54c-.42.05-.96.09-1.62.12s-1.32.04-1.98.04-1.28 0-1.84-.03c-.56-.02-.96-.05-1.21-.11-.35-.05-.66-.12-.92-.21s-.49-.22-.68-.39c-.19-.19-.35-.45-.49-.77s-.23-.75-.3-1.27c-.05-.19-.11-.57-.16-1.14s-.1-1.19-.13-1.85c-.04-.65-.05-1.28-.05-1.91s.02-1.08.05-1.38c0-.46.13-.8.39-1.02s.54-.34.84-.34c.32 0 .6.11.84.34.25.23.37.56.37 1-.02.4-.02.9-.01 1.5s.03 1.21.07 1.84c.05.63.11 1.23.18 1.79s.17 1 .29 1.31ZM30.63 14c1.15 0 2.14.11 2.96.32.82.21 1.5.5 2.04.87s.94.8 1.19 1.3.38 1.04.38 1.62c0 1.42-.52 2.42-1.57 3-1.03.6-2.8.9-5.3.9-2.36 0-4.1-.3-5.22-.9-1.1-.6-1.65-1.73-1.65-3.4 0-1.32.61-2.27 1.84-2.85s3-.87 5.32-.87Zm.17 2.26c-.7 0-1.35.03-1.94.09s-1.1.15-1.52.28c-.42.12-.75.29-.99.5a.95.95 0 0 0-.35.74c-.02.65.35 1.14 1.12 1.47.76.33 1.83.5 3.19.5s2.54-.11 3.38-.34c.83-.23 1.26-.67 1.27-1.31-.02-.54-.33-1-.95-1.37-.61-.37-1.68-.55-3.21-.55ZM34.4 2.1c-.09-.46-.03-.81.18-1.06s.46-.4.76-.43c.3-.04.58.04.85.22s.44.49.51.91c.02.25.04.49.07.72s.05.47.07.7h1.97c.39 0 .67.13.87.38.19.25.3.53.31.83 0 .3-.1.57-.3.81s-.49.37-.88.37h-1.76c0 .19 0 .37.03.54s.03.34.03.51l.08.97h1.63c.39 0 .67.13.87.38.19.25.3.52.31.8 0 .3-.1.57-.3.81s-.49.37-.88.37H37.3c0 .21 0 .41.01.6 0 .19.01.37.01.53 0 .47-.13.83-.38 1.08-.25.25-.53.37-.83.37-.3.02-.57-.09-.81-.33-.25-.24-.37-.61-.37-1.12 0-1.05-.04-2.31-.1-3.77-.07-1.46-.21-3.19-.42-5.19ZM46.95 1.31c1.42 0 2.53.28 3.32.84.8.56 1.39 1.27 1.77 2.13.38.86.62 1.81.71 2.85.09 1.04.14 2.04.16 3.01-.02 1.31-.1 2.47-.25 3.48-.15 1.01-.42 1.85-.83 2.54-.4.68-.95 1.2-1.65 1.55-.7.35-1.6.53-2.71.53-1.66.05-2.98-.61-3.94-2-.95-1.38-1.4-3.26-1.37-5.62-.02-1.21.02-2.36.12-3.47s.31-2.1.64-2.99c.35-.86.84-1.55 1.47-2.06s1.48-.78 2.55-.78Zm.03 2.31c-.56.02-1.01.24-1.34.67-.33.43-.59.98-.76 1.64-.19.67-.31 1.41-.37 2.22-.05.81-.08 1.62-.08 2.4-.04 1.84.26 3.19.89 4.05.63.84 1.37 1.25 2.21 1.23.7.02 1.25-.1 1.66-.34.4-.25.7-.61.89-1.1.19-.47.31-1.06.37-1.76.05-.7.09-1.5.1-2.39-.02-.89-.06-1.74-.12-2.53-.06-.8-.21-1.49-.43-2.09-.25-.61-.6-1.09-1.06-1.44-.46-.35-1.12-.53-1.96-.55Zm10.19-1.16c-.09-.46-.03-.81.18-1.05.21-.25.46-.38.76-.42.28-.04.56.04.83.22.27.18.44.48.51.88.09.95.17 2.09.26 3.44s.17 2.79.24 4.33c.07 1.54.13 3.1.18 4.69.05 1.59.08 3.07.08 4.45 0 .47-.13.83-.38 1.08-.25.25-.53.37-.83.37s-.57-.12-.81-.35c-.25-.24-.37-.6-.37-1.09 0-1.38-.02-2.83-.05-4.35-.04-1.51-.08-3.02-.13-4.5s-.12-2.89-.2-4.22a72.79 72.79 0 0 0-.28-3.48ZM72.56 3.23c.07.51.11 1.14.13 1.9s.02 1.54 0 2.33c-.04.79-.09 1.54-.17 2.26-.08.72-.18 1.28-.3 1.68-.21.95-.54 1.79-.98 2.55-.45.75-.93 1.41-1.46 1.97-.54.58-1.09 1.05-1.66 1.42-.56.37-1.06.61-1.5.74-.51.16-.92.16-1.22.01-.31-.15-.5-.35-.59-.62-.09-.28-.06-.57.09-.87.15-.3.43-.53.85-.68 1.05-.42 1.92-1.05 2.61-1.89s1.23-1.97 1.62-3.39c.09-.37.17-.86.24-1.47.07-.61.11-1.25.13-1.92s0-1.31-.03-1.94c-.04-.63-.11-1.16-.21-1.6l-6.33.03c-.47.02-.83-.1-1.06-.34-.24-.25-.35-.51-.35-.79 0-.3.12-.57.35-.81.24-.25.59-.37 1.06-.37h6.78c.72 0 1.21.15 1.47.45.26.3.44.75.53 1.37Zm3.94-.5c-.07-.42 0-.75.2-1s.43-.38.7-.42c.28-.03.55.04.81.22s.42.47.47.85c.07.79.14 1.74.22 2.86.08 1.12.15 2.31.22 3.57h2.34c.37 0 .65.11.84.34.19.23.29.48.29.76s-.1.53-.29.75c-.19.22-.47.33-.84.33h-2.23c.05 1.26.1 2.52.13 3.77s.05 2.43.05 3.53c0 .46-.12.8-.37 1.02-.25.23-.51.34-.79.34-.28.02-.54-.09-.77-.31s-.35-.58-.35-1.05c0-1.31-.01-2.68-.04-4.11s-.07-2.83-.12-4.22c-.05-1.42-.12-2.75-.2-3.98a65.45 65.45 0 0 0-.28-3.27ZM96.07 1.34c1.96 0 3.44.41 4.43 1.24.99.82 1.5 2.16 1.54 4.02-.02.74-.15 1.42-.39 2.06-.25.64-.6 1.2-1.08 1.67a5.1 5.1 0 0 1-1.68 1.12c-.67.27-1.43.4-2.29.38-.61.02-1.23-.07-1.87-.25-.63-.18-1.2-.47-1.71-.85-.51-.39-.92-.88-1.25-1.48-.32-.6-.49-1.33-.49-2.17 0-1 .13-1.85.38-2.56s.61-1.3 1.06-1.77c.44-.47.95-.82 1.52-1.05a4.85 4.85 0 0 1 1.81-.34Zm2.68 13.98c0-.42.12-.73.37-.93s.52-.3.81-.3.57.09.81.26c.25.17.38.42.39.74 0 .3 0 .72.01 1.26 0 .54.02 1.1.04 1.68l.08 2.78c0 .49-.22.82-.66 1-.46.19-.86.3-1.21.32-.23.04-.59.06-1.09.08-.5.02-1.03.03-1.59.03-.56-.02-1.09-.04-1.6-.08s-.88-.08-1.1-.13a2.14 2.14 0 0 1-.79-.3c-.26-.17-.5-.48-.71-.93-.07-.12-.12-.44-.14-.96a69.422 69.422 0 0 1-.1-3.52c0-.59 0-1.02.03-1.3-.02-.38.1-.68.34-.89.25-.21.52-.32.81-.32s.58.11.84.33.41.56.45 1.04c-.02.07-.03.18-.03.34-.02.09-.03.25-.03.47l1.97.08h1.13c.35 0 .67 0 .97-.03-.02-.16-.03-.3-.03-.43v-.28ZM96.1 3.66c-.93 0-1.59.33-2 1-.37.67-.55 1.45-.55 2.36 0 .7.31 1.29.92 1.76.65.47 1.38.7 2.21.68.49 0 .92-.08 1.3-.24.38-.16.69-.36.93-.62.25-.25.43-.55.56-.89.13-.34.2-.7.2-1.06-.02-.42-.07-.81-.14-1.18a1.97 1.97 0 0 0-.49-.95c-.25-.26-.6-.47-1.06-.63-.46-.16-1.09-.24-1.88-.24Zm-1.34 14.45c0 .37 0 .68.03.95s.04.44.05.53c.1.05.34.1.7.13.36.04.75.06 1.17.08.42 0 .83 0 1.23-.03s.72-.05.95-.11c-.02-.1-.03-.3-.04-.59s-.01-.62-.01-.99c-.61.05-1.31.08-2.1.08l-1.97-.05Zm12.53-.5a26.733 26.733 0 0 0 2.47 2c.37.3.57.62.6.96.04.34-.03.64-.18.91-.19.25-.46.41-.8.49s-.71-.01-1.09-.28a13.5 13.5 0 0 0-.59-.47c-.2-.16-.41-.33-.62-.53-.21-.17-.42-.35-.64-.53-.22-.17-.43-.36-.64-.55-.14.17-.27.35-.39.51l-.37.49c-.12.16-.24.3-.35.43-.11.13-.22.27-.33.41-.46.37-.88.56-1.27.59s-.71-.07-.93-.28c-.23-.19-.34-.46-.33-.81 0-.35.2-.73.56-1.13.33-.35.66-.74.99-1.16l.96-1.26c.31-.42.63-.83.95-1.22.32-.39.64-.75.97-1.06.37-.32.72-.48 1.05-.49.33 0 .61.08.84.25.23.16.37.38.42.66.05.28 0 .55-.18.81-.19.21-.38.42-.56.63-.18.21-.35.42-.51.63Zm-.68-15.5c-.09-.46-.03-.81.18-1.06s.46-.4.76-.43c.3-.04.58.04.85.22s.44.49.51.91c.07.46.14 1.13.21 2.04.07.9.14 1.84.21 2.82.07.96.12 1.89.16 2.79.05.88.08 1.47.08 1.79 0 .47-.13.82-.39 1.05s-.54.34-.84.34-.57-.11-.83-.34-.37-.58-.35-1.05c0-.33-.01-.81-.04-1.45-.03-.63-.07-1.31-.12-2.05h-2.63c-.42 0-.73-.12-.92-.37-.19-.25-.29-.52-.29-.81 0-.28.1-.55.3-.8.2-.25.5-.38.91-.38h2.47c-.04-.33-.06-.66-.08-.97-.02-.32-.04-.61-.05-.89-.04-.28-.06-.53-.08-.76-.02-.23-.03-.42-.03-.58ZM125.23 17.21c.46-.07.81 0 1.05.21s.39.46.42.76-.04.59-.22.87-.48.45-.88.5c-.95.1-1.94.19-3 .25-1.05.06-2.13.11-3.23.14-1.1.04-2.21.06-3.31.08-1.1.02-2.16.02-3.18 0-.47 0-.83-.12-1.06-.35s-.35-.5-.35-.8c0-.28.12-.54.35-.79.24-.24.6-.37 1.09-.37.91 0 1.88 0 2.9-.01 1.02 0 2.07-.03 3.14-.07 1.05-.04 2.11-.09 3.18-.16 1.07-.07 2.1-.16 3.1-.26Zm-6.07-15.79c1.96.09 3.54.65 4.73 1.68 1.21 1.01 1.83 2.52 1.86 4.51 0 .82-.15 1.57-.45 2.25-.3.68-.74 1.27-1.34 1.77-.6.5-1.33.88-2.19 1.15-.87.27-1.86.41-2.98.41-1 0-1.91-.08-2.73-.25-.82-.17-1.54-.46-2.15-.88-.61-.42-1.09-.99-1.43-1.7-.34-.72-.5-1.63-.49-2.75-.02-1.15.18-2.13.6-2.92s.97-1.43 1.65-1.9a6.61 6.61 0 0 1 2.3-1.05c.85-.21 1.72-.31 2.61-.31Zm.08 2.26c-1.4 0-2.56.35-3.47 1.05-.91.7-1.36 1.64-1.34 2.81 0 1.26.42 2.14 1.26 2.63.86.51 1.91.74 3.15.71 1.42.02 2.52-.26 3.3-.84.78-.58 1.14-1.47 1.09-2.68 0-.54-.1-1.04-.29-1.5-.19-.46-.46-.84-.8-1.17s-.76-.57-1.26-.75a5.08 5.08 0 0 0-1.64-.26ZM135.66 2.29c.21.53.42 1.1.64 1.73.22.63.45 1.29.68 1.97.24.68.47 1.38.71 2.09s.47 1.41.7 2.09c.44 1.38.84 2.67 1.21 3.85.37 1.18.64 2.07.81 2.67.05.51-.02.89-.22 1.16-.2.26-.44.42-.72.47-.28.05-.56 0-.84-.18-.28-.17-.46-.46-.55-.84-.14-.58-.34-1.29-.59-2.13-.25-.84-.54-1.74-.85-2.71-.3-.95-.6-1.92-.91-2.93a99.87 99.87 0 0 1-.83-2.88c-.1.81-.26 1.74-.46 2.8-.2 1.06-.43 2.11-.7 3.17s-.53 2.01-.8 2.88c-.27.87-.52 1.49-.75 1.88-.25.46-.54.74-.89.84-.35.11-.67.09-.95-.05-.26-.12-.46-.35-.58-.67-.12-.32-.06-.7.18-1.12.28-.49.59-1.29.92-2.39.33-1.1.66-2.34.97-3.7.32-1.33.6-2.69.87-4.08.26-1.39.48-2.64.66-3.74.05-.35.17-.62.37-.8.19-.18.4-.29.63-.3.54-.03.97.28 1.29.95Zm9.25.18c-.09-.46-.03-.81.18-1.05s.46-.38.76-.42c.28-.04.56.04.83.22.27.18.44.48.51.88.09.95.18 2.09.28 3.44.1 1.35.18 2.79.25 4.33s.13 3.1.17 4.69c.04 1.59.07 3.07.07 4.45 0 .47-.13.83-.38 1.08-.25.25-.53.37-.83.37-.31 0-.6-.12-.84-.35-.25-.24-.37-.6-.37-1.09 0-.68 0-1.39-.01-2.13 0-.74-.01-1.48-.01-2.23h-2.55c-.4 0-.71-.12-.91-.37s-.29-.52-.28-.81c0-.28.1-.55.29-.8.19-.25.49-.38.89-.38l2.47-.03c-.02-.68-.04-1.36-.07-2.04s-.05-1.34-.07-2.01l-2.34.03c-.4 0-.71-.12-.91-.37-.2-.25-.29-.52-.28-.81 0-.28.1-.55.29-.8.19-.25.49-.38.89-.38l2.21-.03c-.05-.63-.1-1.23-.13-1.8-.04-.57-.08-1.1-.13-1.59ZM155.65 17.5l-.1-3.05c-.02-.47.1-.84.34-1.09.25-.25.51-.38.79-.38.3-.02.57.09.81.32.25.23.38.58.39 1.05l.16 3.07c.91-.04 1.82-.08 2.73-.13.91-.05 1.79-.13 2.63-.24.46-.07.81 0 1.05.22.25.22.38.48.42.78.03.3-.04.59-.22.87s-.48.45-.88.5c-.95.09-1.95.16-3.02.22s-2.15.12-3.26.17c-1.12.04-2.23.06-3.34.08-1.1.02-2.16.02-3.18 0-.47 0-.83-.12-1.08-.35-.25-.24-.37-.5-.37-.8s.12-.57.35-.81.61-.37 1.12-.37h2.22c.78 0 1.59-.02 2.43-.05Zm-3.18-13.98c-.04.63-.06 1.28-.08 1.96-.02.67-.03 1.32-.03 1.93.02.61.05 1.18.09 1.69.04.52.12.92.22 1.22.12.04.33.07.63.11.3.04.69.06 1.18.08.49.02 1 .03 1.54.04s1.08.01 1.64.01 1.12 0 1.67-.01 1.09-.02 1.62-.04c1.07-.02 1.81-.07 2.23-.16.47-.07.83 0 1.08.24.25.23.38.5.39.81.02.3-.08.6-.29.89-.21.3-.53.47-.97.53-.21.04-.52.06-.92.07-.4 0-.86.02-1.37.04s-1.06.03-1.64.04c-.59 0-1.18.01-1.77.01h-1.75c-.57 0-1.09 0-1.56-.03-.46 0-.85 0-1.18-.03-.33-.02-.56-.04-.68-.08-.35-.05-.66-.12-.92-.2-.26-.08-.49-.21-.68-.41-.19-.17-.35-.42-.49-.75s-.23-.76-.3-1.3c-.05-.18-.09-.52-.12-1.03s-.05-1.08-.07-1.73V5.44c0-.69.02-1.32.05-1.88 0-.84.2-1.46.59-1.85.39-.39 1.09-.59 2.09-.59l9.85.08c.46 0 .8.12 1.02.37.23.25.34.51.34.79 0 .3-.12.57-.35.8-.24.24-.57.35-1.01.35h-10.06ZM188.17 8.88c.46-.05.81.04 1.05.26.25.23.38.48.39.76.04.3-.04.58-.24.85-.19.27-.5.42-.92.46-.95.07-1.98.13-3.1.17-1.12.04-2.27.08-3.43.09-1.16 0-2.32-.01-3.46-.04s-2.22-.08-3.22-.17c-.47 0-.83-.13-1.06-.38-.24-.25-.35-.53-.35-.83 0-.28.12-.54.37-.77.25-.24.62-.36 1.13-.36.75.07 1.56.12 2.42.16.86.04 1.73.05 2.63.05l-.03-1.39c-.02-.47.09-.83.32-1.08s.49-.38.77-.39.54.09.78.33c.24.24.37.59.39 1.06l.05 1.45c.95 0 1.89-.02 2.82-.07.94-.04 1.83-.1 2.69-.17Zm-7.62 5.41v-.74c0-.44.12-.77.35-1 .24-.23.5-.35.8-.37.28 0 .54.11.79.34.24.23.37.57.37 1.02v.71h4.76c.42 0 .72.12.91.37.18.25.27.51.25.79-.02.28-.13.54-.34.77-.21.24-.5.35-.87.35h-1.26c.22.25.42.55.58.91.16.36.25.8.25 1.33s-.15.98-.45 1.38c-.3.39-.69.71-1.18.93-.49.25-1.05.43-1.69.56-.64.13-1.32.2-2.06.2-1.59 0-2.88-.25-3.88-.74-.49-.25-.87-.56-1.15-.95-.28-.38-.42-.85-.42-1.39 0-.47.07-.9.2-1.27.13-.38.29-.7.49-.96h-1.18c-.46 0-.8-.11-1.04-.34a1.05 1.05 0 0 1-.35-.79c0-.28.11-.54.34-.78.23-.24.58-.35 1.05-.35h4.73Zm6.57-11.98h-2.81c.58.58 1.19 1.13 1.84 1.65.65.53 1.23.95 1.76 1.26.32.25.49.52.54.83.04.31-.02.56-.2.77-.18.23-.44.36-.8.41-.36.04-.76-.08-1.2-.38-.26-.16-.61-.41-1.05-.76-.44-.35-.88-.72-1.34-1.1-.46-.4-.88-.78-1.26-1.13-.39-.35-.66-.62-.81-.81-.3.35-.67.73-1.1 1.13-.44.4-.89.79-1.37 1.16-.49.37-.96.7-1.41 1-.45.3-.82.53-1.12.68-.44.37-.84.54-1.21.51-.37-.03-.65-.16-.84-.41-.19-.23-.26-.51-.21-.85.05-.34.29-.65.71-.93.63-.37 1.3-.83 2-1.38.7-.55 1.32-1.1 1.86-1.64h-3.2c-.49.02-.85-.1-1.09-.34s-.35-.51-.33-.79c0-.3.12-.57.35-.81s.59-.37 1.06-.37h11.19c.47 0 .81.12 1.02.37.21.25.31.51.31.79-.02.3-.14.56-.37.8-.23.24-.54.35-.95.35Zm-8.41 16.18c0 .42.29.77.87 1.05.58.28 1.34.42 2.29.42.4 0 .79-.03 1.16-.08.37-.05.69-.13.96-.25.27-.11.49-.25.66-.42a.83.83 0 0 0 .25-.62c0-.38-.09-.71-.26-.97-.18-.26-.41-.47-.71-.63-.3-.16-.65-.27-1.05-.33s-.82-.09-1.26-.09c-.35 0-.7.04-1.05.11-.35.07-.66.17-.92.32-.28.14-.5.33-.67.58-.17.25-.25.55-.25.92ZM196.55 1.31c1.42 0 2.53.28 3.32.84.8.56 1.39 1.27 1.77 2.13.38.86.62 1.81.71 2.85.09 1.04.14 2.04.16 3.01-.02 1.31-.1 2.47-.25 3.48-.15 1.01-.42 1.85-.83 2.54-.4.68-.95 1.2-1.65 1.55-.7.35-1.6.53-2.71.53-1.66.05-2.98-.61-3.94-2-.95-1.38-1.4-3.26-1.37-5.62-.02-1.21.02-2.36.12-3.47s.31-2.1.64-2.99c.35-.86.84-1.55 1.47-2.06s1.48-.78 2.55-.78Zm.03 2.31c-.56.02-1.01.24-1.34.67-.33.43-.59.98-.76 1.64-.19.67-.31 1.41-.37 2.22-.05.81-.08 1.62-.08 2.4-.04 1.84.26 3.19.89 4.05.63.84 1.37 1.25 2.21 1.23.7.02 1.25-.1 1.66-.34.4-.25.7-.61.89-1.1.19-.47.31-1.06.37-1.76.05-.7.09-1.5.1-2.39-.02-.89-.06-1.74-.12-2.53-.06-.8-.21-1.49-.43-2.09-.25-.61-.6-1.09-1.06-1.44-.46-.35-1.12-.53-1.96-.55Zm8.98-1.26c-.09-.44-.03-.78.18-1.04.21-.25.46-.4.76-.43.28-.04.56.04.83.22.27.18.44.49.51.91.07.84.15 1.85.24 3.02s.17 2.44.24 3.81h2c.39 0 .68.12.88.37.2.25.3.52.3.81s-.1.56-.29.8c-.19.24-.49.35-.89.35h-1.89c.05 1.33.1 2.66.13 3.99s.05 2.58.05 3.73c0 .47-.13.83-.38 1.08s-.53.37-.83.37c-.32.02-.6-.09-.84-.33-.25-.24-.37-.61-.37-1.12 0-1.37-.01-2.81-.04-4.33s-.07-3.03-.12-4.52c-.05-1.49-.12-2.89-.2-4.22a72.79 72.79 0 0 0-.28-3.48ZM216.96 17.57l-.03-2.08c-.02-.47.1-.84.34-1.09.25-.25.51-.38.79-.38.3-.02.57.09.81.32.24.23.38.58.39 1.05l.05 2.18c.61 0 1.24 0 1.88-.01.64 0 1.28-.03 1.93-.07l-.03-2c-.02-.47.1-.84.34-1.09.25-.25.51-.38.79-.38.3-.02.57.09.81.32s.38.58.39 1.05l.05 2c.37-.02.73-.04 1.08-.07.35-.03.7-.07 1.05-.12.46-.07.81 0 1.05.22.25.22.38.47.42.75.03.3-.04.59-.22.87s-.48.45-.88.5c-.95.1-1.95.18-3.02.24-1.07.05-2.15.09-3.26.1-1.12.04-2.23.05-3.34.05s-2.16 0-3.18-.03c-.47 0-.83-.12-1.08-.35-.25-.24-.37-.5-.37-.8s.12-.57.35-.81.61-.37 1.12-.37h1.73Zm4.39-16.16c1.96.09 3.54.65 4.73 1.68 1.21 1.01 1.83 2.52 1.86 4.51 0 .82-.15 1.57-.45 2.25-.3.68-.74 1.27-1.34 1.77-.6.5-1.33.88-2.19 1.15-.87.27-1.86.41-2.98.41-1 0-1.91-.08-2.73-.25-.82-.17-1.54-.46-2.15-.88-.61-.42-1.09-.99-1.43-1.7-.34-.72-.5-1.63-.49-2.75-.02-1.15.18-2.13.6-2.92s.97-1.43 1.65-1.9a6.61 6.61 0 0 1 2.3-1.05c.85-.21 1.72-.31 2.61-.31Zm.08 2.26c-1.4 0-2.56.35-3.47 1.05-.91.7-1.36 1.64-1.34 2.81 0 1.26.42 2.14 1.26 2.63.86.51 1.91.74 3.15.71 1.42.02 2.52-.26 3.3-.84.78-.58 1.14-1.47 1.09-2.68 0-.54-.1-1.04-.29-1.5-.19-.46-.46-.84-.8-1.17s-.76-.57-1.26-.75a5.08 5.08 0 0 0-1.64-.26ZM20.88 32.84h6.83c.74 0 1.23.15 1.5.45s.44.75.53 1.37c.03.26.06.63.08 1.12s.04 1.03.05 1.64v1.98c0 .71 0 1.43-.03 2.17s-.04 1.45-.07 2.14c-.03.69-.06 1.34-.09 1.93-.04.59-.08 1.11-.13 1.55-.05.44-.1.76-.16.97-.16.47-.39.81-.7 1.02-.31.21-.7.35-1.17.42-.44.05-.92.09-1.46.11s-1.06.03-1.59.03c-.51.02-.98.02-1.43 0-.45-.02-.79-.05-1.04-.11a5.02 5.02 0 0 1-.92-.21c-.26-.09-.49-.22-.68-.39-.21-.19-.38-.45-.51-.78s-.23-.75-.3-1.27c-.04-.1-.07-.35-.09-.74-.03-.38-.06-.86-.09-1.42-.02-.56-.04-1.19-.08-1.88s-.06-1.41-.08-2.14c-.04-.74-.06-1.45-.08-2.15-.02-.7-.04-1.35-.05-1.94v-1.5c0-.42 0-.71.03-.87 0-.42.16-.78.49-1.06.32-.29.74-.43 1.25-.43Zm1.26 14.21c.23.07.57.12 1.04.16.46.04.95.05 1.46.05s1-.01 1.48-.04.85-.07 1.12-.12c.04-.26.07-.6.1-1.02.04-.42.06-.91.08-1.47.05-1.16.08-2.35.08-3.6 0-.63 0-1.24-.01-1.83s-.02-1.15-.04-1.69c-.04-1.12-.09-1.9-.16-2.34l-5.73.03c-.02.37-.03.8-.04 1.29 0 .49 0 1.04.01 1.65.02.61.03 1.23.05 1.84.02.61.04 1.23.08 1.84.02.61.04 1.2.08 1.77s.07 1.09.12 1.56c.04.47.09.88.13 1.21.04.33.09.57.14.71Zm10.51-13.16c-.09-.44-.03-.78.18-1.04.21-.25.46-.4.76-.43.28-.04.56.04.83.22.27.18.44.49.51.91.07.84.15 1.85.24 3.02s.17 2.44.24 3.81h2c.39 0 .68.12.88.37.2.25.3.52.3.81s-.1.56-.29.8c-.19.24-.49.35-.89.35h-1.89c.05 1.33.1 2.66.13 3.99s.05 2.58.05 3.73c0 .47-.13.83-.38 1.08s-.53.37-.83.37c-.32.02-.6-.09-.84-.33-.25-.24-.37-.61-.37-1.12 0-1.37-.01-2.81-.04-4.33s-.07-3.03-.12-4.52c-.05-1.49-.12-2.89-.2-4.22a72.79 72.79 0 0 0-.28-3.48ZM55.08 42.06c.46-.05.81.03 1.05.25.25.22.38.48.39.77.03.3-.04.58-.24.85-.19.27-.5.42-.92.46-.95.07-1.98.13-3.1.17-1.12.04-2.27.08-3.44.09-1.17 0-2.33-.01-3.48-.04s-2.22-.08-3.22-.17c-.47 0-.83-.13-1.06-.38s-.35-.52-.35-.8c0-.3.12-.57.37-.8.25-.24.62-.35 1.13-.33.95.09 1.96.14 3.05.17 1.09.03 2.19.03 3.31.01 1.12 0 2.24-.02 3.35-.07 1.11-.04 2.17-.11 3.17-.2Zm-.58 4.68c.21-.02.42 0 .62.03.2.04.38.11.55.21.17.11.3.25.41.42.11.17.16.39.16.66 0 .3 0 .67.01 1.12 0 .45.02.9.04 1.35l.08 2.31c0 .51-.22.85-.66 1.02-.42.17-.82.29-1.21.34-.25.02-.57.03-.97.03s-.88 0-1.44.03c-1.1.03-2.26.03-3.47 0-.61 0-1.2 0-1.77-.01-.57 0-1.13-.02-1.69-.04-.54-.02-1.01-.03-1.41-.04-.39 0-.71-.03-.96-.07-.26-.04-.53-.14-.8-.3-.27-.17-.51-.49-.72-.96-.05-.12-.1-.39-.13-.8-.04-.41-.05-.87-.05-1.38-.02-.51-.03-1.01-.03-1.5s0-.88.03-1.16c-.04-.32.07-.61.32-.89.24-.28.6-.42 1.08-.42.28.02.64.03 1.08.04.44 0 .92.02 1.46.03.53 0 1.1.01 1.71.01h6.8c.41 0 .74 0 .98-.03Zm-6.29-14.58c.75 0 1.49.07 2.2.21.71.14 1.34.37 1.88.68.54.33.98.76 1.32 1.27.33.52.5 1.15.5 1.91 0 .63-.14 1.19-.43 1.67s-.71.88-1.25 1.21c-.54.32-1.19.56-1.95.72-.75.16-1.59.24-2.5.24s-1.71-.07-2.45-.2c-.74-.13-1.39-.35-1.95-.67-.56-.3-1-.7-1.32-1.21-.32-.51-.47-1.16-.47-1.94s.21-1.46.63-1.96.95-.89 1.58-1.17a8.38 8.38 0 0 1 2.09-.58c.75-.1 1.45-.17 2.12-.18Zm5.74 19.54c-.02-.16-.03-.37-.04-.63 0-.26-.01-.53-.01-.79-.02-.28-.03-.54-.03-.79v-.55c-.25 0-.56 0-.93.01-.38 0-.8.01-1.26.01h-6.16c-.47-.02-.88-.03-1.21-.03s-.6 0-.79-.03v.67c0 .27 0 .55.03.83 0 .28 0 .54.01.79 0 .25.03.42.07.53.21.05.49.09.85.12s.76.04 1.21.05c.45 0 .93.02 1.46.03s1.05.01 1.58.01l3.07-.08c1-.04 1.72-.09 2.15-.16Zm-5.73-17.42c-.47 0-.95.03-1.43.09s-.92.15-1.3.28c-.4.14-.73.32-.97.55-.25.23-.37.51-.37.84 0 .63.33 1.13 1 1.48.67.36 1.6.5 2.81.43 1.37.05 2.35-.07 2.96-.38.6-.31.91-.78.93-1.43-.04-1.17-1.24-1.79-3.63-1.87ZM64.41 34.65c0 .14 0 .35.01.63s.01.59.01.92c0 .31 0 .63-.03.96-.02.33-.04.6-.08.83-.25 1.1-.52 2.01-.83 2.72-.31.71-.63 1.27-.98 1.69-.33.4-.68.64-1.05.72-.37.08-.68.05-.95-.09-.26-.14-.44-.36-.53-.67-.09-.31 0-.64.26-1.01.21-.26.4-.52.58-.76.18-.25.34-.51.5-.8.16-.29.3-.61.43-.96s.25-.76.35-1.24c.05-.17.08-.38.09-.62 0-.24.01-.47.01-.7-.02-.23-.04-.45-.05-.66s-.03-.38-.03-.53h-2.63c-.49.02-.85-.1-1.09-.34s-.35-.52-.33-.81c0-.3.12-.57.35-.83.24-.25.59-.38 1.06-.38h3.05c.25 0 .47.06.68.17s.4.26.56.43c.17.17.3.38.41.62.1.24.17.47.18.7Zm6.83 13.03c.26.3.6.61 1 .95.4.33.84.67 1.31 1 .47.32.97.62 1.48.91.52.29 1.01.54 1.48.75.35.17.58.4.68.68.11.28.11.53 0 .76-.1.23-.29.41-.56.54-.27.13-.61.14-1.01.01-.56-.21-1.12-.46-1.68-.75s-1.09-.59-1.6-.91c-.49-.32-.93-.63-1.33-.96s-.7-.62-.91-.88c-.28.3-.64.62-1.06.96-.43.34-.89.68-1.38 1.01-.49.32-.99.62-1.5.91-.51.29-.97.54-1.39.75-.46.16-.84.18-1.17.07s-.54-.29-.64-.54c-.12-.23-.12-.5 0-.81s.4-.6.84-.87c.42-.21.86-.44 1.31-.7.46-.25.93-.53 1.42-.83 1-.6 1.81-1.25 2.44-1.97l-.03-.68c-.02-.4.09-.7.32-.89.23-.19.48-.28.76-.26.3 0 .56.1.8.3s.36.49.38.85l.03.6Zm-.81-13.08c.02.12.03.33.03.62v.93l-.05 1.05c-.02.35-.04.64-.08.87-.19 1.1-.42 2.05-.7 2.84s-.56 1.44-.88 1.97c-.32.44-.66.7-1.04.79-.38.09-.7.05-.96-.1-.28-.14-.46-.37-.54-.7-.08-.32.02-.68.3-1.06.39-.53.71-1.11.97-1.76.26-.65.47-1.45.63-2.39.09-.47.12-.95.1-1.43-.02-.48-.04-.87-.08-1.17h-2.1c-.47.02-.83-.1-1.06-.34-.24-.25-.35-.52-.35-.81s.12-.57.35-.83.59-.38 1.06-.38h2.52c.49 0 .91.2 1.26.6.35.4.55.84.6 1.31Zm4.07-.92c-.09-.44-.03-.78.18-1.04.21-.25.46-.4.76-.43.3-.04.58.04.85.22s.44.48.51.88c.18 1.89.33 3.64.46 5.25s.2 2.98.2 4.1c0 .47-.13.83-.38 1.08s-.53.37-.83.37c-.32.02-.6-.09-.84-.33-.25-.24-.37-.61-.37-1.12 0-.44 0-.92-.01-1.43 0-.52-.02-1.06-.04-1.64h-2.6c-.4 0-.71-.12-.91-.35-.2-.24-.29-.5-.28-.8 0-.3.1-.57.29-.81.19-.25.49-.37.89-.37h2.44c-.09-.53-.14-1.09-.16-1.68-.04-.3-.07-.6-.11-.92-.04-.32-.06-.64-.08-.97ZM91.39 32.81c1.28.02 2.25.31 2.9.87.66.56 1.12 1.27 1.41 2.13.16.42.27.88.34 1.37s.12.99.14 1.48.04 1.01.05 1.52c0 .52.01 1.01.01 1.48-.02 1.31-.07 2.48-.16 3.49-.09 1.02-.27 1.88-.55 2.58-.3.68-.73 1.2-1.29 1.55-.56.35-1.34.51-2.34.47-.81 0-1.51-.17-2.1-.53-.6-.35-1.09-.85-1.47-1.51-.39-.66-.67-1.45-.85-2.39-.18-.94-.27-2-.25-3.19-.02-1.21 0-2.37.08-3.49.07-1.12.25-2.11.53-2.97.3-.89.72-1.59 1.27-2.1s1.31-.76 2.27-.76Zm.03 2.34c-.47 0-.84.21-1.09.64-.25.43-.44.98-.56 1.64-.12.68-.2 1.43-.22 2.25s-.04 1.62-.04 2.4c-.04 1.86.16 3.2.59 4.03.43.83 1.06 1.25 1.9 1.25.51.05.89-.04 1.16-.29s.45-.6.55-1.08c.1-.49.16-1.09.16-1.81s0-1.52.03-2.42c-.02-.89-.03-1.74-.03-2.53s-.06-1.5-.18-2.12c-.14-.59-.38-1.07-.72-1.43-.34-.36-.85-.54-1.54-.54Zm8.41-.16c-.09-.44-.03-.78.18-1.04s.46-.4.74-.43c.3-.02.58.07.85.25s.43.48.49.88c.09.95.18 1.98.28 3.1.1 1.12.18 2.31.25 3.57.07 1.26.13 2.57.17 3.93.04 1.36.07 2.73.07 4.11 0 .47-.13.83-.38 1.06s-.53.35-.83.35c-.3.02-.57-.09-.81-.33-.25-.24-.37-.6-.37-1.09 0-.68 0-1.36-.01-2.04 0-.67-.01-1.34-.01-1.98h-2.26c-.4 0-.71-.12-.91-.37-.2-.25-.29-.52-.28-.81 0-.28.1-.55.29-.8.19-.25.49-.38.89-.38h2.18c-.02-.47-.04-.94-.07-1.39-.03-.46-.05-.91-.07-1.37h-2.05c-.4 0-.71-.12-.91-.37-.2-.25-.29-.52-.28-.81 0-.28.1-.55.29-.8.19-.25.49-.38.89-.38h1.92c-.05-.49-.1-.97-.13-1.44s-.08-.95-.13-1.42Zm4.18-1c-.07-.46 0-.81.21-1.05.21-.25.46-.38.74-.42.3-.04.58.04.85.22s.44.48.51.88c.09.95.17 2.09.26 3.44s.17 2.79.24 4.33c.07 1.54.13 3.1.18 4.69.05 1.59.08 3.07.08 4.45 0 .47-.13.83-.38 1.08-.25.25-.53.37-.83.37-.31 0-.6-.12-.84-.35-.25-.24-.37-.6-.37-1.09 0-1.38-.02-2.83-.05-4.35-.04-1.51-.08-3.02-.13-4.5-.05-1.49-.12-2.89-.2-4.22a72.79 72.79 0 0 0-.28-3.48ZM111.48 34.91c-.02.63-.01 1.44.01 2.43s.07 2.04.12 3.14c.42.04.84.06 1.27.07s.88 0 1.35-.04c-.02-.67-.03-1.32-.04-1.97 0-.65-.01-1.24-.01-1.79-.02-.56-.03-1.05-.03-1.47v-.97c-.05-.47.03-.84.25-1.09.22-.25.48-.4.77-.43.28-.04.56.04.84.21.28.17.46.46.53.84v2.92c.02.65.03 1.34.03 2.09v2.25c0 .79 0 1.55-.01 2.27s-.01 1.41-.01 2.04c-.02.63-.04 1.19-.08 1.67s-.07.84-.1 1.09c-.16.47-.39.81-.68 1.02-.3.21-.69.34-1.18.39-.42.05-.74.09-.96.1-.22.02-.39.03-.51.03-.14.02-.27.02-.39 0s-.31-.05-.55-.11a5.02 5.02 0 0 1-.92-.21c-.26-.09-.49-.22-.68-.39-.19-.19-.36-.45-.5-.78-.14-.32-.25-.75-.31-1.27-.04-.11-.07-.34-.09-.71-.03-.37-.06-.82-.09-1.37-.04-.54-.07-1.15-.12-1.81a65.9 65.9 0 0 1-.09-2.05c-.04-.68-.07-1.37-.09-2.05-.03-.68-.05-1.3-.07-1.87-.02-.56-.03-1.04-.03-1.44s0-.68.03-.84c.03-.44.18-.76.45-.96s.54-.29.84-.28c.28.02.53.14.76.37.23.23.33.55.32.97Zm.26 7.91c.05 1.05.12 1.97.21 2.75s.17 1.28.26 1.51c.07.05.19.09.35.12.17.03.35.04.54.04.21.02.41.02.59 0s.34-.05.46-.1c.04-.32.06-.86.07-1.64 0-.78.01-1.65.01-2.61-.42.02-.84.02-1.25.01s-.83-.03-1.25-.07Zm8.35-8.59v4.39c0 .61 0 1.25.03 1.92.44.02.88.03 1.34.04.46 0 .92 0 1.39-.04-.02-.67-.03-1.32-.04-1.97 0-.65-.01-1.24-.01-1.79-.04-1.17-.04-1.99 0-2.44-.05-.47.03-.84.24-1.1.21-.26.46-.41.76-.45.3-.04.58.04.85.22s.44.47.51.85v1.19c0 .5 0 1.07.03 1.72 0 .65 0 1.34.01 2.09 0 .74.01 1.49.01 2.25s0 1.5-.01 2.23c0 .74-.02 1.42-.04 2.05-.02.63-.04 1.19-.07 1.67s-.06.84-.09 1.09c-.16.47-.39.81-.7 1.02-.31.21-.7.35-1.17.42-.44.04-.78.07-1.04.09-.25.03-.48.04-.67.04-.18 0-.35 0-.51-.03-.17-.02-.37-.05-.62-.11-.67-.1-1.2-.31-1.6-.6-.37-.28-.63-.95-.79-2.02-.04-.1-.06-.33-.08-.68-.02-.35-.04-.8-.05-1.34 0-.53 0-1.12-.03-1.77-.02-.66-.03-1.33-.03-2.04s0-1.4-.01-2.1-.01-1.37-.01-2v-1.69c0-.5 0-.91.03-1.22-.02-.46.1-.8.34-1.04s.52-.35.81-.35c.3.02.57.15.83.39.25.25.38.61.38 1.1Zm.08 8.62c.02 1.05.05 1.97.09 2.75.04.78.11 1.27.2 1.48.07.05.21.09.41.12.2.03.42.05.67.07.25 0 .48 0 .71-.03.23-.02.4-.05.53-.1.03-.32.06-.85.08-1.62.02-.76.03-1.64.03-2.64-.44.02-.89.02-1.35.01-.46 0-.92-.02-1.35-.04Zm7.15-8.75c-.07-.44 0-.78.21-1.04.21-.25.46-.4.74-.43.3-.03.58.04.85.22s.44.49.51.91c.09.95.17 2.09.26 3.44s.17 2.79.24 4.33.13 3.1.18 4.69.08 3.06.08 4.43c0 .47-.13.83-.39 1.08s-.54.37-.84.37-.57-.12-.83-.35-.38-.6-.38-1.09c0-1.21 0-2.45-.03-3.73s-.04-2.57-.08-3.89l-2.81.03c-.42 0-.73-.12-.92-.35s-.29-.5-.29-.8.1-.57.3-.81c.2-.25.5-.37.91-.37l2.71-.05c-.05-1.26-.11-2.45-.18-3.56-.07-1.11-.15-2.12-.24-3.01ZM142.45 39.38l-6.2.03c-.49.02-.85-.1-1.09-.34-.24-.25-.35-.52-.33-.81 0-.3.12-.57.35-.83.24-.25.59-.38 1.06-.38l6.17-.03c.46 0 .79.13 1.01.38s.32.52.3.8c0 .3-.11.57-.34.81-.23.25-.54.37-.95.37Zm-.58-4.31-5.36-.03c-.47.02-.83-.1-1.06-.34-.24-.25-.35-.51-.35-.79 0-.3.12-.57.35-.81.24-.24.59-.37 1.06-.37h5.33c.47 0 .81.12 1.02.37.21.25.31.52.31.81-.02.3-.14.57-.37.8s-.54.35-.95.35Zm-2.02 6.17c.65.02 1.27.13 1.85.33.59.2 1.1.5 1.54.91.46.4.81.9 1.08 1.48.26.59.4 1.27.42 2.06-.02.74-.15 1.39-.41 1.97-.25.58-.6 1.08-1.04 1.5-.44.4-.95.72-1.52.95-.58.23-1.19.33-1.84.32-.72 0-1.37-.09-1.96-.28a3.85 3.85 0 0 1-1.52-.88c-.43-.4-.76-.92-.99-1.56s-.33-1.41-.31-2.3c-.02-.61.1-1.19.37-1.73s.62-1.02 1.08-1.42c.44-.4.94-.72 1.51-.96a4.87 4.87 0 0 1 1.75-.38Zm.05 2.31c-.28.02-.56.07-.85.17-.29.1-.55.24-.77.43-.25.19-.44.44-.59.74-.15.3-.21.64-.2 1.02-.02 1 .19 1.69.63 2.08.44.38 1.05.58 1.84.58.74 0 1.33-.22 1.79-.66s.7-1.08.74-1.92c-.04-1-.32-1.65-.84-1.94-.51-.3-1.09-.46-1.73-.5Zm6.02-8.93c-.09-.46-.03-.81.18-1.05s.46-.39.76-.42c.3-.03.58.04.85.22s.44.48.51.88c.09.89.17 1.91.25 3.06.08 1.15.16 2.38.25 3.69h3.2c-.05-1.33-.12-2.6-.2-3.8-.08-1.2-.16-2.27-.25-3.22-.09-.46-.03-.81.18-1.05.21-.25.46-.38.76-.42.3-.04.58.04.85.22s.44.48.51.88c.09.95.17 2.09.26 3.44s.17 2.79.24 4.33.13 3.1.18 4.69c.05 1.59.08 3.07.08 4.45 0 .47-.13.83-.39 1.08-.26.25-.54.37-.84.37s-.57-.12-.83-.35-.38-.6-.38-1.09c0-1.12 0-2.29-.03-3.52-.02-1.23-.04-2.45-.08-3.68h-3.18c.05 1.1.09 2.22.12 3.35s.04 2.22.04 3.27c0 .47-.13.83-.38 1.08-.25.25-.53.37-.83.37-.31.02-.6-.09-.84-.33-.25-.24-.37-.61-.37-1.12 0-1.37-.02-2.75-.05-4.15-.04-1.4-.08-2.77-.13-4.1-.05-1.31-.12-2.58-.2-3.78-.08-1.21-.17-2.31-.28-3.31ZM165.88 49.54l-.03 2.65c0 .51-.13.88-.38 1.13-.25.25-.53.37-.83.37s-.57-.12-.83-.35-.38-.58-.38-1.04l-.03-2.68c-1.21.02-2.33.02-3.36 0-1.03-.02-1.83-.06-2.39-.13-.49-.05-.83-.21-1.02-.49-.19-.27-.26-.56-.21-.85.03-.3.17-.56.41-.78.24-.22.56-.3.96-.25.26.04.6.06 1.02.08.42.02.89.03 1.42.04s1.09.01 1.68.01h1.84c1.28-.02 2.57-.06 3.86-.12 1.3-.06 2.44-.15 3.44-.28.46-.07.81 0 1.05.22.25.22.38.48.42.77.03.3-.04.59-.22.87s-.49.45-.91.5c-.74.07-1.58.14-2.52.2-.95.06-1.94.1-3 .12Zm3.7-14.58h-4.23c.33.56.72 1.16 1.17 1.79.45.63.91 1.24 1.41 1.84.47.61.94 1.17 1.39 1.68.46.51.86.92 1.21 1.23.28.32.41.64.39.96-.02.32-.14.57-.37.75-.23.19-.52.29-.88.28-.36 0-.72-.19-1.09-.54-.35-.33-.76-.77-1.22-1.31-.46-.54-.92-1.1-1.38-1.68-.44-.59-.84-1.17-1.21-1.72s-.62-1.01-.76-1.38c-.12.46-.36.99-.71 1.59-.35.6-.74 1.19-1.16 1.77-.42.6-.84 1.15-1.25 1.66-.41.51-.73.89-.96 1.16-.28.38-.6.59-.97.63s-.69-.03-.97-.18c-.28-.16-.48-.38-.6-.66s-.07-.55.16-.81c.23-.17.57-.53 1.02-1.06s.94-1.14 1.44-1.83c.49-.68.96-1.39 1.41-2.13.45-.74.77-1.41.98-2.02h-4.05c-.49.02-.85-.1-1.09-.34s-.35-.51-.33-.79c0-.3.12-.57.35-.81s.59-.37 1.06-.37h11.22c.46 0 .79.12 1.01.37s.32.51.3.79c-.02.3-.14.56-.35.8-.22.24-.54.35-.96.35ZM180.78 33.81c.21.53.42 1.1.64 1.73.22.63.45 1.29.68 1.97.24.68.47 1.38.71 2.09s.47 1.41.7 2.09c.44 1.38.84 2.67 1.21 3.85.37 1.18.64 2.07.81 2.67.05.51-.02.89-.22 1.16-.2.26-.44.42-.72.47-.28.05-.56 0-.84-.18-.28-.17-.46-.46-.55-.84-.14-.58-.34-1.29-.59-2.13-.25-.84-.54-1.74-.85-2.71-.3-.95-.6-1.92-.91-2.93a99.87 99.87 0 0 1-.83-2.88c-.1.81-.26 1.74-.46 2.8-.2 1.06-.43 2.11-.7 3.17s-.53 2.01-.8 2.88c-.27.87-.52 1.49-.75 1.88-.25.46-.54.74-.89.84-.35.11-.67.09-.95-.05-.26-.12-.46-.35-.58-.67-.12-.32-.06-.7.18-1.12.28-.49.59-1.29.92-2.39.33-1.1.66-2.34.97-3.7.32-1.33.6-2.69.87-4.08.26-1.39.48-2.64.66-3.74.05-.35.17-.62.37-.8.19-.18.4-.29.63-.3.54-.03.97.28 1.29.95Zm8.59.18c-.09-.46-.03-.81.18-1.05.21-.25.46-.38.76-.42.28-.04.56.04.83.22.27.18.44.48.51.88.09.95.17 2.09.26 3.44s.17 2.79.24 4.33c.07 1.54.13 3.1.18 4.69.05 1.59.08 3.07.08 4.45 0 .47-.13.83-.38 1.08-.25.25-.53.37-.83.37s-.57-.12-.81-.35c-.25-.24-.37-.6-.37-1.09 0-1.38-.02-2.83-.05-4.35-.04-1.51-.08-3.02-.13-4.5s-.12-2.89-.2-4.22a72.79 72.79 0 0 0-.28-3.48ZM199.64 48.47c-.05-.86-.11-1.71-.18-2.56-.07-.85-.15-1.62-.24-2.3-.07-.46 0-.82.21-1.1.21-.28.46-.45.74-.5.3-.05.59.01.87.2.28.18.47.5.58.93l.21 2.57c.03.46.07.91.1 1.37.04.46.08.9.13 1.34 1.1-.04 2.21-.09 3.31-.16s2.16-.16 3.18-.26c.44-.07.78 0 1.04.22.25.22.4.47.43.75.04.3-.04.59-.22.87s-.49.45-.91.5c-.95.1-1.96.19-3.03.25-1.08.06-2.18.11-3.3.14-1.16.04-2.29.06-3.4.08s-2.18.03-3.19.03c-.47 0-.83-.12-1.08-.35-.25-.24-.37-.5-.37-.8s.12-.57.35-.81c.24-.25.6-.37 1.09-.37h1.76c.61 0 1.25 0 1.92-.03Zm6.86-6.23.1-3.76c.02-.68.02-1.34.01-1.97 0-.63-.02-1.16-.04-1.6h-9.82c-.49.02-.85-.09-1.09-.32-.24-.23-.35-.5-.33-.79 0-.28.12-.54.35-.78s.59-.36 1.06-.36h10.17c.74 0 1.24.15 1.52.45.28.3.45.76.5 1.39.02.52.03 1.13.03 1.82s0 1.4-.03 2.14c0 .73-.02 1.44-.05 2.11-.04.67-.06 1.24-.08 1.69-.04.47-.18.82-.45 1.04s-.53.32-.81.3c-.3 0-.56-.12-.79-.35s-.31-.56-.26-.98ZM33.28 65.96c.05.49.04 1.16-.04 2-.08.84-.22 1.68-.43 2.52-.28.88-.74 1.72-1.39 2.52-.65.81-1.34 1.46-2.08 1.97-.4.21-.77.28-1.1.2-.33-.08-.58-.23-.74-.46-.16-.21-.21-.47-.14-.79s.28-.61.64-.89c.56-.44 1.05-.93 1.47-1.47s.76-1.16 1.02-1.84c.17-.54.28-1.16.32-1.84.02-.35.03-.64.04-.87 0-.23 0-.41-.01-.55l-6.04.03c-.49.02-.85-.1-1.09-.34s-.35-.51-.33-.79c0-.3.12-.57.35-.81s.59-.37 1.06-.37h6.46c.74 0 1.23.14 1.5.43s.44.74.53 1.35Zm-4.1 12.79c0 .26 0 .54.01.81 0 .28.02.56.04.84.02.28.04.54.07.78.03.24.06.43.09.59.21.05.48.09.81.12.33.03.71.05 1.14.08.43.03.89.04 1.38.05.49 0 .99.01 1.5.01s.98 0 1.48-.01c.5 0 .97-.02 1.41-.03.44 0 .84-.02 1.2-.04s.65-.04.88-.08c.44-.02.78.09 1.02.31.25.23.38.5.39.81.02.3-.08.58-.29.85-.21.27-.55.43-1.02.49-.26 0-.59 0-.97.03-.39.02-.82.03-1.3.04-.48 0-.99.02-1.52.03s-1.07.01-1.62.01-1.11 0-1.64-.01-1.04-.02-1.51-.04-.9-.04-1.29-.05-.7-.04-.95-.08c-.26-.04-.53-.13-.79-.29-.26-.16-.5-.47-.71-.95-.05-.12-.1-.36-.14-.72-.04-.36-.07-.76-.09-1.2-.04-.44-.06-.87-.07-1.3 0-.43-.01-.78-.01-1.04 0-.49.13-.86.38-1.1.25-.25.54-.37.85-.37s.6.12.87.37.39.6.39 1.08Zm8.2-13.55c-.09-.46-.03-.81.18-1.06s.46-.4.76-.43c.28-.04.56.04.84.22.28.18.46.49.53.91l.34 4.12h2.36c.39 0 .68.12.88.37.2.25.3.52.3.81s-.1.57-.29.8c-.19.24-.49.35-.89.35h-2.23c.05.89.09 1.71.12 2.46s.04 1.37.04 1.88c0 .47-.13.83-.38 1.08-.25.25-.53.37-.83.37-.32.02-.6-.09-.84-.33-.25-.24-.37-.61-.37-1.12s0-1.18-.03-1.96c-.02-.78-.04-1.64-.08-2.59-.04-.91-.09-1.87-.16-2.88-.07-1.01-.16-2.01-.26-3.01ZM52.01 64.91c.31.54.67 1.16 1.05 1.84.38.68.77 1.39 1.16 2.13.38.74.75 1.46 1.09 2.17.34.71.63 1.35.88 1.93.1.44.07.78-.09 1.04s-.39.42-.67.49c-.26.07-.55.04-.85-.11-.31-.14-.54-.4-.7-.79-.18-.33-.4-.78-.67-1.34s-.55-1.13-.83-1.71c-.3-.58-.57-1.12-.81-1.62-.25-.5-.42-.88-.53-1.14-.14.42-.3.88-.49 1.39-.18.51-.38 1.02-.59 1.52-.21.51-.44 1.02-.68 1.52-.25.51-.48.97-.71 1.39-.25.44-.54.71-.89.83-.35.11-.67.11-.95-.01-.28-.12-.48-.35-.59-.67s-.04-.71.22-1.17c.25-.42.52-.95.83-1.6.31-.65.62-1.34.93-2.08.32-.74.61-1.44.89-2.11.28-.67.53-1.26.74-1.75.07-.25.21-.44.42-.58.21-.14.43-.22.66-.24a1.232 1.232 0 0 1 1.18.65Zm8.48 18.52c0-.56-.02-1.11-.05-1.66s-.09-1.01-.16-1.39c-.25 0-.55 0-.91.01l-1.2.03c-.44 0-.91.01-1.41.01h-4.45c-.93 0-1.62-.02-2.08-.05-.46-.02-.8-.16-1.02-.42-.23-.26-.34-.54-.34-.84-.02-.3.09-.57.32-.81.23-.25.58-.37 1.05-.37.23.04.53.06.91.07.38 0 .79.02 1.25.04.46.02.95.03 1.47.03h3.18c.53 0 1.02 0 1.48-.01.46 0 .89-.02 1.27-.03.38 0 .71-.02.97-.04.67 0 1.13.12 1.41.36.27.24.41.56.41.98.03.58.07 1.24.12 1.97.04.74.07 1.44.09 2.13-.04.47-.18.82-.42 1.04s-.51.32-.79.3c-.28 0-.53-.11-.76-.34s-.34-.56-.34-1Zm-.08-18.28c-.09-.46-.03-.81.18-1.06s.46-.4.74-.43c.3-.04.58.04.85.22s.44.49.51.91c.16 1.86.3 3.6.43 5.23s.2 2.99.2 4.1c0 .47-.13.83-.38 1.08-.25.25-.53.37-.83.37-.3.02-.57-.09-.81-.33-.25-.24-.37-.61-.37-1.12 0-1.05-.04-2.31-.1-3.77-.07-1.46-.21-3.19-.42-5.19ZM71.92 80.54l-.1-3.05c-.02-.47.1-.84.34-1.09.25-.25.51-.38.79-.38.3-.02.57.09.81.32.25.23.38.58.39 1.05l.16 3.07c.91-.04 1.82-.08 2.73-.13.91-.05 1.79-.13 2.63-.24.46-.07.81 0 1.05.22.25.22.38.48.42.78.03.3-.04.59-.22.87s-.48.45-.88.5c-.95.09-1.95.16-3.02.22s-2.15.12-3.26.17c-1.12.04-2.23.06-3.34.08-1.1.02-2.16.02-3.18 0-.47 0-.83-.12-1.08-.35-.25-.24-.37-.5-.37-.8s.12-.57.35-.81.61-.37 1.12-.37h2.22c.78 0 1.59-.02 2.43-.05Zm-3.18-13.98c-.04.63-.06 1.28-.08 1.96-.02.67-.03 1.32-.03 1.93.02.61.05 1.18.09 1.69.04.52.12.92.22 1.22.12.04.33.07.63.11.3.04.69.06 1.18.08.49.02 1 .03 1.54.04s1.08.01 1.64.01 1.12 0 1.67-.01 1.09-.02 1.62-.04c1.07-.02 1.81-.07 2.23-.16.47-.07.83 0 1.08.24.25.23.38.5.39.81.02.3-.08.6-.29.89-.21.3-.53.47-.97.53-.21.04-.52.06-.92.07-.4 0-.86.02-1.37.04s-1.06.03-1.64.04c-.59 0-1.18.01-1.77.01h-1.75c-.57 0-1.09 0-1.56-.03-.46 0-.85 0-1.18-.03-.33-.02-.56-.04-.68-.08-.35-.05-.66-.12-.92-.2-.26-.08-.49-.21-.68-.41-.19-.17-.35-.42-.49-.75s-.23-.76-.3-1.3c-.05-.18-.09-.52-.12-1.03s-.05-1.08-.07-1.73v-1.98c0-.69.02-1.32.05-1.88 0-.84.2-1.46.59-1.85.39-.39 1.09-.59 2.09-.59l9.85.08c.46 0 .8.12 1.02.37.23.25.34.51.34.79 0 .3-.12.57-.35.8-.24.24-.57.35-1.01.35H68.73ZM96.8 64.91c.31.54.67 1.16 1.05 1.84.38.68.77 1.39 1.16 2.13.38.74.75 1.46 1.09 2.17.34.71.63 1.35.88 1.93.1.44.07.78-.09 1.04s-.39.42-.67.49c-.26.07-.55.04-.85-.11-.31-.14-.54-.4-.7-.79-.18-.33-.4-.78-.67-1.34s-.55-1.13-.83-1.71c-.3-.58-.57-1.12-.81-1.62-.25-.5-.42-.88-.53-1.14-.14.42-.3.88-.49 1.39-.18.51-.38 1.02-.59 1.52-.21.51-.44 1.02-.68 1.52-.25.51-.48.97-.71 1.39-.25.44-.54.71-.89.83-.35.11-.67.11-.95-.01-.28-.12-.48-.35-.59-.67s-.04-.71.22-1.17c.25-.42.52-.95.83-1.6.31-.65.62-1.34.93-2.08.32-.74.61-1.44.89-2.11.28-.67.53-1.26.74-1.75.07-.25.21-.44.42-.58.21-.14.43-.22.66-.24a1.232 1.232 0 0 1 1.18.65Zm-.89 13.84c0 .26 0 .54.01.81 0 .28.02.56.04.84.02.28.04.54.07.78.03.24.06.43.09.59.21.05.48.09.81.12.33.03.71.05 1.14.08.43.03.89.04 1.38.05.49 0 .99.01 1.5.01s.98 0 1.48-.01c.5 0 .97-.02 1.41-.03.44 0 .84-.02 1.2-.04s.65-.04.88-.08c.44-.02.78.09 1.02.31.25.23.38.5.39.81.02.3-.08.58-.29.85-.21.27-.55.43-1.02.49-.26 0-.59 0-.97.03-.39.02-.82.03-1.3.04-.48 0-.99.02-1.52.03s-1.07.01-1.62.01-1.11 0-1.64-.01-1.04-.02-1.51-.04-.9-.04-1.29-.05-.7-.04-.95-.08c-.26-.04-.53-.13-.79-.29-.26-.16-.5-.47-.71-.95-.05-.12-.1-.36-.14-.72-.04-.36-.07-.76-.09-1.2-.04-.44-.06-.87-.07-1.3 0-.43-.01-.78-.01-1.04 0-.49.13-.86.38-1.1.25-.25.54-.37.85-.37s.6.12.87.37.39.6.39 1.08Zm9.43-13.55c-.09-.46-.03-.81.18-1.06s.46-.4.76-.43.58.04.85.22.44.49.51.91c.09.95.17 1.93.25 2.97.08 1.03.14 2.03.2 3 .07 1 .12 1.92.16 2.76.03.84.05 1.53.05 2.08 0 .47-.13.83-.38 1.08-.25.25-.53.37-.83.37-.32.02-.6-.09-.84-.33s-.37-.61-.37-1.12c0-.63-.01-1.43-.04-2.39-.03-.96-.07-2.01-.12-3.13h-2.5c-.4 0-.71-.12-.91-.37s-.29-.52-.28-.81c0-.28.1-.55.29-.8.19-.25.49-.38.89-.38h2.34c-.04-.42-.07-.84-.11-1.27-.04-.43-.08-.85-.13-1.27ZM124.83 81.62c-.35.07-.76.13-1.23.18-.47.05-.98.1-1.54.13-.55.04-1.13.07-1.75.09-.61.03-1.23.04-1.84.04-.61.02-1.21.03-1.8.03s-1.13 0-1.64-.01c-.51 0-.96-.02-1.35-.04s-.7-.04-.91-.08c-.07.24-.09.52-.05.83 0 .15 0 .3.01.44 0 .14.01.27.01.39.75.05 1.68.1 2.78.13s2.23.05 3.39.05c1.16.02 2.23 0 3.22-.03.99-.04 1.76-.1 2.3-.18.42-.04.74.05.97.25.23.2.35.45.37.73.03.3-.05.58-.26.85-.21.27-.53.44-.97.53-.3.04-.67.06-1.1.08-.44.02-.96.03-1.58.05-.6.02-1.2.03-1.83.04-.62 0-1.26.01-1.9.01a87.5 87.5 0 0 1-3.73-.08c-.58-.02-1.07-.04-1.48-.05-.41-.02-.74-.04-.98-.08-.4-.05-.71-.2-.92-.45-.21-.25-.37-.5-.47-.76-.09-.23-.15-.51-.18-.85-.04-.34-.05-.7-.05-1.06s0-.72.03-1.05c.02-.33.03-.59.05-.79.02-.17.04-.35.08-.54.03-.18.1-.34.2-.47.1-.13.23-.24.39-.33.17-.09.4-.13.7-.13.67.12 1.52.21 2.56.25 1.04.04 2.14.07 3.3.07 1.12-.02 2.22-.05 3.28-.11 1.07-.05 1.97-.13 2.71-.24-.02-.07-.02-.16-.01-.25s.01-.2.01-.31 0-.22-.03-.35c-.02-.12-.04-.26-.05-.4-.58.02-1.39.03-2.44.03h-3.31c-1.16 0-2.28 0-3.36-.01-1.09 0-1.95-.02-2.6-.04-.46 0-.79-.13-1-.38-.21-.25-.31-.53-.31-.84 0-.29.11-.56.33-.8.22-.24.55-.36.99-.36.59.04 1.42.06 2.48.08 1.06.02 2.19.04 3.4.05h3.51c1.13 0 2.06-.02 2.8-.05.16 0 .32 0 .49.03.17.02.33.06.49.13.16.07.3.18.42.33.12.15.21.35.26.62.03.25.07.56.09.95.03.39.04.77.04 1.16.02.39.02.74.01 1.05 0 .32-.01.54-.01.66-.04.33-.16.56-.37.68s-.4.19-.58.21Zm.26-10.19c.46-.05.8.04 1.04.26.24.23.37.49.41.79.02.3-.07.58-.26.85s-.49.42-.89.46c-.4.04-.83.06-1.27.08-.45.02-.92.04-1.41.05-.47.02-.96.04-1.47.05s-1.02.03-1.55.03l-.03 1.5c-.02.44-.15.76-.39.96-.25.2-.52.29-.81.28-.3-.02-.57-.14-.81-.35-.25-.22-.36-.53-.34-.93l-.03-1.42c-1 0-1.97-.01-2.92-.04s-1.81-.07-2.6-.14c-.47-.02-.83-.15-1.06-.39s-.35-.52-.33-.81c0-.28.12-.54.37-.78s.61-.35 1.1-.35c.95.09 1.98.14 3.1.17s2.27.03 3.44.01c1.17 0 2.34-.02 3.49-.07 1.16-.04 2.23-.11 3.23-.2Zm-12.58-8.69h10.61c.37 0 .67.03.91.08s.43.14.58.28c.15.13.26.32.34.55s.14.54.2.91c.03.65.03 1.26 0 1.84v.83c0 .25 0 .49.03.7 0 .47-.19.87-.56 1.2-.38.32-.91.51-1.59.56-.23.02-.52.04-.87.05s-.77.04-1.26.05-.99.03-1.5.03h-3.06c-.48 0-.95 0-1.41-.03-.46-.02-.82-.03-1.1-.04-.28 0-.48-.03-.6-.07-.7-.1-1.24-.34-1.62-.7-.38-.36-.64-.88-.8-1.56-.1-.42-.15-.91-.13-1.46.02-.55.05-1.12.1-1.72 0-.42.16-.78.49-1.08.32-.3.74-.44 1.25-.42Zm.87 4.49c.33.09.92.16 1.76.21.44.02.89.03 1.35.04.46 0 .95.01 1.46.01s.98 0 1.48-.01.96-.03 1.39-.05c.43-.03.81-.05 1.14-.08.33-.03.6-.07.79-.12.02-.12.03-.28.03-.47v-.6c-.02-.21-.04-.41-.05-.6-.02-.19-.03-.37-.03-.53l-9.51.03c0 .26 0 .5-.03.7-.02.2-.02.39 0 .56 0 .18.01.34.04.49s.08.29.17.43ZM136.15 70.9l-6.2.03c-.49.02-.85-.1-1.09-.34-.24-.25-.35-.52-.33-.81 0-.3.12-.57.35-.83.24-.25.59-.38 1.06-.38l6.17-.03c.46 0 .79.13 1.01.38s.32.52.3.8c0 .3-.11.57-.34.81-.23.25-.54.37-.95.37Zm-.58-4.31-5.36-.03c-.47.02-.83-.1-1.06-.34-.24-.25-.35-.51-.35-.79 0-.3.12-.57.35-.81.24-.24.59-.37 1.06-.37h5.33c.47 0 .81.12 1.02.37.21.25.31.52.31.81-.02.3-.14.57-.37.8s-.54.35-.95.35Zm-2.02 6.17c.65.02 1.27.13 1.85.33.59.2 1.1.5 1.54.91.46.4.81.9 1.08 1.48.26.59.4 1.27.42 2.06-.02.74-.15 1.39-.41 1.97-.25.58-.6 1.08-1.04 1.5-.44.4-.95.72-1.52.95-.58.23-1.19.33-1.84.32-.72 0-1.37-.09-1.96-.28a3.85 3.85 0 0 1-1.52-.88c-.43-.4-.76-.92-.99-1.56s-.33-1.41-.31-2.3c-.02-.61.1-1.19.37-1.73s.62-1.02 1.08-1.42c.44-.4.94-.72 1.51-.96a4.87 4.87 0 0 1 1.75-.38Zm.05 2.31c-.28.02-.56.07-.85.17-.29.1-.55.24-.77.43-.25.19-.44.44-.59.74-.15.3-.21.64-.2 1.02-.02 1 .19 1.69.63 2.08.44.38 1.05.58 1.84.58.74 0 1.33-.22 1.79-.66s.7-1.08.74-1.92c-.04-1-.32-1.65-.84-1.94-.51-.3-1.09-.46-1.73-.5Zm6.02-8.93c-.09-.46-.03-.81.18-1.05s.46-.39.76-.42c.3-.03.58.04.85.22s.44.48.51.88c.09.89.17 1.91.25 3.06.08 1.15.16 2.38.25 3.69h3.2c-.05-1.33-.12-2.6-.2-3.8-.08-1.2-.16-2.27-.25-3.22-.09-.46-.03-.81.18-1.05.21-.25.46-.38.76-.42.3-.04.58.04.85.22s.44.48.51.88c.09.95.17 2.09.26 3.44s.17 2.79.24 4.33.13 3.1.18 4.69c.05 1.59.08 3.07.08 4.45 0 .47-.13.83-.39 1.08-.26.25-.54.37-.84.37s-.57-.12-.83-.35-.38-.6-.38-1.09c0-1.12 0-2.29-.03-3.52-.02-1.23-.04-2.45-.08-3.68h-3.18c.05 1.1.09 2.22.12 3.35s.04 2.22.04 3.27c0 .47-.13.83-.38 1.08-.25.25-.53.37-.83.37-.31.02-.6-.09-.84-.33-.25-.24-.37-.61-.37-1.12 0-1.37-.02-2.75-.05-4.15-.04-1.4-.08-2.77-.13-4.1-.05-1.31-.12-2.58-.2-3.78-.08-1.21-.17-2.31-.28-3.31ZM159.58 81.07l-.03 2.65c0 .51-.13.88-.38 1.13-.25.25-.53.37-.83.37s-.57-.12-.83-.35-.38-.58-.38-1.04l-.03-2.68c-1.21.02-2.33.02-3.36 0-1.03-.02-1.83-.06-2.39-.13-.49-.05-.83-.21-1.02-.49-.19-.27-.26-.56-.21-.85.03-.3.17-.56.41-.78.24-.22.56-.3.96-.25.26.04.6.06 1.02.08.42.02.89.03 1.42.04s1.09.01 1.68.01h1.84c1.28-.02 2.57-.06 3.86-.12 1.3-.06 2.44-.15 3.44-.28.46-.07.81 0 1.05.22.25.22.38.48.42.77.03.3-.04.59-.22.87s-.49.45-.91.5c-.74.07-1.58.14-2.52.2-.95.06-1.94.1-3 .12Zm3.7-14.58h-4.23c.33.56.72 1.16 1.17 1.79.45.63.91 1.24 1.41 1.84.47.61.94 1.17 1.39 1.68.46.51.86.92 1.21 1.23.28.32.41.64.39.96-.02.32-.14.57-.37.75-.23.19-.52.29-.88.28-.36 0-.72-.19-1.09-.54-.35-.33-.76-.77-1.22-1.31-.46-.54-.92-1.1-1.38-1.68-.44-.59-.84-1.17-1.21-1.72s-.62-1.01-.76-1.38c-.12.46-.36.99-.71 1.59-.35.6-.74 1.19-1.16 1.77-.42.6-.84 1.15-1.25 1.66-.41.51-.73.89-.96 1.16-.28.38-.6.59-.97.63s-.69-.03-.97-.18c-.28-.16-.48-.38-.6-.66s-.07-.55.16-.81c.23-.17.57-.53 1.02-1.06s.94-1.14 1.44-1.83c.49-.68.96-1.39 1.41-2.13.45-.74.77-1.41.98-2.02h-4.05c-.49.02-.85-.1-1.09-.34s-.35-.51-.33-.79c0-.3.12-.57.35-.81s.59-.37 1.06-.37h11.22c.46 0 .79.12 1.01.37s.32.51.3.79c-.02.3-.14.56-.35.8-.22.24-.54.35-.96.35ZM174.16 65.33c.4 1.07.79 2.31 1.17 3.72.38 1.41.72 2.81 1.04 4.19.16.7.3 1.38.43 2.04.13.66.25 1.27.37 1.83.11.56.22 1.07.31 1.52.1.46.17.82.22 1.1.05.51-.01.89-.2 1.16s-.41.42-.67.47c-.28.05-.55 0-.81-.18-.26-.17-.44-.46-.53-.84-.09-.67-.22-1.48-.39-2.44-.18-.96-.38-1.97-.6-3.02-.21-1.02-.42-2-.64-2.94-.22-.95-.4-1.73-.54-2.36-.16.89-.35 1.88-.56 2.96-.22 1.08-.44 2.14-.67 3.19-.25 1.05-.49 2-.75 2.85s-.5 1.47-.72 1.85c-.25.46-.54.74-.88.84-.34.11-.64.09-.91-.05-.26-.12-.45-.35-.55-.67-.11-.32-.04-.7.21-1.12.28-.49.58-1.29.91-2.39.32-1.1.64-2.34.96-3.7a112.21 112.21 0 0 0 1.55-7.82c.05-.35.17-.62.35-.8.18-.18.39-.29.62-.3.54-.03.97.28 1.29.95Zm5.91.81c-.09-.46-.03-.81.18-1.05s.46-.39.76-.42c.28-.03.56.04.84.22.28.18.45.48.5.88.09.95.17 2 .26 3.17s.17 2.4.24 3.72c.07 1.31.13 2.67.18 4.06.05 1.39.08 2.78.08 4.16 0 .47-.13.83-.38 1.06s-.53.35-.83.35c-.31.02-.6-.09-.84-.33-.25-.24-.37-.6-.37-1.09 0-1.16 0-2.28-.03-3.38-.02-1.09-.04-2.17-.08-3.22h-2.68c-.4 0-.71-.12-.91-.36-.2-.24-.29-.5-.28-.8 0-.3.1-.57.29-.81.19-.25.49-.37.89-.37h2.57c-.05-1.05-.11-2.06-.18-3.02-.07-.96-.15-1.89-.24-2.78Zm4.81-.63c-.07-.46 0-.81.21-1.05s.46-.38.74-.42c.3-.04.58.04.85.22s.44.48.51.88c.09.95.17 2.09.26 3.44s.17 2.79.24 4.33c.07 1.54.13 3.1.18 4.69.05 1.59.08 3.07.08 4.45 0 .47-.13.83-.38 1.08-.25.25-.53.37-.83.37-.31 0-.6-.12-.84-.35-.25-.24-.37-.6-.37-1.09 0-1.38-.02-2.83-.05-4.35s-.08-3.02-.13-4.5-.12-2.89-.2-4.22a72.79 72.79 0 0 0-.28-3.48ZM193.25 80.62l-.03-2.08c-.02-.47.1-.84.34-1.09.25-.25.51-.38.79-.38.3-.02.57.09.81.32.24.23.38.58.39 1.05l.05 2.18c.61 0 1.24 0 1.88-.01.64 0 1.28-.03 1.93-.07l-.03-2c-.02-.47.1-.84.34-1.09.25-.25.51-.38.79-.38.3-.02.57.09.81.32s.38.58.39 1.05l.05 2c.37-.02.73-.04 1.08-.07.35-.03.7-.07 1.05-.12.46-.07.81 0 1.05.22.25.22.38.47.42.75.03.3-.04.59-.22.87s-.48.45-.88.5c-.95.1-1.95.18-3.02.24-1.07.05-2.15.09-3.26.1-1.12.04-2.23.05-3.34.05s-2.16 0-3.18-.03c-.47 0-.83-.12-1.08-.35-.25-.24-.37-.5-.37-.8s.12-.57.35-.81.61-.37 1.12-.37h1.73Zm4.39-16.16c1.96.09 3.54.65 4.73 1.68 1.21 1.01 1.83 2.52 1.86 4.51 0 .82-.15 1.57-.45 2.25-.3.68-.74 1.27-1.34 1.77-.6.5-1.33.88-2.19 1.15-.87.27-1.86.41-2.98.41-1 0-1.91-.08-2.73-.25-.82-.17-1.54-.46-2.15-.88-.61-.42-1.09-.99-1.43-1.7-.34-.72-.5-1.63-.49-2.75-.02-1.15.18-2.13.6-2.92s.97-1.43 1.65-1.9a6.61 6.61 0 0 1 2.3-1.05c.85-.21 1.72-.31 2.61-.31Zm.08 2.26c-1.4 0-2.56.35-3.47 1.05-.91.7-1.36 1.64-1.34 2.81 0 1.26.42 2.14 1.26 2.63.86.51 1.91.74 3.15.71 1.42.02 2.52-.26 3.3-.84.78-.58 1.14-1.47 1.09-2.68 0-.54-.1-1.04-.29-1.5-.19-.46-.46-.84-.8-1.17s-.76-.57-1.26-.75a5.08 5.08 0 0 0-1.64-.26Z"/></svg>