<?xml version="1.0" encoding="UTF-8"?><svg id="b" xmlns="http://www.w3.org/2000/svg" viewBox="0 0 24.94 15.85"><defs><style>.d{fill:#fff;}</style></defs><g id="c"><path class="d" d="M0,7.93C-.15,3.85,3.43,.07,7.52,.02c2.08-.18,4.11,.63,5.69,1.95-.65,.71-1.31,1.41-2.01,2.07-1.39-.84-3.06-1.49-4.68-.92-2.62,.75-4.2,3.84-3.23,6.4,.8,2.67,4.06,4.14,6.6,3.02,1.32-.47,2.19-1.69,2.57-3-1.51-.03-3.03-.01-4.54-.05,0-.9,0-1.8,0-2.7,2.52,0,5.05-.01,7.58,.01,.16,2.21-.17,4.57-1.6,6.34-1.96,2.53-5.59,3.27-8.54,2.28C2.21,14.4-.06,11.24,0,7.93h0Zm20.41-3.4h2.25c0,.75,.01,1.51,.02,2.26,.75,0,1.51,.01,2.26,.02v2.25h-2.26c0,.77-.01,1.52-.02,2.28-.75,0-1.51,0-2.25,0,0-.76,0-1.51-.02-2.26-.75,0-1.51-.01-2.26-.02v-2.25c.75,0,1.51,0,2.26-.02,0-.75,.01-1.51,.02-2.26Z"/></g></svg>