<?xml version="1.0" encoding="UTF-8"?><svg id="uuid-4cf79ddf-56f8-4a0a-a67b-646cba894cc0" xmlns="http://www.w3.org/2000/svg" viewBox="0 0 20.34 18.35"><defs><style>.uuid-23d432d9-402a-4385-9be2-4dd46ccb6020{fill:#d20000;}</style></defs><g id="uuid-d579cb1c-84dc-4088-bc09-c7094c46bba0"><path class="uuid-23d432d9-402a-4385-9be2-4dd46ccb6020" d="M19.04,2.13c-.46-.62-1.7-1.76-3.41-2.05-.41-.07-1.5-.2-2.73,.16-1.08,.32-2,.91-2.74,1.78C8.07-.33,5.36,.06,4.55,.24c-1.44,.33-2.52,1.02-3.32,2.14C.26,3.72-.14,5.22,.04,6.84c.12,1.11,.5,2.24,1.14,3.37,.95,1.69,2.69,3.53,5.18,5.48,1.73,1.36,3.25,2.31,3.42,2.41l.39,.24,.39-.24c.18-.11,1.79-1.1,3.59-2.52,2.58-2.03,4.32-3.93,5.17-5.66,1.45-2.97,1.36-5.6-.27-7.8Z"/></g></svg>