<?xml version="1.0" encoding="UTF-8"?><svg id="uuid-df98090e-54ed-423a-89a0-a648d99e13fa" xmlns="http://www.w3.org/2000/svg" viewBox="0 0 20.9 18.85"><defs><style>.uuid-106efe8f-0e9e-4e2f-960b-8d0ce5e571cd{fill:#fff;}</style></defs><g id="uuid-7c8fbb7c-120c-4c95-849c-db8644c76735"><path class="uuid-106efe8f-0e9e-4e2f-960b-8d0ce5e571cd" d="M10.44,18.85l-.4-.24c-.18-.11-1.74-1.08-3.52-2.48-2.55-2-4.34-3.9-5.32-5.64C.56,9.33,.16,8.17,.04,7.03c-.18-1.67,.23-3.21,1.21-4.58C2.08,1.3,3.2,.58,4.67,.25c.83-.19,3.62-.59,5.76,1.82,.76-.89,1.7-1.5,2.82-1.82,1.27-.37,2.39-.24,2.81-.17,1.76,.3,3.03,1.47,3.51,2.11h0c1.68,2.27,1.78,4.96,.28,8.02-.87,1.77-2.65,3.73-5.31,5.82-1.85,1.46-3.51,2.48-3.69,2.59l-.4,.24ZM6.03,.92c-.52,0-.94,.07-1.18,.13-1.27,.29-2.23,.9-2.93,1.88-.87,1.21-1.22,2.56-1.07,4.02,.11,1.03,.47,2.09,1.07,3.15,.93,1.64,2.65,3.46,5.11,5.39,1.68,1.32,3.16,2.25,3.41,2.41,.28-.17,1.84-1.14,3.58-2.52,2.56-2.01,4.27-3.87,5.08-5.53,1.35-2.76,1.28-5.17-.2-7.17h0c-.4-.54-1.49-1.53-2.99-1.79-.37-.06-1.34-.18-2.44,.15-1.1,.32-2.01,.97-2.71,1.93l-.32,.44-.33-.44C8.82,1.27,7.18,.92,6.03,.92Z"/></g></svg>