<?xml version="1.0" encoding="UTF-8"?><svg id="uuid-953579d2-4b13-42a2-814e-ef3955ea1ed3" xmlns="http://www.w3.org/2000/svg" viewBox="0 0 20.34 18.35"><g id="uuid-72380516-7669-4a2f-b026-7b13857b5099"><path d="M14.63,2c.31,0,.55,.03,.66,.05,1.13,.19,1.95,1.01,2.15,1.27,.75,1.01,1.57,2.7,.08,5.73-.49,1-1.69,2.67-4.61,4.97-1.09,.86-2.11,1.55-2.74,1.96-.61-.4-1.56-1.06-2.58-1.86-2.24-1.76-3.86-3.45-4.67-4.89-.5-.89-.8-1.77-.89-2.6-.12-1.14,.14-2.14,.82-3.08,.52-.72,1.18-1.14,2.15-1.36,.15-.03,.47-.09,.88-.09,1.11,0,2.05,.42,2.78,1.25l1.52,1.71,1.49-1.74c.49-.57,1.07-.95,1.78-1.15,.37-.11,.77-.16,1.18-.16m0-2c-.49,0-1.09,.05-1.74,.24-1.08,.32-2,.91-2.74,1.78C8.75,.44,7.07,.1,5.87,.1c-.59,0-1.06,.08-1.33,.14-1.44,.33-2.52,1.02-3.32,2.14C.26,3.72-.14,5.22,.04,6.84c.12,1.11,.5,2.24,1.14,3.37,.95,1.69,2.69,3.53,5.18,5.48,1.73,1.36,3.25,2.31,3.42,2.41l.39,.24,.39-.24c.18-.11,1.79-1.1,3.59-2.52,2.58-2.03,4.32-3.93,5.17-5.66,1.46-2.97,1.36-5.6-.27-7.8-.46-.62-1.7-1.76-3.41-2.05-.2-.03-.55-.08-1-.08h0Z"/></g></svg>