<?xml version="1.0" encoding="UTF-8"?><svg id="b" xmlns="http://www.w3.org/2000/svg" viewBox="0 0 26.54 24.22"><defs><style>.d{fill:#0c0d0e;}</style></defs><g id="c"><path class="d" d="M13.25,24.22l-.89-.54c-.08-.05-2.04-1.26-4.27-3.01-3.12-2.46-5.33-4.8-6.55-6.96C.71,12.23,.21,10.74,.05,9.27-.18,7.08,.35,5.05,1.65,3.25,2.75,1.72,4.24,.76,6.2,.32c.99-.23,4.28-.72,7.04,1.81,.89-.84,1.95-1.45,3.15-1.79,1.67-.48,3.15-.31,3.71-.22,2.35,.41,4.05,1.97,4.69,2.83,2.2,2.96,2.34,6.46,.41,10.39-1.09,2.22-3.29,4.65-6.56,7.21-2.25,1.77-4.26,3.01-4.48,3.14l-.9,.54ZM8,1.72c-.65,0-1.16,.09-1.45,.16-1.56,.36-2.74,1.11-3.6,2.31-1.06,1.47-1.5,3.13-1.3,4.92,.13,1.25,.57,2.54,1.3,3.82,1.12,1.98,3.18,4.16,6.14,6.49,2.16,1.7,4.04,2.86,4.12,2.9l.06,.04,.07-.04c.21-.13,2.14-1.32,4.32-3.03,3.07-2.41,5.13-4.65,6.11-6.66,1.64-3.35,1.55-6.29-.26-8.73h0c-.46-.62-1.82-1.88-3.68-2.21-.45-.08-1.65-.21-2.99,.18-1.17,.34-2.17,.99-2.97,1.93l-.6,.7-.61-.69c-1.52-1.71-3.35-2.08-4.65-2.08Z"/></g></svg>