<?xml version="1.0" encoding="UTF-8"?><svg id="uuid-34edffc3-309c-4800-b1e2-7cfc8c672380" xmlns="http://www.w3.org/2000/svg" viewBox="0 0 221.61 44.11"><defs><style>.uuid-5ef46de5-d25b-46e8-93ed-0635de27bcc1{fill:#fff;}.uuid-9e0c1ab2-524d-4118-9249-d0532730c508{fill:#ffb700;}.uuid-207842e3-a804-4864-8f24-9b370390d317{fill:#fdf4d5;}.uuid-445c32a1-7e11-4914-be14-3c30dd7b5d31{fill:#343434;}</style></defs><g id="uuid-c83def1a-9bfd-4a52-b054-6a5b3fc4f35f"><g><g><path class="uuid-445c32a1-7e11-4914-be14-3c30dd7b5d31" d="M7.44,26.96c-.34,.06-.72,.09-1.12,.11-.41,.01-.8,.01-1.19,0-.37,0-.72-.02-1.05-.06-.25-.03-.47-.07-.65-.12-.03-.1-.06-.25-.08-.51-.04-.34-.07-.74-.1-1.21-.03-.47-.06-.99-.08-1.55-.02-.56-.05-1.14-.08-1.73l-.07-3.35v-1.28c0-.35,0-.61,.02-.81,0-.45-.14-.81-.42-1.06-.56-.5-1.28-.47-1.82,.01-.28,.26-.43,.63-.43,1.06-.02,.14-.02,.39-.02,.75l.04,2.91c.01,.59,.04,1.2,.07,1.82,.01,.62,.03,1.23,.06,1.8,.02,.58,.05,1.11,.08,1.58,.03,.48,.06,.88,.08,1.2,.03,.4,.06,.56,.08,.65,.06,.47,.15,.85,.27,1.14,.13,.31,.29,.56,.48,.73,.19,.2,.43,.34,.69,.43,.24,.08,.52,.14,.81,.19,.23,.05,.53,.08,.92,.08,.36,0,.76,.01,1.18,.01h.03c.45-.01,.89-.03,1.34-.06,.45-.02,.85-.05,1.23-.08,.45-.07,.79-.26,1.01-.57,.22-.3,.32-.62,.3-.95-.02-.35-.16-.64-.43-.88-.27-.24-.66-.33-1.15-.26Z"/><path class="uuid-445c32a1-7e11-4914-be14-3c30dd7b5d31" d="M17.32,22.46c-.06-1.31-.13-2.53-.2-3.67-.07-1.14-.15-2.12-.23-2.94-.07-.42-.26-.73-.56-.94-.29-.19-.6-.28-.92-.24-.32,.04-.6,.19-.83,.46-.24,.28-.31,.66-.22,1.11,.07,.71,.14,1.53,.21,2.46,.06,.84,.11,1.71,.15,2.62h-1.83l-.38-4.6c-.07-.42-.27-.74-.57-.94-.29-.19-.59-.29-.9-.26-.33,.04-.61,.2-.84,.47-.23,.28-.31,.65-.22,1.11,.18,1.67,.31,3.55,.41,5.56,.1,2.02,.14,4.23,.14,6.55,0,.49,.13,.88,.4,1.13,.25,.24,.54,.36,.85,.36,.33,0,.68-.11,.97-.38,.27-.26,.41-.63,.41-1.11,0-.95-.01-1.9-.04-2.85l-.08-2.48h1.77c.03,1.02,.05,2.05,.07,3.09,.02,1.14,.03,2.22,.03,3.24,0,.49,.13,.88,.4,1.13,.26,.25,.57,.38,.91,.38s.63-.13,.9-.39c.27-.26,.41-.64,.41-1.12,0-1.14-.02-2.42-.07-3.78-.05-1.34-.1-2.67-.16-3.97Z"/><path class="uuid-445c32a1-7e11-4914-be14-3c30dd7b5d31" d="M29.03,24.92c.55,0,1.09,0,1.63-.02,.54-.02,1.02-.04,1.46-.07,.17-.02,.35-.04,.53-.08,.18-.04,.38-.1,.59-.18,.34-.13,.74-.44,.74-1.2-.01-.1-.02-.25-.02-.46,0-.23,0-.53-.02-.88v-1.12c0-.38,0-.78-.02-1.19l-.04-2.35v-1.5c-.02-.36-.18-.65-.47-.85-.52-.36-1.23-.38-1.76,.05-.28,.23-.41,.57-.39,1.02v.86c0,.22,0,.48,.01,.76,0,.19,.01,.39,.02,.59h-2.21c-.7,0-1.42,0-2.18-.02v-1.21c0-.55,.01-.74,.02-.86-.04-.48-.2-.84-.48-1.09-.56-.48-1.27-.47-1.78,0-.28,.25-.41,.58-.38,.95-.02,.13-.03,.32-.03,.58v3.31l.04,2.29c.02,.95,.1,1.2,.16,1.29,.2,.46,.44,.77,.71,.94,.26,.17,.53,.26,.78,.28,.42,.06,.89,.1,1.44,.14,.53,.03,1.08,.04,1.65,.04Zm2.31-3.14v.49h0c-.31,.04-.66,.06-1.03,.08-.5,.02-.98,.03-1.45,.03-.47-.01-.9-.04-1.29-.07-.29-.02-.48-.05-.6-.08,0-.09-.02-.24-.03-.48-.01-.33-.02-.71-.02-1.14,.3,0,.61,.02,.92,.02,.42,0,.85,.01,1.24,.01,.73,.03,1.48,.03,2.23,0v.47c0,.25,0,.48,.02,.66Z"/><path class="uuid-445c32a1-7e11-4914-be14-3c30dd7b5d31" d="M40.59,18.78h-1.72c-.02-.18-.03-.37-.05-.55-.02-.28-.05-.57-.08-.88l-.09-.87c-.03-.3-.05-.6-.07-.94-.07-.44-.27-.76-.57-.96-.29-.19-.61-.27-.91-.23-.33,.04-.61,.2-.84,.47-.23,.28-.31,.66-.22,1.13,.18,1.67,.29,3.14,.35,4.36,.06,1.26,.09,2.3,.09,3.18,0,.51,.13,.9,.4,1.15,.25,.24,.54,.36,.85,.36,.34,0,.68-.12,.97-.4,.27-.26,.41-.64,.41-1.12,0-.34,0-.72-.02-1.13-.01-.32-.03-.65-.05-1h1.54c.43,0,.76-.14,.98-.41,.2-.25,.31-.54,.31-.86s-.11-.61-.32-.87c-.23-.28-.55-.42-.97-.42Z"/><path class="uuid-445c32a1-7e11-4914-be14-3c30dd7b5d31" d="M39.39,29.1c-.03-.46-.07-.92-.11-1.37-.05-.45-.09-.83-.14-1.15-.07-.42-.27-.74-.57-.94-.29-.19-.6-.27-.93-.23-.33,.04-.61,.2-.84,.47-.25,.29-.32,.67-.24,1.09v.21c-.46,.01-.95,.03-1.47,.05-.64,.02-1.29,.04-1.96,.06-.66,.03-1.31,.05-1.94,.07-.52,.01-1,.02-1.43,.02l-.02-.2c-.01-.14-.02-.27-.03-.45-.07-.42-.27-.74-.59-.94-.3-.19-.62-.27-.95-.23-.33,.04-.63,.19-.88,.44-.27,.28-.36,.66-.27,1.09,0,.26,.01,.59,.05,.99l.09,1.21c.03,.42,.06,.82,.09,1.2,.03,.37,.04,.66,.04,.87-.05,.49,.13,.91,.51,1.22,.39,.32,.74,.49,1.04,.51,.42,.05,1.08,.07,1.97,.07,.45,0,.9,0,1.37-.01,.47,0,.94-.02,1.42-.03,.49-.02,.97-.03,1.44-.06l1.31-.07c.41-.02,.78-.04,1.1-.07,.34-.02,.61-.05,.79-.08,.3-.04,.58-.18,.83-.42,.27-.26,.4-.58,.38-.93,0-.27,0-.61-.01-1.03,0-.42-.03-.87-.06-1.35Zm-2.61,1.24h0c-.5,.04-1.05,.07-1.67,.09-.74,.03-1.47,.05-2.19,.07-1.21,.03-2.32,.03-2.89,.01l-.04-.35c-.01-.11-.02-.23-.03-.35v-.08c.43,0,.9-.01,1.42-.03,.63-.02,1.29-.04,1.95-.06,.67-.02,1.32-.03,1.96-.06,.52-.02,1-.03,1.44-.05,0,.04,0,.07,0,.11,0,.13,.02,.26,.03,.35,0,.13,0,.25,.01,.35Z"/><path class="uuid-445c32a1-7e11-4914-be14-3c30dd7b5d31" d="M56.4,23.01c-.27-.23-.64-.32-1.11-.27-.84,.07-1.74,.13-2.67,.16-.94,.04-1.9,.06-2.88,.06-.96,.02-1.91,.01-2.83-.01-.91-.02-1.77-.07-2.59-.15-.49,0-.87,.13-1.13,.38-.27,.26-.4,.55-.4,.87-.02,.33,.1,.64,.36,.92,.26,.28,.63,.4,1.09,.41,.85,.07,1.77,.12,2.74,.15,.58,.01,1.18,.02,1.77,.02,.41,0,.82,0,1.23,0,1.03-.01,2.02-.04,2.98-.09,.96-.05,1.84-.1,2.67-.16,.43-.07,.76-.25,.98-.55,.21-.29,.3-.6,.27-.93-.04-.31-.19-.58-.46-.81Z"/><path class="uuid-445c32a1-7e11-4914-be14-3c30dd7b5d31" d="M54.79,29.5c-.61,.13-1.33,.23-2.14,.28-.82,.06-1.68,.09-2.55,.09-.88-.02-1.73-.06-2.53-.13-.71-.06-1.31-.16-1.81-.3-.03-.23-.06-.52-.09-.85-.04-.43-.05-.86-.05-1.28,0-.48-.15-.86-.44-1.14-.57-.53-1.32-.53-1.88-.01-.28,.26-.43,.65-.43,1.15,0,.22,0,.5,.01,.83,0,.33,.02,.66,.03,1.01,.02,.34,.04,.64,.08,.93,.04,.31,.09,.51,.15,.65,.2,.44,.41,.76,.64,.97,.25,.22,.56,.34,.86,.35,.53,.15,1.26,.27,2.16,.36,.89,.08,1.84,.13,2.82,.15,.18,0,.36,0,.54,0,.8,0,1.59-.03,2.37-.08,.95-.07,1.77-.16,2.44-.28,.51-.07,.89-.26,1.13-.57,.25-.31,.36-.64,.34-.98-.02-.35-.18-.65-.47-.89-.29-.24-.69-.32-1.19-.25Z"/><path class="uuid-445c32a1-7e11-4914-be14-3c30dd7b5d31" d="M45.45,20.86c.5,.28,1.09,.48,1.74,.6,.64,.11,1.35,.17,2.12,.17s1.52-.07,2.18-.21c.66-.14,1.25-.36,1.74-.65,.5-.3,.89-.68,1.16-1.12,.27-.45,.41-.98,.41-1.56,0-.69-.16-1.28-.47-1.77-.31-.47-.71-.86-1.21-1.17-.49-.28-1.05-.49-1.68-.61-.62-.12-1.26-.18-1.92-.18h0c-.58,.02-1.19,.07-1.83,.16-.65,.09-1.27,.26-1.85,.51-.57,.25-1.05,.61-1.44,1.07-.4,.47-.6,1.09-.6,1.84s.15,1.33,.44,1.8c.29,.47,.7,.85,1.22,1.12Zm.92-2.92c0-.2,.07-.36,.22-.5,.18-.16,.42-.3,.71-.4,.31-.1,.66-.17,1.05-.22,.39-.05,.79-.08,1.17-.08,1.82,.05,2.76,.49,2.78,1.28-.01,.44-.21,.75-.63,.96-.46,.23-1.26,.33-2.39,.29-.96,.05-1.71-.06-2.22-.33-.46-.25-.69-.58-.69-1Z"/></g><g><path class="uuid-445c32a1-7e11-4914-be14-3c30dd7b5d31" d="M142.9,22.46c-.06-1.31-.13-2.53-.2-3.67-.07-1.14-.15-2.12-.23-2.94-.07-.42-.26-.74-.56-.94-.29-.19-.59-.27-.92-.24-.32,.04-.6,.19-.83,.46-.24,.28-.31,.66-.23,1.11,.07,.71,.14,1.53,.21,2.46,.06,.84,.11,1.71,.15,2.62h-1.83l-.38-4.6c-.07-.42-.27-.74-.57-.94-.29-.19-.59-.29-.91-.26-.33,.04-.61,.2-.84,.47-.23,.28-.31,.66-.22,1.11,.17,1.68,.31,3.55,.41,5.56,.1,2,.14,4.21,.14,6.55,0,.49,.13,.88,.4,1.13,.25,.24,.54,.36,.85,.36,.33,0,.68-.11,.96-.38,.28-.26,.42-.63,.42-1.11,0-.95-.01-1.9-.04-2.85l-.08-2.48h1.77c.03,1.02,.05,2.05,.07,3.09,.02,1.14,.03,2.22,.03,3.24,0,.49,.14,.88,.4,1.13,.26,.25,.57,.38,.91,.38s.63-.13,.9-.39c.27-.26,.41-.64,.41-1.12,0-1.19-.02-2.46-.07-3.78-.04-1.34-.1-2.67-.15-3.97Z"/><path class="uuid-445c32a1-7e11-4914-be14-3c30dd7b5d31" d="M133.03,26.96c-.34,.06-.72,.09-1.12,.11-.41,.02-.8,.01-1.19,0-.37,0-.72-.02-1.05-.06-.25-.03-.47-.07-.65-.12-.03-.1-.05-.25-.08-.51-.04-.34-.07-.74-.1-1.21-.03-.47-.05-.99-.08-1.55-.02-.56-.05-1.14-.08-1.73l-.07-3.35v-1.28c0-.35,0-.61,.02-.81,0-.45-.14-.81-.42-1.06-.55-.49-1.28-.47-1.82,.01-.29,.26-.43,.63-.43,1.06-.02,.14-.02,.39-.02,.75l.04,2.91c.01,.59,.04,1.2,.07,1.82,.01,.62,.03,1.23,.06,1.8,.02,.58,.05,1.11,.08,1.59l.08,1.2c.03,.38,.05,.55,.08,.65,.06,.46,.15,.85,.27,1.14,.13,.31,.29,.56,.47,.73,.2,.2,.43,.34,.69,.43,.24,.08,.52,.14,.81,.19,.23,.05,.53,.08,.92,.08,.36,0,.75,.01,1.18,.01h.03c.45-.01,.89-.03,1.34-.06,.45-.02,.85-.05,1.23-.08,.45-.07,.79-.26,1.01-.57,.22-.3,.32-.62,.3-.95-.02-.35-.16-.64-.43-.88-.27-.24-.66-.33-1.15-.26Z"/><path class="uuid-445c32a1-7e11-4914-be14-3c30dd7b5d31" d="M153.37,16.81c-.08-.58-.25-1.01-.51-1.31-.28-.32-.76-.48-1.46-.48h-5.73c-.48,0-.85,.13-1.11,.4-.25,.26-.38,.56-.38,.89s.13,.61,.38,.87c.26,.27,.63,.39,1.11,.38l5.12-.02c.06,.31,.1,.67,.12,1.08,.03,.53,.04,1.07,.02,1.62-.02,.56-.05,1.1-.11,1.6-.06,.5-.12,.91-.19,1.2-.31,1.15-.75,2.08-1.31,2.76-.55,.67-1.26,1.18-2.09,1.51-.42,.16-.72,.4-.88,.72-.16,.32-.19,.64-.09,.96,.1,.3,.32,.53,.65,.69,.16,.08,.36,.12,.57,.12s.43-.04,.67-.11c.4-.11,.84-.33,1.35-.66,.49-.32,.98-.74,1.45-1.24,.46-.49,.89-1.07,1.27-1.72,.39-.66,.68-1.41,.86-2.22,.11-.36,.2-.86,.27-1.47,.07-.6,.12-1.25,.15-1.94,.01-.67,.01-1.33,0-1.98s-.05-1.2-.11-1.64h0Z"/><path class="uuid-445c32a1-7e11-4914-be14-3c30dd7b5d31" d="M160.62,21.29h-1.7c-.06-.97-.11-1.88-.17-2.75-.07-.95-.13-1.76-.19-2.44-.06-.41-.23-.72-.52-.92-.28-.2-.59-.28-.89-.24-.3,.04-.56,.19-.77,.46-.22,.27-.3,.63-.23,1.07,.09,.78,.16,1.68,.23,2.75,.06,1.04,.12,2.16,.16,3.36,.04,1.17,.08,2.36,.1,3.56,.02,1.21,.03,2.36,.03,3.47,0,.48,.13,.85,.39,1.1,.24,.23,.51,.35,.79,.35,.02,0,.04,0,.07,0,.31,0,.6-.12,.86-.37,.27-.25,.4-.61,.4-1.08,0-.94-.01-1.93-.04-3-.03-.96-.06-1.92-.1-2.89h1.59c.4,0,.71-.13,.93-.38,.21-.24,.32-.52,.32-.83s-.11-.59-.31-.83c-.22-.26-.54-.39-.93-.39Z"/><path class="uuid-445c32a1-7e11-4914-be14-3c30dd7b5d31" d="M173.17,24.92c.55,0,1.09,0,1.63-.02,.54-.02,1.02-.04,1.46-.07,.17-.02,.35-.04,.53-.08,.18-.04,.38-.1,.59-.18,.34-.13,.74-.44,.74-1.2-.01-.1-.02-.25-.02-.46,0-.23,0-.53-.02-.88v-1.12c0-.38,0-.78-.02-1.19l-.05-2.35v-1.5c-.02-.35-.18-.65-.47-.85-.52-.36-1.23-.38-1.76,.05-.28,.23-.41,.57-.39,1.02v.86c0,.22,0,.48,.01,.76,0,.19,.01,.39,.02,.59h-2.21c-.7,0-1.42,0-2.18-.02v-1.21c0-.43,0-.69,.02-.86-.04-.48-.2-.84-.48-1.09-.56-.48-1.27-.47-1.78,0-.28,.24-.41,.58-.38,.95-.02,.13-.02,.32-.02,.58v3.31l.04,2.29c.02,.95,.1,1.2,.16,1.29,.2,.46,.44,.76,.71,.94,.26,.17,.53,.26,.78,.28,.42,.06,.89,.1,1.44,.14,.53,.03,1.08,.04,1.65,.04Zm2.31-3.14v.49h0c-.31,.04-.65,.06-1.03,.08-.5,.02-.99,.03-1.45,.03-.47-.01-.9-.04-1.29-.07-.29-.02-.48-.05-.6-.08,0-.09-.02-.23-.03-.48-.01-.33-.02-.71-.02-1.14,.3,0,.61,.02,.92,.02,.42,0,.81,0,1.24,.01,.73,.03,1.48,.03,2.23,0v.47c0,.25,0,.48,.02,.66Z"/><path class="uuid-445c32a1-7e11-4914-be14-3c30dd7b5d31" d="M181.97,29.76c-.18,.03-.42,.05-.71,.06-.3,.01-.63,.03-1,.03l-1.19,.02c-.86,.02-1.7,.01-2.51,0-.41,0-.8-.02-1.15-.04-.36-.02-.68-.04-.96-.07-.18-.01-.33-.03-.46-.05-.01-.09-.03-.18-.04-.29-.02-.2-.04-.41-.05-.64-.01-.23-.03-.47-.03-.7,0-.23-.01-.46-.01-.68,0-.48-.14-.86-.43-1.12-.55-.52-1.32-.52-1.86,0-.27,.26-.41,.65-.41,1.14,0,.22,0,.52,.01,.88,0,.37,.03,.74,.06,1.11,.02,.38,.04,.72,.08,1.03,.05,.44,.11,.61,.14,.69,.2,.46,.44,.76,.72,.93,.26,.15,.52,.25,.77,.28,.22,.03,.49,.05,.83,.07l1.09,.04c.4,.01,.83,.03,1.28,.03,.45,0,.92,.01,1.39,.01s.92,0,1.37-.01l1.29-.02c.41,0,.78-.02,1.11-.03,.32-.01,.59-.02,.84-.02,.48-.05,.84-.23,1.07-.52,.22-.29,.32-.6,.3-.92-.02-.34-.16-.64-.43-.89-.27-.25-.64-.37-1.11-.34Z"/><path class="uuid-445c32a1-7e11-4914-be14-3c30dd7b5d31" d="M184.16,20.66c-.04-.82-.1-1.66-.17-2.54-.07-.88-.14-1.71-.21-2.54-.07-.44-.26-.76-.56-.96-.29-.2-.6-.27-.92-.24-.33,.04-.61,.2-.83,.47-.23,.28-.31,.66-.22,1.13,.04,.35,.08,.7,.11,1.06l.06,.76h-1.66c-.43,0-.77,.15-.99,.44-.2,.26-.3,.55-.3,.84-.02,.33,.08,.63,.3,.89,.23,.28,.56,.42,.99,.42h1.83c.04,.84,.07,1.63,.09,2.36,.02,.81,.03,1.48,.03,2.01s.13,.9,.4,1.15c.25,.24,.54,.36,.85,.36,.35,0,.68-.12,.97-.39,.27-.26,.41-.64,.41-1.12s-.01-1.05-.04-1.77c-.03-.71-.07-1.5-.13-2.34Z"/><path class="uuid-445c32a1-7e11-4914-be14-3c30dd7b5d31" d="M201.73,21.31h-1.41c-.06-1.05-.12-2.04-.19-2.95-.08-.99-.14-1.85-.2-2.58-.07-.44-.26-.76-.56-.96-.29-.2-.58-.27-.9-.24-.33,.04-.61,.2-.84,.47-.23,.28-.31,.65-.22,1.11,.09,.83,.16,1.81,.23,2.92,.07,1.12,.12,2.3,.17,3.56,.05,1.26,.08,2.53,.1,3.82,.02,1.29,.03,2.51,.03,3.66,0,.51,.14,.9,.4,1.15,.25,.24,.54,.36,.85,.36,.36,0,.68-.12,.97-.39,.27-.26,.41-.64,.41-1.12,0-.98-.02-2.03-.04-3.16-.03-1.03-.06-2.05-.1-3.08h1.3c.43,0,.76-.14,.98-.41,.21-.25,.31-.54,.31-.86s-.11-.61-.32-.87c-.16-.19-.45-.42-.97-.42Z"/><path class="uuid-445c32a1-7e11-4914-be14-3c30dd7b5d31" d="M194.33,26.99c-.34,.06-.78,.1-1.31,.12-.53,.02-1.08,.03-1.61,.01-.54-.01-1.05-.04-1.51-.08-.35-.03-.63-.07-.83-.11-.06-.22-.13-.64-.18-1.45l-.2-2.86c-.03-.52-.05-1.02-.07-1.53l-.04-1.51c-.03-.84-.03-1.51-.01-2.02l3.94-.08c.45,0,.81-.13,1.06-.39,.26-.26,.39-.55,.39-.88,0-.31-.12-.6-.37-.86-.25-.27-.61-.41-1.08-.41h-4.05c-.94,0-1.58,.2-1.98,.6-.39,.4-.58,1-.56,1.76-.01,.24-.02,.56-.02,.96s0,.83,.02,1.31c.01,.49,.03,1.01,.06,1.55,.02,.54,.05,1.08,.08,1.61,.03,.53,.06,1.05,.09,1.56,.03,.51,.06,.96,.09,1.36,.03,.4,.05,.74,.08,1.01,.03,.4,.07,.54,.08,.54,.06,.47,.15,.85,.28,1.15,.13,.31,.3,.57,.51,.76,.19,.17,.42,.31,.68,.39,.24,.08,.51,.14,.81,.19,.23,.05,.59,.08,1.11,.09,.25,0,.52,.01,.79,.01s.56,0,.85-.01c.58,0,1.16-.01,1.75-.03,.6-.02,1.06-.06,1.43-.1,.45-.07,.79-.26,1.01-.57,.22-.3,.32-.62,.3-.96-.02-.33-.16-.62-.43-.86-.28-.25-.67-.35-1.16-.27Z"/><path class="uuid-445c32a1-7e11-4914-be14-3c30dd7b5d31" d="M220.32,20.22h-1.11l-.04-.53c0-.16,0-.31-.03-.47,0-.04,0-.09-.01-.13h1.19c.42,0,.74-.14,.97-.42,.21-.26,.32-.55,.32-.89-.02-.31-.13-.6-.33-.86-.15-.2-.44-.44-.96-.44h-1.4c-.01-.11-.02-.22-.03-.33-.02-.2-.04-.4-.06-.63-.07-.44-.26-.76-.56-.96-.29-.2-.59-.28-.92-.24-.33,.04-.61,.2-.84,.47-.23,.28-.31,.66-.22,1.13,.18,1.67,.29,3.14,.35,4.36,.06,1.23,.09,2.3,.09,3.18,0,.51,.14,.9,.4,1.15,.25,.24,.53,.36,.83,.36,.35,0,.68-.12,.97-.4,.27-.26,.41-.64,.41-1.12,0-.14,0-.29-.01-.46,0-.07,0-.14,0-.21h.99c.42,0,.74-.14,.97-.42,.21-.26,.32-.55,.32-.89-.02-.29-.13-.57-.33-.84-.15-.2-.44-.44-.96-.44Z"/><path class="uuid-445c32a1-7e11-4914-be14-3c30dd7b5d31" d="M217.79,26.72c-.48-.33-1.09-.59-1.82-.78-.72-.18-1.58-.28-2.58-.28-2,0-3.56,.26-4.63,.76-1.14,.54-1.72,1.44-1.72,2.67,0,1.52,.52,2.57,1.55,3.13,1,.53,2.49,.79,4.55,.79,2.19,0,3.7-.26,4.62-.79,.98-.54,1.48-1.49,1.48-2.8,0-.53-.12-1.04-.35-1.5-.24-.47-.61-.87-1.11-1.21Zm-8.03,2.5c0-.15,.06-.28,.2-.4,.17-.15,.41-.27,.72-.36,.34-.1,.76-.17,1.24-.22,.49-.05,1.03-.08,1.61-.08,1.23,0,2.09,.14,2.56,.42,.43,.26,.65,.56,.66,.9,0,.26-.1,.63-.86,.84-.67,.18-1.61,.28-2.78,.28s-1.98-.13-2.58-.4c-.71-.31-.78-.7-.77-.98Z"/><path class="uuid-445c32a1-7e11-4914-be14-3c30dd7b5d31" d="M208.15,24.1c.48,.02,1,.02,1.57,.02s1.13-.01,1.69-.03c.56-.02,1.03-.06,1.4-.1,.45-.07,.79-.26,1.01-.57,.22-.3,.32-.62,.3-.95-.02-.34-.16-.64-.42-.88-.27-.25-.65-.34-1.14-.26-.36,.06-.79,.1-1.28,.13-.98,.06-2.03,.06-2.91,0-.32-.02-.58-.06-.76-.1-.07-.23-.13-.54-.18-.91-.06-.47-.11-.97-.15-1.49-.03-.53-.05-1.05-.06-1.54,0-.5,0-.91,.01-1.26,0-.45-.14-.81-.41-1.06-.51-.47-1.24-.5-1.81,0-.29,.25-.43,.62-.43,1.05-.03,.27-.05,.66-.05,1.2s.01,1.07,.04,1.63c.03,.57,.07,1.09,.11,1.58,.05,.5,.09,.84,.13,.98,.06,.47,.15,.85,.28,1.15,.13,.31,.29,.56,.48,.76,.19,.17,.42,.31,.68,.39,.24,.08,.51,.14,.81,.19,.23,.05,.58,.08,1.07,.1Z"/></g><path class="uuid-445c32a1-7e11-4914-be14-3c30dd7b5d31" d="M219.35,43.85H1.94c-.94,0-1.71-.55-1.71-1.23s.77-1.23,1.71-1.23H219.35c.94,0,1.71,.55,1.71,1.23s-.77,1.23-1.71,1.23Z"/><path class="uuid-445c32a1-7e11-4914-be14-3c30dd7b5d31" d="M219.12,4.46H1.71c-.94,0-1.71,.55-1.71,1.23s.77,1.23,1.71,1.23H219.12c.94,0,1.71-.55,1.71-1.23s-.77-1.23-1.71-1.23Z"/><g><path class="uuid-9e0c1ab2-524d-4118-9249-d0532730c508" d="M75.74,5.62s11.32,9.58,23.69,0c-12.37-9.58-23.69,0-23.69,0Z"/><polygon class="uuid-9e0c1ab2-524d-4118-9249-d0532730c508" points="99.43 5.62 104.04 8.72 104.04 1.01 99.43 5.62"/></g><path class="uuid-445c32a1-7e11-4914-be14-3c30dd7b5d31" d="M104.43,.08c-.38-.16-.82-.07-1.11,.22l-4,3.99c-12.6-9.06-24.13,.46-24.25,.56-.02,.02-.03,.05-.05,.07-.02,.02-.05,.03-.07,.05-.03,.03-.03,.07-.06,.1-.04,.06-.07,.11-.1,.18-.02,.06-.04,.12-.05,.19-.01,.06-.02,.12-.02,.19,0,.07,0,.13,.02,.2,.01,.06,.03,.12,.05,.18,.03,.07,.06,.12,.1,.18,.02,.03,.03,.07,.06,.1,.02,.02,.05,.03,.07,.05,.02,.02,.03,.05,.05,.07,.08,.07,5.41,4.48,12.77,4.48,3.53,0,7.52-1.01,11.62-4l4.01,2.7c.31,.21,.71,.23,1.05,.05,.33-.18,.54-.52,.54-.9V1.02c0-.41-.25-.78-.63-.94Zm-26.98,5.55c2.86-1.92,11.1-6.26,20.25,0-9.15,6.26-17.39,1.92-20.25,0Zm25.57,1.19l-2-1.34,2-2v3.34Z"/><path class="uuid-207842e3-a804-4864-8f24-9b370390d317" d="M118.22,23.31c-.33-4.8-7.16-6.19-8.32,.63-.63,3.73-2.96,7.59-4.95,10.31l.42,.97-.82-.66c2.16-4.98-1.28-9.4-1.28-9.4,0,0,2.11-8.71,0-8.97s-6.86,5.28-8.71,4.49c-1.85-.79-9.76,.26-9.76,.26,0,0-8.71-3.43-9.76-2.64s1.85,7.92,1.85,7.92c0,0-2.17,3.95-1.56,8.05h-.52c-1.98-2.72-4.31-6.58-4.95-10.31-1.16-6.83-7.99-5.43-8.32-.63-.3,4.34,3.15,13.53,7.91,18.37l1.63,2.42h37.5l.6-1.38c5.33-4.43,9.36-14.73,9.04-19.41Z"/><path class="uuid-445c32a1-7e11-4914-be14-3c30dd7b5d31" d="M119.24,23.25c-.19-2.76-2.21-4.86-4.81-4.99-2.1-.11-4.8,1.28-5.52,5.52-.38,2.27-1.46,4.61-2.66,6.67-.19-2.58-1.33-4.64-1.88-5.49,.49-2.12,1.49-7.24,.28-9-.31-.45-.74-.72-1.25-.78-1.43-.18-3.07,1.05-4.98,2.48-1.02,.76-2.93,2.18-3.45,2.08-1.9-.81-8.21-.08-10.04,.16-9.01-3.53-10.09-2.72-10.5-2.41-.45,.34-1.64,1.23,1.34,8.68-.42,.89-1.3,2.98-1.52,5.47-1.48-2.31-2.92-5.13-3.38-7.86-.72-4.24-3.4-5.62-5.52-5.52-2.6,.13-4.62,2.23-4.81,4.99-.34,4.94,3.95,16.16,9.87,20.65,.18,.14,.4,.21,.62,.21,.31,0,.61-.14,.81-.4,.34-.45,.25-1.09-.2-1.43-5.34-4.06-9.37-14.49-9.07-18.89,.13-1.95,1.55-3.03,2.88-3.1,1.3-.07,2.92,.9,3.41,3.83,.67,3.98,3.16,8.04,5.13,10.74,.13,.17,.3,.27,.49,.34,.07,.3,.15,.59,.25,.89,.9,2.67,2.91,4.72,5.98,6.09,.14,.06,.28,.09,.42,.09,.39,0,.76-.22,.93-.6,.23-.51,0-1.12-.51-1.34-2.52-1.13-4.16-2.77-4.87-4.87-1.38-4.08,1.1-8.7,1.13-8.75,.15-.27,.17-.59,.05-.87-1.12-2.74-1.96-5.55-2.01-6.63,1.37,.11,5.33,1.39,8.61,2.68,.16,.06,.34,.08,.51,.06,3.17-.42,8.13-.81,9.23-.34,1.5,.64,3.34-.73,5.47-2.32,1.02-.76,2.69-2.01,3.39-2.09,.41,.82,.08,4.32-.74,7.72-.07,.3,0,.62,.18,.86,.2,.26,4.84,6.45-1.7,12.06-.43,.37-.48,1.01-.11,1.44,.37,.43,1.01,.48,1.44,.11,1.62-1.39,2.65-2.82,3.3-4.22,.15-.07,.29-.16,.39-.31,1.97-2.7,4.45-6.76,5.13-10.74,.5-2.92,2.09-3.9,3.41-3.83,1.33,.07,2.75,1.15,2.88,3.1,.3,4.4-3.73,14.84-9.07,18.89-.45,.34-.53,.98-.2,1.43,.2,.26,.5,.4,.81,.4,.21,0,.43-.07,.62-.21,5.92-4.49,10.2-15.71,9.87-20.65Z"/><path class="uuid-5ef46de5-d25b-46e8-93ed-0635de27bcc1" d="M93.73,35.86s-.24,1.43-2.02,1.37-1.66-1.37-1.66-1.37"/><path class="uuid-445c32a1-7e11-4914-be14-3c30dd7b5d31" d="M93.92,34.88c-.53-.11-1.07,.25-1.19,.79-.05,.21-.22,.58-.99,.55-.25,0-.65-.06-.67-.24,0-.1,0-.17,0-.21,0-.04-.02-.06-.03-.1-.01-.07-.03-.13-.06-.2-.03-.06-.06-.12-.1-.18-.03-.04-.06-.08-.1-.12-.07-.07-.14-.13-.22-.18-.02,0-.03-.02-.05-.03-.17-.09-.36-.16-.56-.13-.48,.05-.83,.41-.89,.87,0,.02-.02,.04-.02,.07,0,.03,0,.09,0,.16,0,.23-.42,.28-.67,.29-.76,.03-.94-.33-.99-.54-.1-.54-.62-.91-1.17-.81-.55,.09-.93,.62-.84,1.17,.13,.78,.91,2.22,2.92,2.22,.05,0,.1,0,.14,0,.65-.02,1.19-.18,1.62-.46,.43,.28,.97,.44,1.62,.46,.05,0,.1,0,.14,0,2.01,0,2.79-1.44,2.92-2.22,.09-.54-.27-1.04-.81-1.15Z"/><g><ellipse class="uuid-445c32a1-7e11-4914-be14-3c30dd7b5d31" cx="86.36" cy="31.18" rx="1.2" ry="1.82"/><ellipse class="uuid-445c32a1-7e11-4914-be14-3c30dd7b5d31" cx="93.73" cy="31.18" rx="1.2" ry="1.82"/></g></g></g></svg>