<?xml version="1.0" encoding="UTF-8"?><svg id="uuid-96a17ba4-4b0f-46f9-b0ad-7c6e06565ad3" xmlns="http://www.w3.org/2000/svg" viewBox="0 0 24.34 23.35"><defs><style>.uuid-d2607e8d-619c-44d2-9218-d98bbba80808{fill:#d20000;}</style></defs><g id="uuid-dcec8ffc-efcd-4e0f-b7bd-577b00dce948"><g><path class="uuid-d2607e8d-619c-44d2-9218-d98bbba80808" d="M24.23,11.44l-1.57-1.22-1.57-1.22c-.14-.11-.31,.03-.31,.24v1.62h-7.97c-.45,0-.82,.37-.82,.82s.37,.82,.82,.82h7.97v1.62c0,.21,.17,.34,.31,.24l1.57-1.22,1.57-1.22c.14-.11,.14-.37,0-.47Z"/><path class="uuid-d2607e8d-619c-44d2-9218-d98bbba80808" d="M21.24,16.87c-.38-.24-.88-.14-1.13,.24-1.86,2.89-5.02,4.61-8.44,4.61-5.54,0-10.04-4.51-10.04-10.04S6.14,1.63,11.68,1.63c3.5,0,6.69,1.79,8.54,4.78,.24,.38,.74,.5,1.12,.27,.38-.24,.5-.74,.27-1.12C19.46,2.08,15.75,0,11.68,0,5.24,0,0,5.24,0,11.68s5.24,11.68,11.68,11.68c3.98,0,7.64-2,9.81-5.36,.24-.38,.14-.88-.24-1.13Z"/></g></g></svg>