<?xml version="1.0" encoding="UTF-8"?><svg id="uuid-b164a590-e13c-4d1e-90cc-1d1765e2bb4a" xmlns="http://www.w3.org/2000/svg" viewBox="0 0 20.29 20.29"><defs><style>.uuid-b23b74fb-506f-4874-9a36-71032aa30ce8{fill:#0c0d0e;}</style></defs><g id="uuid-dbff7f02-d8be-4001-a0d5-0bd5471d7f30"><path class="uuid-b23b74fb-506f-4874-9a36-71032aa30ce8" d="M13.11,8.33l5.54-5.54V6.83c0,.23,.09,.43,.24,.58s.35,.24,.58,.24c.45,0,.82-.37,.82-.82V.82c0-.22-.09-.42-.24-.58s-.36-.24-.58-.24h-6.02c-.45,0-.82,.37-.82,.82,0,.45,.37,.82,.82,.82h4.04l-5.54,5.54c-2.89-2.31-7.13-2.13-9.8,.54-2.87,2.87-2.87,7.54,0,10.42,2.87,2.87,7.54,2.87,10.41,0,2.68-2.68,2.86-6.91,.54-9.8ZM3.31,16.98c-2.23-2.23-2.24-5.87,0-8.1s5.87-2.23,8.11,0,2.23,5.87,0,8.1-5.87,2.23-8.1,0Z"/></g></svg>