<?xml version="1.0" encoding="UTF-8"?><svg id="uuid-f8fa269b-5d1f-4993-acbb-48a7addfde04" xmlns="http://www.w3.org/2000/svg" viewBox="0 0 58.74 44.11"><defs><style>.uuid-7100be88-bc76-4064-80c8-0ea388219330{fill:#fff;}.uuid-b9fc2e2c-19a8-4f0a-a1b5-264b821a4562{fill:#ffb700;}.uuid-a4857695-967b-4c51-b328-44fc90169de9{fill:#fdf4d5;}.uuid-4e9e6e29-8071-426e-b506-6cac00e9cafc{fill:#343434;}</style></defs><g id="uuid-1bed2c98-5e66-4b46-b74a-0e876d5d6d1d"><g><g><path class="uuid-b9fc2e2c-19a8-4f0a-a1b5-264b821a4562" d="M15.22,5.62s11.32,9.58,23.69,0c-12.37-9.58-23.69,0-23.69,0Z"/><polygon class="uuid-b9fc2e2c-19a8-4f0a-a1b5-264b821a4562" points="38.91 5.62 43.52 8.72 43.52 1.01 38.91 5.62"/></g><path class="uuid-4e9e6e29-8071-426e-b506-6cac00e9cafc" d="M43.91,.08c-.38-.16-.82-.07-1.11,.22l-4,3.99c-12.6-9.06-24.13,.46-24.25,.56-.02,.02-.03,.05-.05,.07-.02,.02-.05,.03-.07,.05-.03,.03-.03,.07-.06,.1-.04,.06-.07,.11-.1,.18-.02,.06-.04,.12-.05,.19-.01,.06-.02,.12-.02,.19,0,.07,0,.13,.02,.2,.01,.06,.03,.12,.05,.18,.03,.07,.06,.12,.1,.18,.02,.03,.03,.07,.06,.1,.02,.02,.05,.03,.07,.05,.02,.02,.03,.05,.05,.07,.08,.07,5.41,4.48,12.77,4.48,3.53,0,7.52-1.01,11.62-4l4.01,2.7c.31,.21,.71,.23,1.05,.05,.33-.18,.54-.52,.54-.9V1.02c0-.41-.25-.78-.63-.94ZM16.93,5.63c2.86-1.92,11.1-6.26,20.25,0-9.15,6.26-17.39,1.92-20.25,0Zm25.57,1.19l-2-1.34,2-2v3.34Z"/><path class="uuid-a4857695-967b-4c51-b328-44fc90169de9" d="M57.71,23.31c-.33-4.8-7.16-6.19-8.32,.63-.63,3.73-2.96,7.59-4.95,10.31l.42,.97-.82-.66c2.16-4.98-1.28-9.4-1.28-9.4,0,0,2.11-8.71,0-8.97s-6.86,5.28-8.71,4.49c-1.85-.79-9.76,.26-9.76,.26,0,0-8.71-3.43-9.76-2.64s1.85,7.92,1.85,7.92c0,0-2.17,3.95-1.56,8.05h-.52c-1.98-2.72-4.31-6.58-4.95-10.31-1.16-6.83-7.99-5.43-8.32-.63-.3,4.34,3.15,13.53,7.91,18.37l1.63,2.42H48.07l.6-1.38c5.33-4.43,9.36-14.73,9.04-19.41Z"/><path class="uuid-4e9e6e29-8071-426e-b506-6cac00e9cafc" d="M58.72,23.25c-.19-2.76-2.21-4.86-4.81-4.99-2.1-.11-4.8,1.28-5.52,5.52-.38,2.27-1.46,4.61-2.66,6.67-.19-2.58-1.33-4.64-1.88-5.49,.49-2.12,1.49-7.24,.28-9-.31-.45-.74-.72-1.25-.78-1.43-.18-3.07,1.05-4.98,2.48-1.02,.76-2.93,2.18-3.45,2.08-1.9-.81-8.21-.08-10.04,.16-9.01-3.53-10.09-2.72-10.5-2.41-.45,.34-1.64,1.23,1.34,8.68-.42,.89-1.3,2.98-1.52,5.47-1.48-2.31-2.92-5.13-3.38-7.86-.72-4.24-3.4-5.62-5.52-5.52C2.23,18.38,.21,20.48,.02,23.25c-.34,4.94,3.95,16.16,9.87,20.65,.18,.14,.4,.21,.62,.21,.31,0,.61-.14,.81-.4,.34-.45,.25-1.09-.2-1.43C5.78,38.22,1.75,27.79,2.05,23.38c.13-1.95,1.55-3.03,2.88-3.1,1.3-.07,2.92,.9,3.41,3.83,.67,3.98,3.16,8.04,5.13,10.74,.13,.17,.3,.27,.49,.34,.07,.3,.15,.59,.25,.89,.9,2.67,2.91,4.72,5.98,6.09,.14,.06,.28,.09,.42,.09,.39,0,.76-.22,.93-.6,.23-.51,0-1.12-.51-1.34-2.52-1.13-4.16-2.77-4.87-4.87-1.38-4.08,1.1-8.7,1.13-8.75,.15-.27,.17-.59,.05-.87-1.12-2.74-1.96-5.55-2.01-6.63,1.37,.11,5.33,1.39,8.61,2.68,.16,.06,.34,.08,.51,.06,3.17-.42,8.13-.81,9.23-.34,1.5,.64,3.34-.73,5.47-2.32,1.02-.76,2.69-2.01,3.39-2.09,.41,.82,.08,4.32-.74,7.72-.07,.3,0,.62,.18,.86,.2,.26,4.84,6.45-1.7,12.06-.43,.37-.48,1.01-.11,1.44,.37,.43,1.01,.48,1.44,.11,1.62-1.39,2.65-2.82,3.3-4.22,.15-.07,.29-.16,.39-.31,1.97-2.7,4.45-6.76,5.13-10.74,.5-2.92,2.09-3.9,3.41-3.83,1.33,.07,2.75,1.15,2.88,3.1,.3,4.4-3.73,14.84-9.07,18.89-.45,.34-.53,.98-.2,1.43,.2,.26,.5,.4,.81,.4,.21,0,.43-.07,.62-.21,5.92-4.49,10.2-15.71,9.87-20.65Z"/><path class="uuid-7100be88-bc76-4064-80c8-0ea388219330" d="M33.21,35.86s-.24,1.43-2.02,1.37-1.66-1.37-1.66-1.37"/><path class="uuid-4e9e6e29-8071-426e-b506-6cac00e9cafc" d="M33.4,34.88c-.53-.11-1.07,.25-1.19,.79-.05,.21-.22,.58-.99,.55-.25,0-.65-.06-.67-.24,0-.1,0-.17,0-.21,0-.04-.02-.06-.03-.1-.01-.07-.03-.13-.06-.2-.03-.06-.06-.12-.1-.18-.03-.04-.06-.08-.1-.12-.07-.07-.14-.13-.22-.18-.02,0-.03-.02-.05-.03-.17-.09-.36-.16-.56-.13-.48,.05-.83,.41-.89,.87,0,.02-.02,.04-.02,.07,0,.03,0,.09,0,.16,0,.23-.42,.28-.67,.29-.76,.03-.94-.33-.99-.54-.1-.54-.62-.91-1.17-.81-.55,.09-.93,.62-.84,1.17,.13,.78,.91,2.22,2.92,2.22,.05,0,.1,0,.14,0,.65-.02,1.19-.18,1.62-.46,.43,.28,.97,.44,1.62,.46,.05,0,.1,0,.14,0,2.01,0,2.79-1.44,2.92-2.22,.09-.54-.27-1.04-.81-1.15Z"/><g><ellipse class="uuid-4e9e6e29-8071-426e-b506-6cac00e9cafc" cx="25.84" cy="31.18" rx="1.2" ry="1.82"/><ellipse class="uuid-4e9e6e29-8071-426e-b506-6cac00e9cafc" cx="33.21" cy="31.18" rx="1.2" ry="1.82"/></g></g></g></svg>