<?xml version="1.0" encoding="UTF-8"?><svg id="uuid-fc718551-66de-448c-ad6c-501c7bb87c68" xmlns="http://www.w3.org/2000/svg" viewBox="0 0 17.73 15.12"><defs><style>.uuid-c7b212cf-bde5-4d98-af6c-443a71fd2d31{fill:#0c0d0e;}</style></defs><g id="uuid-ee27f738-89c4-4749-ba0d-92e53df60a48"><g><path class="uuid-c7b212cf-bde5-4d98-af6c-443a71fd2d31" d="M16.92,0H.82C.37,0,0,.37,0,.82s.37,.82,.82,.82H16.92c.45,0,.82-.37,.82-.82s-.37-.82-.82-.82Z"/><path class="uuid-c7b212cf-bde5-4d98-af6c-443a71fd2d31" d="M16.92,6.75H.82c-.45,0-.82,.37-.82,.82s.37,.82,.82,.82H16.92c.45,0,.82-.37,.82-.82s-.37-.82-.82-.82Z"/><path class="uuid-c7b212cf-bde5-4d98-af6c-443a71fd2d31" d="M16.92,13.49H.82c-.45,0-.82,.37-.82,.82s.37,.82,.82,.82H16.92c.45,0,.82-.37,.82-.82s-.37-.82-.82-.82Z"/></g></g></svg>