<?xml version="1.0" encoding="UTF-8"?><svg id="uuid-f543ec06-8dd2-47e3-8bdb-209143f9033b" xmlns="http://www.w3.org/2000/svg" viewBox="0 0 22.17 22.17"><defs><style>.uuid-4bf96e25-d9e1-4df6-9c9b-b7e03cd1b89f{fill:#0c0d0e;}</style></defs><g id="uuid-90e2ead3-bc64-4a6a-a1fe-e65449d23871"><g><path class="uuid-4bf96e25-d9e1-4df6-9c9b-b7e03cd1b89f" d="M11.09,0C4.97,0,0,4.97,0,11.09s4.97,11.09,11.09,11.09,11.09-4.97,11.09-11.09S17.2,0,11.09,0Zm0,20.54c-5.21,0-9.45-4.24-9.45-9.45S5.87,1.63,11.09,1.63s9.45,4.24,9.45,9.45-4.24,9.45-9.45,9.45Z"/><path class="uuid-4bf96e25-d9e1-4df6-9c9b-b7e03cd1b89f" d="M16.58,10.27H5.59c-.45,0-.82,.37-.82,.82s.37,.82,.82,.82h10.99c.45,0,.82-.37,.82-.82s-.37-.82-.82-.82Z"/></g></g></svg>