<svg xmlns="http://www.w3.org/2000/svg" viewBox="0 0 27.28 25.26"><path d="M24.04 11.26h-.16a10.744 10.744 0 0 0-8.39-7.34l1.79-2.81c.22-.34.12-.79-.22-1a.724.724 0 0 0-1 .22l-2.18 3.43h-.23c-4.7 0-8.83 3.06-10.24 7.5h-.16a3.24 3.24 0 1 0 0 6.48h.16c1.4 4.45 5.54 7.5 10.24 7.5s8.83-3.06 10.24-7.5h.16c1.79 0 3.24-1.46 3.24-3.24s-1.45-3.24-3.24-3.24Zm0 5.04h-.7c-.33 0-.62.22-.7.54a9.286 9.286 0 0 1-17.98 0 .718.718 0 0 0-.7-.54h-.7c-.99 0-1.79-.8-1.79-1.79s.8-1.79 1.79-1.79h.7c.33 0 .62-.22.7-.54a9.286 9.286 0 0 1 17.98 0c.08.32.37.54.7.54h.7c.99 0 1.79.8 1.79 1.79s-.8 1.79-1.79 1.79Z"/><path d="M10.73 13.35a1.16 1.16 0 1 0-2.322.002 1.16 1.16 0 0 0 2.322-.002ZM17.82 12.19a1.16 1.16 0 1 0 .002 2.322 1.16 1.16 0 0 0-.002-2.322ZM13.64 21.22c2.59 0 4.69-2.1 4.69-4.69H8.95c0 2.59 2.1 4.69 4.69 4.69Z"/></svg>