<?xml version="1.0" encoding="UTF-8"?><svg id="uuid-743c3127-63a4-46e7-9ca0-e6680cbabd93" xmlns="http://www.w3.org/2000/svg" viewBox="0 0 27.8 30.75"><g id="uuid-3a6fcb28-436e-4fc2-9796-76026c83bd81"><path d="M27.56,29.36l-5.89-5.89c1.79-2.13,2.87-4.88,2.87-7.88,0-2.79-.95-5.35-2.52-7.42,.05-.08,.08-.18,.09-.28l.87-6.26c.08-.57-.19-1.13-.67-1.42-.49-.3-1.11-.28-1.58,.05l-5.01,3.52s-.02,.02-.03,.04c-1.09-.32-2.24-.5-3.43-.5s-2.28,.17-3.35,.48c0,0,0-.01-.01-.02L3.9,.26c-.47-.33-1.09-.35-1.58-.05-.49,.3-.75,.86-.67,1.42l.87,6.26c0,.07,.04,.13,.06,.19C.97,10.16,0,12.76,0,15.59c0,6.77,5.5,12.27,12.27,12.27,3.18,0,6.08-1.23,8.26-3.22l5.88,5.88c.16,.16,.37,.24,.58,.24s.42-.08,.58-.24c.32-.32,.32-.84,0-1.16ZM21.31,1.86l-.67,4.78c-.92-.86-1.97-1.58-3.12-2.13l3.79-2.66ZM7.08,4.49c-1.14,.53-2.18,1.24-3.09,2.08L3.33,1.86l3.75,2.63Zm5.2,21.74c-5.87,0-10.64-4.77-10.64-10.64S6.41,4.95,12.27,4.95s10.64,4.77,10.64,10.64-4.77,10.64-10.64,10.64Z"/></g></svg>