<?xml version="1.0" encoding="UTF-8"?><svg id="uuid-74bfb0e1-715d-4524-9f4f-dee4e1ca0589" xmlns="http://www.w3.org/2000/svg" viewBox="0 0 23.29 22.59"><defs><style>.uuid-c209a74f-1519-495e-9e8d-397533aa6ed5{fill:#0c0d0e;}</style></defs><g id="uuid-b50ef5f7-e481-4662-8ed9-9a73392f27ef"><g><path class="uuid-c209a74f-1519-495e-9e8d-397533aa6ed5" d="M22.54,7.2c-.08-.22-.26-.4-.48-.48s-.47-.06-.68,.05c-.3,.16-.6,.24-.91,.24-1.05,0-1.91-.86-1.91-1.91,0-.55,.23-1.05,.65-1.42,.18-.16,.28-.38,.28-.62,0-.24-.11-.46-.29-.62C17.87,1.31,16.26,.47,14.54,.03c-.23-.06-.47-.02-.66,.11-.19,.13-.32,.34-.35,.57-.12,.95-.93,1.66-1.88,1.66s-1.76-.71-1.88-1.66c-.03-.23-.16-.44-.35-.57-.19-.13-.43-.17-.66-.11-1.83,.47-3.53,1.39-4.93,2.66-.33,.3-.36,.82-.06,1.15,.32,.36,.5,.81,.5,1.27,0,1.05-.86,1.91-1.91,1.91-.2,0-.41-.04-.64-.12-.43-.15-.89,.07-1.04,.5-.45,1.27-.68,2.59-.68,3.9,0,1.06,.15,2.14,.45,3.2,.07,.23,.23,.42,.44,.52,.22,.1,.46,.1,.68,0,.26-.12,.52-.18,.79-.18,1.05,0,1.91,.86,1.91,1.91,0,.61-.29,1.16-.79,1.53-.19,.14-.31,.36-.33,.6-.02,.24,.07,.47,.24,.64,1.47,1.48,3.33,2.54,5.37,3.06,.23,.06,.47,.02,.66-.11,.19-.13,.32-.34,.35-.57,.12-.95,.93-1.66,1.88-1.66s1.75,.71,1.88,1.66c.03,.23,.16,.44,.35,.57,.14,.09,.3,.14,.46,.14,.07,0,.14,0,.2-.03,2.06-.53,3.93-1.6,5.41-3.11,.16-.17,.25-.39,.23-.63-.02-.23-.13-.45-.31-.59-.47-.37-.75-.91-.75-1.5,0-1.05,.86-1.91,1.91-1.91,.25,0,.49,.05,.72,.15,.21,.09,.46,.08,.67-.02,.21-.1,.37-.29,.43-.51,.29-1.04,.44-2.1,.44-3.15,0-1.39-.25-2.76-.75-4.09Zm-1.08,6.03c-.14-.02-.29-.03-.44-.03-1.95,0-3.54,1.59-3.54,3.54,0,.78,.25,1.51,.71,2.12-.97,.84-2.09,1.48-3.3,1.9-.54-1.28-1.81-2.17-3.25-2.17s-2.71,.89-3.25,2.17c-1.19-.41-2.29-1.03-3.24-1.84,.48-.62,.75-1.38,.75-2.17,0-1.95-1.59-3.54-3.54-3.54-.18,0-.36,.01-.53,.04-.13-.65-.2-1.3-.2-1.95,0-.9,.12-1.79,.37-2.67,2.08,.23,3.9-1.45,3.9-3.52,0-.59-.15-1.17-.43-1.68,.88-.69,1.87-1.23,2.92-1.59,.54,1.28,1.81,2.17,3.25,2.17s2.71-.89,3.25-2.17c.93,.32,1.82,.78,2.61,1.35-.37,.57-.58,1.23-.58,1.92,0,1.95,1.59,3.54,3.54,3.54,.27,0,.53-.03,.79-.09,.26,.9,.39,1.82,.39,2.74,0,.64-.07,1.29-.2,1.93Z"/><path class="uuid-c209a74f-1519-495e-9e8d-397533aa6ed5" d="M11.65,6.69c-2.54,0-4.61,2.07-4.61,4.61s2.07,4.61,4.61,4.61,4.61-2.07,4.61-4.61-2.07-4.61-4.61-4.61Zm0,7.58c-1.64,0-2.97-1.33-2.97-2.97s1.33-2.97,2.97-2.97,2.97,1.33,2.97,2.97-1.33,2.97-2.97,2.97Z"/></g></g></svg>