<?xml version="1.0" encoding="UTF-8"?><svg id="b" xmlns="http://www.w3.org/2000/svg" viewBox="0 0 16.43 25.52"><defs><style>.d{fill:#0c0d0e;}</style></defs><g id="c"><path class="d" d="M1.58,25.52c-.2,0-.41-.04-.61-.12-.59-.25-.97-.82-.97-1.46V2.39C0,1.07,1.07,0,2.39,0H14.04c1.32,0,2.39,1.07,2.39,2.39V23.94c0,.64-.38,1.21-.97,1.46-.59,.24-1.27,.11-1.72-.34l-5.53-5.53-5.53,5.53c-.3,.3-.7,.46-1.11,.46ZM2.39,1.6c-.44,0-.79,.36-.79,.79V23.94l6.62-6.67,6.66,6.66-.04-6.76V2.39c0-.44-.36-.79-.79-.79H2.39Z"/></g></svg>