<svg id="b" xmlns="http://www.w3.org/2000/svg" viewBox="0 0 41.67 57.2"><defs><style>.f{fill:#343434}</style></defs><g id="c"><path d="M36.31 1.5H5.37C3.24 1.5 1.5 3.23 1.5 5.37v48.44c0 1.61 1.9 2.48 3.12 1.42L20.84 41.2l16.22 14.03c1.22 1.06 3.12.19 3.12-1.42V5.37c0-2.13-1.73-3.87-3.87-3.87Z" style="fill:#63bff3"/><path class="f" d="M38.28 57.2c-.79 0-1.57-.28-2.2-.83L20.84 43.19 5.6 56.37c-1.01.88-2.4 1.07-3.62.52A3.358 3.358 0 0 1 0 53.81V5.37C0 2.41 2.41 0 5.37 0h30.94c2.96 0 5.37 2.41 5.37 5.37v48.44c0 1.34-.76 2.52-1.98 3.08-.46.21-.94.31-1.42.31ZM20.84 39.7c.35 0 .7.12.98.37L38.04 54.1c.15.13.31.11.41.06.1-.05.22-.15.22-.35V5.37c0-1.3-1.06-2.37-2.37-2.37H5.37C4.07 3 3 4.06 3 5.37v48.44c0 .2.12.3.22.35.1.05.26.08.41-.06l16.22-14.03c.28-.24.63-.37.98-.37Z"/><path d="M30.55 12.72c-.51-.68-1.87-1.93-3.74-2.25-.45-.08-1.64-.21-2.99.18-1.19.35-2.19 1-3 1.94-2.28-2.57-5.25-2.15-6.14-1.94-1.57.36-2.76 1.12-3.64 2.34-1.05 1.46-1.49 3.11-1.3 4.89.13 1.22.55 2.46 1.25 3.69 1.04 1.85 2.95 3.87 5.67 6.01 1.89 1.49 3.56 2.53 3.75 2.64l.42.26.43-.26c.19-.12 1.96-1.21 3.93-2.76 2.83-2.22 4.73-4.31 5.66-6.2 1.59-3.25 1.49-6.13-.3-8.54Z" style="fill:#fff"/><path class="f" d="M20.83 31.98c-.27 0-.54-.07-.78-.22l-.42-.26c-.32-.2-1.98-1.24-3.89-2.74-2.87-2.26-4.91-4.43-6.05-6.45-.8-1.42-1.28-2.85-1.43-4.27-.23-2.16.29-4.15 1.57-5.92 1.08-1.51 2.61-2.5 4.53-2.93.92-.21 3.84-.65 6.46 1.35.77-.6 1.64-1.05 2.6-1.33 1.59-.46 2.98-.33 3.67-.21 2.19.38 3.9 1.76 4.69 2.83 1.48 2 2.76 5.37.44 10.1-1.03 2.09-3.07 4.35-6.08 6.72-1.98 1.56-3.74 2.66-4.08 2.86l-.44.26c-.24.14-.51.22-.77.22Zm-4.71-19.99c-.5 0-.89.07-1.11.12-1.22.28-2.1.83-2.76 1.75-.84 1.17-1.18 2.43-1.02 3.85.11 1.01.47 2.06 1.06 3.12.95 1.68 2.73 3.55 5.29 5.56a43.88 43.88 0 0 0 3.25 2.32c.63-.4 1.98-1.29 3.43-2.43 2.65-2.08 4.41-4 5.24-5.68 1.35-2.75 1.29-5.03-.16-6.99-.28-.38-1.33-1.41-2.79-1.67a5.45 5.45 0 0 0-2.32.14c-.91.27-1.66.75-2.28 1.48-.28.33-.69.52-1.13.53-.44.03-.85-.18-1.14-.5-1.17-1.31-2.57-1.6-3.57-1.6Z"/></g></svg>