<svg xmlns="http://www.w3.org/2000/svg" viewBox="0 0 38.67 54.2"><path d="M34.81 0H3.87C1.73 0 0 1.73 0 3.87v48.44c0 1.61 1.9 2.48 3.12 1.42L19.34 39.7l16.22 14.03c1.22 1.06 3.12.19 3.12-1.42V3.87c0-2.13-1.73-3.87-3.87-3.87Z" style="fill:#63bff3"/><path d="M29.05 11.22c-.51-.68-1.87-1.93-3.74-2.25-.45-.08-1.64-.21-2.99.18-1.19.35-2.19 1-3 1.94-2.28-2.57-5.25-2.15-6.14-1.94-1.57.36-2.76 1.12-3.64 2.34-1.05 1.46-1.49 3.11-1.3 4.89.13 1.22.55 2.46 1.25 3.69 1.04 1.85 2.95 3.87 5.67 6.01 1.89 1.49 3.56 2.53 3.75 2.64l.42.26.43-.26c.19-.12 1.96-1.21 3.93-2.76 2.83-2.22 4.73-4.31 5.66-6.2 1.59-3.25 1.49-6.13-.3-8.54Z" style="fill:#fff"/></svg>