<svg xmlns="http://www.w3.org/2000/svg" viewBox="0 0 249.33 86.45"><path d="M47.36 4.04h-.05c-.04.63-.04 1.54 0 2.73.02.6.03 1.19.05 1.79.02.6.04 1.2.08 1.81l.24 3.39c.07 1 .17 1.66.29 1.97.26.09.67.15 1.22.2.55.04 1.15.08 1.8.09.65.02 1.29.01 1.93-.01.64-.03 1.17-.07 1.59-.14.47-.07.83 0 1.08.24.24.23.38.49.39.79.02.32-.08.62-.29.91-.21.29-.53.47-.97.54-.42.05-.97.09-1.65.12s-1.37.04-2.05.04c-.7.02-1.34.02-1.93 0s-1-.05-1.25-.11a5.02 5.02 0 0 1-.92-.21c-.26-.09-.49-.22-.68-.39-.21-.19-.38-.45-.51-.78-.13-.32-.23-.75-.3-1.27-.04-.09-.07-.29-.09-.62-.03-.32-.06-.72-.09-1.2-.04-.47-.07-1.01-.1-1.6-.04-.6-.07-1.21-.11-1.84-.04-.63-.07-1.27-.09-1.91-.03-.64-.05-1.25-.07-1.83-.02-.56-.03-1.07-.03-1.54s0-.84.03-1.12c-.02-.84.17-1.46.56-1.87.39-.4 1.09-.6 2.09-.6h4.78c.46 0 .8.12 1.02.37.23.25.34.51.34.79 0 .3-.12.56-.35.8-.24.24-.57.36-1.01.36l-4.94.1Zm11.93-1.18c-.07-.46 0-.81.21-1.05.21-.25.46-.38.74-.42.3-.03.58.04.85.22s.44.48.51.88c.09.95.17 2.09.26 3.44s.17 2.79.24 4.33c.07 1.54.13 3.1.18 4.69.05 1.58.08 3.07.08 4.45 0 .47-.13.83-.38 1.08-.25.25-.53.37-.83.37-.32 0-.6-.12-.84-.35-.25-.24-.37-.6-.37-1.09 0-1.37-.01-2.78-.04-4.24-.03-1.46-.07-2.93-.12-4.4h-5.15c-.4 0-.71-.12-.91-.37-.2-.25-.29-.52-.28-.81 0-.28.1-.55.29-.8.19-.25.49-.38.89-.38h5.04c-.05-1.05-.11-2.05-.18-3-.07-.95-.14-1.79-.21-2.55ZM73.61 1.55h6.83c.74 0 1.23.14 1.5.43s.44.75.53 1.38c.07.53.11 1.12.12 1.8 0 .67 0 1.38-.04 2.12-.04.7-.09 1.38-.17 2.02-.08.65-.17 1.18-.28 1.6-.16.47-.39.81-.7 1.02-.31.21-.7.35-1.17.42-.44.05-.92.09-1.46.1s-1.06.03-1.59.03-1.01 0-1.46-.03c-.45-.02-.79-.05-1.04-.1a5.02 5.02 0 0 1-.92-.21c-.26-.09-.49-.22-.68-.39-.19-.19-.35-.45-.49-.78-.13-.32-.23-.75-.3-1.27-.05-.19-.11-.59-.17-1.18-.06-.59-.12-1.26-.17-2-.05-.7-.09-1.38-.1-2.04-.02-.66 0-1.14.03-1.46 0-.42.16-.77.49-1.06.32-.29.74-.42 1.25-.41Zm2.05 15.5c0 .51.02.98.07 1.41.04.43.09.8.14 1.12.42.09.77.15 1.05.18s.56.05.84.05c.26.02.55 0 .85-.03.31-.04.69-.08 1.14-.13.46-.02.81.09 1.05.31.25.23.38.5.39.81.02.3-.08.58-.3.85-.22.27-.56.43-1.04.49-.51.02-.95.04-1.34.07-.39.03-.75.04-1.1.04-.37 0-.74-.01-1.12-.04-.38-.03-.81-.07-1.3-.12-.26-.04-.53-.13-.79-.29-.26-.16-.5-.47-.71-.95-.05-.12-.1-.34-.14-.64-.04-.31-.08-.65-.12-1.04-.04-.37-.06-.74-.07-1.12 0-.38-.01-.7-.01-.96 0-.49.13-.86.38-1.1s.54-.37.85-.37.6.12.87.37.39.6.39 1.08Zm-.84-7.25c.23.07.57.12 1.04.14.46.03.95.04 1.46.04.53.02 1.02.01 1.5-.01s.84-.07 1.1-.12c.19-1.05.29-2.09.3-3.13s-.06-2-.2-2.89l-5.73.03c-.05 1.47-.03 2.69.08 3.65s.25 1.73.45 2.29Zm14.42 9.22h-.71c.05.58.03 1.15-.07 1.71s-.23.96-.41 1.21c-.3.38-.67.71-1.12.97-.45.26-1.1.39-1.96.39-.74 0-1.32-.14-1.76-.41-.44-.27-.78-.61-1.02-1.01-.21-.33-.34-.75-.38-1.26-.04-.51-.06-1.03-.04-1.58h-.34c-.46 0-.8-.11-1.04-.34s-.35-.49-.35-.79c-.02-.28.09-.54.33-.77s.59-.35 1.06-.35l7.88-.05c.42 0 .72.12.89.37.17.25.26.51.26.79-.04.28-.16.54-.37.78s-.5.35-.87.35Zm-1.89-3.23-4.2.03c-.46 0-.8-.12-1.02-.35-.23-.24-.34-.5-.34-.8 0-.28.11-.54.33-.79.22-.25.56-.37 1.04-.37h4.18c.42 0 .74.12.95.37.21.25.32.51.34.79 0 .3-.1.56-.32.8-.21.24-.53.35-.95.33Zm-.74 3.23c-.53.02-1 .03-1.42.03h-1.47c-.04.33-.03.68.03 1.05.05.37.13.6.24.71.11.17.26.32.46.42.2.1.46.16.77.16.33 0 .61-.1.84-.29.23-.19.38-.36.45-.5.05-.16.1-.39.13-.68.04-.3.03-.6-.03-.89Zm-1.1-16.6c-.09-.46-.03-.81.18-1.06s.46-.4.76-.43c.28-.04.56.04.84.22.28.18.46.49.53.91.02.37.04.73.08 1.09.04.36.07.71.11 1.04.03.35.07.69.09 1.02s.06.66.09.97h2.34c.39 0 .68.12.88.37.2.25.3.52.3.81s-.1.56-.29.8c-.19.24-.49.35-.89.35h-2.18c.04.54.06 1.06.08 1.54s.03.92.03 1.33c0 .47-.13.83-.38 1.08s-.53.37-.83.37c-.32.02-.6-.09-.84-.33-.25-.24-.37-.61-.37-1.12 0-1.05-.04-2.31-.1-3.77-.07-1.46-.21-3.19-.42-5.19ZM107.94 10.85c.46-.05.81.03 1.05.24.25.21.38.46.42.74.03.3-.05.58-.25.85s-.51.44-.93.51c-.95.07-1.98.13-3.11.18-1.13.05-2.3.09-3.51.1-1.21.02-2.39.01-3.53-.01s-2.22-.08-3.22-.17c-.47 0-.83-.13-1.06-.38s-.35-.53-.33-.83c0-.3.12-.57.37-.8.25-.24.61-.35 1.1-.35.95.09 1.96.14 3.05.17 1.09.03 2.21.03 3.36.01 1.16 0 2.29-.02 3.42-.07s2.18-.11 3.18-.2Zm-11.82 5.07c0 .51.02 1.02.07 1.54.04.52.09.93.14 1.25.65.19 1.45.33 2.42.42.96.09 1.97.14 3.02.16 1.05 0 2.07-.04 3.05-.11s1.84-.18 2.57-.34c.47-.07.84 0 1.12.22.27.22.42.49.43.8s-.09.62-.33.92-.61.48-1.12.55c-.79.14-1.74.25-2.86.33-1.12.08-2.26.11-3.42.09-1.16-.02-2.26-.08-3.31-.17-1.05-.1-1.88-.23-2.5-.41-.35-.02-.64-.13-.88-.34-.24-.21-.46-.55-.67-1.02-.05-.12-.1-.35-.14-.67-.04-.32-.07-.68-.09-1.06-.02-.4-.03-.8-.04-1.18 0-.38-.01-.71-.01-.97 0-.49.13-.86.39-1.1s.55-.37.87-.37.61.13.88.38.41.62.41 1.09ZM101.07.95c.75 0 1.49.07 2.2.21.71.14 1.34.37 1.88.68.54.33.98.76 1.32 1.27.33.52.5 1.15.5 1.91 0 .63-.14 1.19-.43 1.67s-.71.88-1.25 1.21c-.54.32-1.19.56-1.95.72-.75.16-1.59.24-2.5.24s-1.71-.07-2.45-.2c-.74-.13-1.39-.35-1.95-.67-.56-.3-1-.7-1.32-1.21-.32-.51-.47-1.16-.47-1.94s.21-1.46.63-1.96.95-.89 1.58-1.17a8.38 8.38 0 0 1 2.09-.58c.75-.1 1.45-.17 2.12-.18Zm.02 2.13c-.47 0-.95.03-1.43.09s-.92.15-1.3.28c-.4.14-.73.32-.97.55-.25.23-.37.51-.37.84 0 .63.33 1.13 1 1.48.67.36 1.6.5 2.81.43 1.37.05 2.35-.07 2.96-.38.6-.31.91-.78.93-1.43-.04-1.17-1.24-1.79-3.63-1.87ZM124.49 2.6c.21.53.42 1.1.64 1.73.22.63.45 1.29.68 1.97.24.68.47 1.38.71 2.09s.47 1.41.7 2.09c.44 1.38.84 2.67 1.21 3.85.37 1.18.64 2.07.81 2.67.05.51-.02.89-.22 1.16-.2.26-.44.42-.72.47-.28.05-.56 0-.84-.18-.28-.17-.46-.46-.55-.84-.14-.58-.34-1.29-.59-2.13-.25-.84-.54-1.74-.85-2.71-.3-.95-.6-1.92-.91-2.93a99.87 99.87 0 0 1-.83-2.88c-.1.81-.26 1.74-.46 2.8-.2 1.06-.43 2.11-.7 3.17s-.53 2.01-.8 2.88c-.27.87-.52 1.49-.75 1.88-.25.46-.54.74-.89.84-.35.11-.67.09-.95-.05-.26-.12-.46-.35-.58-.67-.12-.32-.06-.7.18-1.12.28-.49.59-1.29.92-2.39.33-1.1.66-2.34.97-3.7.32-1.33.6-2.69.87-4.08.26-1.39.48-2.64.66-3.74.05-.35.17-.62.37-.8.19-.18.4-.29.63-.3.54-.03.97.28 1.29.95Zm7.38.08c-.09-.44-.03-.78.18-1.04.21-.25.46-.4.76-.43.28-.04.56.04.83.22.27.18.44.49.51.91.07.84.15 1.85.24 3.02s.17 2.44.24 3.81h2c.39 0 .68.12.88.37.2.25.3.52.3.81s-.1.56-.29.8c-.19.24-.49.35-.89.35h-1.89c.05 1.33.1 2.66.13 3.99s.05 2.58.05 3.73c0 .47-.13.83-.38 1.08s-.53.37-.83.37c-.32.02-.6-.09-.84-.33-.25-.24-.37-.61-.37-1.12 0-1.37-.01-2.81-.04-4.33s-.07-3.03-.12-4.52c-.05-1.49-.12-2.89-.2-4.22a72.79 72.79 0 0 0-.28-3.48ZM143.38 7.93c-.02.09-.03.25-.03.49s0 .49.03.75.04.5.05.71c.02.21.04.32.08.34.33.12.76.21 1.29.25.53.04 1.09.06 1.68.04.6-.02 1.19-.05 1.77-.09.59-.04 1.12-.1 1.62-.17.47-.05.83.04 1.08.26.24.23.38.5.39.81 0 .32-.11.61-.32.89s-.53.44-.95.47c-.53.07-1.13.12-1.8.16-.67.04-1.34.05-1.98.05-.65.02-1.24.02-1.77 0s-.92-.05-1.17-.1c-.37-.05-.69-.12-.97-.2-.28-.08-.52-.19-.71-.33-.19-.14-.35-.32-.46-.54-.11-.22-.2-.5-.25-.85-.05-.21-.08-.47-.09-.77 0-.31-.01-.62-.01-.93 0-.33 0-.64.01-.93 0-.29.02-.53.04-.72 0-.4.14-.82.42-1.26.28-.42.78-.65 1.5-.68l5.54-.13c.05-.42.08-.78.08-1.06s-.05-.68-.16-1.17l-7.15.08c-.44.02-.77-.09-1-.33s-.34-.5-.34-.8c-.02-.3.08-.57.3-.83.22-.25.56-.38 1.04-.38l6.88-.03c.58 0 1.04.05 1.38.14.34.1.6.24.77.43.18.21.3.46.37.76s.13.66.18 1.08c.02.42.03.7.04.83 0 .13.01.24.01.33-.02.09-.04.22-.05.39s-.04.52-.05 1.02c0 .23-.04.46-.11.68s-.17.43-.31.6c-.14.18-.33.32-.56.43-.24.11-.52.17-.85.17l-5.46.13Zm-.05 13.32c0-.26-.02-.55-.05-.85s-.07-.61-.1-.91c-.04-.32-.07-.63-.12-.93-.04-.31-.07-.61-.07-.91-.1-.61 0-1.11.33-1.48.32-.38.77-.57 1.35-.59.67 0 1.48 0 2.44-.01.96 0 1.95-.02 2.97-.04 1.02 0 2.01 0 2.98-.03.97-.02 1.8-.03 2.48-.03.26 0 .5.1.71.3s.34.48.39.83c.05.37.1.77.14 1.2l.12 1.27c.04.42.06.83.08 1.23s.03.76.03 1.08c.02.32-.1.6-.34.85-.25.25-.51.39-.79.41-.23.04-.53.07-.92.09-.39.03-.82.05-1.3.08-.48.03-1 .06-1.55.09-.55.04-1.12.06-1.69.08-.56.02-1.12.03-1.67.04-.55 0-1.09.01-1.62.01-1.03 0-1.8-.03-2.29-.08-.16-.02-.33-.08-.51-.18-.18-.11-.35-.23-.5-.38-.15-.15-.27-.32-.37-.53-.1-.2-.14-.41-.14-.62Zm2.23-3.55c.02.21.04.45.07.7s.05.53.07.81c.02.26.03.53.05.78.02.26.04.49.08.7.35.05.9.08 1.64.09.74 0 1.55 0 2.4-.01.89-.02 1.76-.05 2.59-.11a32.8 32.8 0 0 0 2.09-.19l-.08-1.54c0-.26 0-.51-.03-.74-.02-.23-.04-.42-.05-.58-.63.02-1.33.03-2.1.04s-1.56.01-2.36.01-1.59 0-2.35.01c-.76 0-1.43.01-2.01.01Zm8.25-15.26c-.09-.46-.03-.81.18-1.06s.46-.4.76-.43c.28-.04.56.04.84.22.28.18.46.48.53.88l.21 2.4c.07.81.13 1.6.18 2.35h2.31c.39 0 .68.13.88.38.2.25.3.52.3.8 0 .3-.1.57-.29.81-.19.25-.49.37-.89.37h-2.15c.02.56.03 1.09.05 1.58s.03.92.03 1.29c0 .47-.13.83-.38 1.08s-.53.37-.83.37c-.32 0-.6-.12-.84-.35-.25-.24-.37-.6-.37-1.09 0-1.07-.04-2.43-.1-4.1-.07-1.66-.21-3.49-.42-5.49ZM176.11 18.89c-.35.07-.76.13-1.23.18-.47.05-.98.1-1.54.13-.55.04-1.13.07-1.75.09-.61.03-1.23.04-1.84.04-.61.02-1.21.03-1.8.03s-1.13 0-1.64-.01c-.51 0-.96-.02-1.35-.04s-.7-.04-.91-.08c-.07.24-.09.52-.05.83 0 .15 0 .3.01.44 0 .14.01.27.01.39.75.05 1.68.1 2.78.13s2.23.05 3.39.05c1.16.02 2.23 0 3.22-.03.99-.04 1.76-.1 2.3-.18.42-.04.74.05.97.25.23.2.35.45.37.73.03.3-.05.58-.26.85-.21.27-.53.44-.97.53-.3.04-.67.06-1.1.08-.44.02-.96.03-1.58.05-.6.02-1.2.03-1.83.04-.62 0-1.26.01-1.9.01a87.5 87.5 0 0 1-3.73-.08c-.58-.02-1.07-.04-1.48-.05-.41-.02-.74-.04-.98-.08-.4-.05-.71-.2-.92-.45-.21-.25-.37-.5-.47-.76-.09-.23-.15-.51-.18-.85-.04-.34-.05-.7-.05-1.06s0-.72.03-1.05c.02-.33.03-.59.05-.79.02-.17.04-.35.08-.54.03-.18.1-.34.2-.47.1-.13.23-.24.39-.33.17-.09.4-.13.7-.13.67.12 1.52.21 2.56.25 1.04.04 2.14.07 3.3.07 1.12-.02 2.22-.05 3.28-.11 1.07-.05 1.97-.13 2.71-.24-.02-.07-.02-.16-.01-.25s.01-.2.01-.31 0-.22-.03-.35c-.02-.12-.04-.26-.05-.4-.58.02-1.39.03-2.44.03h-3.31c-1.16 0-2.28 0-3.36-.01-1.09 0-1.95-.02-2.6-.04-.46 0-.79-.13-1-.38-.21-.25-.31-.53-.31-.84 0-.29.11-.56.33-.8.22-.24.55-.36.99-.36.59.04 1.42.06 2.48.08 1.06.02 2.19.04 3.4.05h3.51c1.13 0 2.06-.02 2.8-.05.16 0 .32 0 .49.03.17.02.33.06.49.13.16.07.3.18.42.33.12.15.21.35.26.62.03.25.07.56.09.95.03.39.04.77.04 1.16.02.39.02.74.01 1.05 0 .32-.01.54-.01.66-.04.33-.16.56-.37.68s-.4.19-.58.21Zm.13-10.27c.46-.05.81.03 1.05.25.25.22.38.48.39.78.03.3-.04.58-.24.85-.19.27-.5.42-.92.46-.95.07-1.98.13-3.1.17s-2.27.07-3.44.09c-1.17 0-2.33-.01-3.48-.04s-2.22-.08-3.22-.17c-.47 0-.83-.13-1.06-.38s-.35-.52-.35-.8c0-.3.12-.56.37-.8s.62-.35 1.13-.33c.95.09 1.96.14 3.05.17 1.09.03 2.19.03 3.31.01 1.12 0 2.24-.02 3.35-.07 1.11-.04 2.17-.11 3.17-.2Zm-11.53-6.2h-.03c-.04.42-.04.85-.01 1.29.03.44.09.77.2 1 .3.09.89.16 1.79.21.47.02.97.03 1.48.04.52 0 1.05.01 1.62.01s1.11 0 1.64-.01c.53 0 1.05-.02 1.56-.04 1.03-.04 1.76-.09 2.18-.16.47-.07.84 0 1.09.24s.39.49.41.79c.02.31-.08.62-.29.91-.21.29-.53.47-.97.54-.23.04-.53.06-.89.08-.37.02-.82.04-1.37.05-.54.02-1.09.03-1.64.03h-3.36c-.53 0-1.05 0-1.54-.03-.49-.02-.89-.03-1.2-.04-.31 0-.52-.03-.64-.07-.35-.05-.66-.12-.92-.21s-.49-.22-.68-.39c-.19-.19-.35-.45-.49-.77s-.23-.75-.3-1.27c-.05-.17-.09-.34-.1-.5l-.05-.47c0-.16 0-.33.01-.51 0-.18.01-.4.01-.64 0-.84.19-1.46.58-1.87.38-.4 1.08-.6 2.08-.6l10.64.1c.46 0 .8.12 1.02.37.23.25.34.51.34.79s-.12.54-.35.77c-.24.24-.57.36-1.01.36l-10.8.03ZM184.46 1.63c1.42 0 2.53.28 3.32.84.8.56 1.39 1.27 1.77 2.13.38.86.62 1.81.71 2.85.09 1.04.14 2.04.16 3.01-.02 1.31-.1 2.47-.25 3.48-.15 1.01-.42 1.85-.83 2.54-.4.68-.95 1.2-1.65 1.55-.7.35-1.6.53-2.71.53-1.66.05-2.98-.61-3.94-2-.95-1.38-1.4-3.26-1.37-5.62-.02-1.21.02-2.36.12-3.47s.31-2.1.64-2.99c.35-.86.84-1.55 1.47-2.06s1.48-.78 2.55-.78Zm.03 2.31c-.56.02-1.01.24-1.34.67-.33.43-.59.98-.76 1.64-.19.67-.31 1.41-.37 2.22-.05.81-.08 1.62-.08 2.4-.04 1.84.26 3.19.89 4.05.63.84 1.37 1.25 2.21 1.23.7.02 1.25-.1 1.66-.34.4-.25.7-.61.89-1.1.19-.47.31-1.06.37-1.76.05-.7.09-1.5.1-2.39-.02-.89-.06-1.74-.12-2.53-.06-.8-.21-1.49-.43-2.09-.25-.61-.6-1.09-1.06-1.44-.46-.35-1.12-.53-1.96-.55Zm10.19-1.16c-.09-.46-.03-.81.18-1.05.21-.25.46-.38.76-.42.28-.04.56.04.83.22.27.18.44.48.51.88.09.95.17 2.09.26 3.44s.17 2.79.24 4.33c.07 1.54.13 3.1.18 4.69.05 1.59.08 3.07.08 4.45 0 .47-.13.83-.38 1.08-.25.25-.53.37-.83.37s-.57-.12-.81-.35c-.25-.24-.37-.6-.37-1.09 0-1.38-.02-2.83-.05-4.35-.04-1.51-.08-3.02-.13-4.5s-.12-2.89-.2-4.22a72.79 72.79 0 0 0-.28-3.48ZM83.75 40.72c.46-.05.81.04 1.05.26.25.23.38.48.39.76.04.3-.04.58-.24.85-.19.27-.5.42-.92.46-.95.07-1.98.13-3.1.17-1.12.04-2.27.08-3.43.09-1.16 0-2.32-.01-3.46-.04s-2.22-.08-3.22-.17c-.47 0-.83-.13-1.06-.38-.24-.25-.35-.53-.35-.83 0-.28.12-.54.37-.77.25-.24.62-.36 1.13-.36.75.07 1.56.12 2.42.16.86.04 1.73.05 2.63.05l-.03-1.39c-.02-.47.09-.83.32-1.08s.49-.38.77-.39.54.09.78.33c.24.24.37.59.39 1.06l.05 1.45c.95 0 1.89-.02 2.82-.07.94-.04 1.83-.1 2.69-.17Zm-7.62 5.41v-.74c0-.44.12-.77.35-1 .24-.23.5-.35.8-.37.28 0 .54.11.79.34.24.23.37.57.37 1.02v.71h4.76c.42 0 .72.12.91.37.18.25.27.51.25.79-.02.28-.13.54-.34.77-.21.24-.5.35-.87.35h-1.26c.22.25.42.55.58.91.16.36.25.8.25 1.33s-.15.98-.45 1.38c-.3.39-.69.71-1.18.93-.49.25-1.05.43-1.69.56-.64.13-1.32.2-2.06.2-1.59 0-2.88-.25-3.88-.74-.49-.25-.87-.56-1.15-.95-.28-.38-.42-.85-.42-1.39 0-.47.07-.9.2-1.27.13-.38.29-.7.49-.96H71.4c-.46 0-.8-.11-1.04-.34a1.05 1.05 0 0 1-.35-.79c0-.28.11-.54.34-.78.23-.24.58-.35 1.05-.35h4.73Zm6.57-11.98h-2.81c.58.58 1.19 1.13 1.84 1.65.65.53 1.23.95 1.76 1.26.32.25.49.52.54.83.04.31-.02.56-.2.77-.18.23-.44.36-.8.41-.36.04-.76-.08-1.2-.38-.26-.16-.61-.41-1.05-.76-.44-.35-.88-.72-1.34-1.1-.46-.4-.88-.78-1.26-1.13-.39-.35-.66-.62-.81-.81-.3.35-.67.73-1.1 1.13-.44.4-.89.79-1.37 1.16-.49.37-.96.7-1.41 1-.45.3-.82.53-1.12.68-.44.37-.84.54-1.21.51-.37-.03-.65-.16-.84-.41-.19-.23-.26-.51-.21-.85.05-.34.29-.65.71-.93.63-.37 1.3-.83 2-1.38.7-.55 1.32-1.1 1.86-1.64h-3.2c-.49.02-.85-.1-1.09-.34s-.35-.51-.33-.79c0-.3.12-.57.35-.81s.59-.37 1.06-.37h11.19c.47 0 .81.12 1.02.37.21.25.31.51.31.79-.02.3-.14.56-.37.8-.23.24-.54.35-.95.35Zm-8.41 16.18c0 .42.29.77.87 1.05.58.28 1.34.42 2.29.42.4 0 .79-.03 1.16-.08.37-.05.69-.13.96-.25.27-.11.49-.25.66-.42a.83.83 0 0 0 .25-.62c0-.38-.09-.71-.26-.97-.18-.26-.41-.47-.71-.63-.3-.16-.65-.27-1.05-.33s-.82-.09-1.26-.09c-.35 0-.7.04-1.05.11-.35.07-.66.17-.92.32-.28.14-.5.33-.67.58-.17.25-.25.55-.25.92ZM92.12 33.15c1.42 0 2.53.28 3.32.84.8.56 1.39 1.27 1.77 2.13.38.86.62 1.81.71 2.85.09 1.04.14 2.04.16 3.01-.02 1.31-.1 2.47-.25 3.48-.15 1.01-.42 1.85-.83 2.54-.4.68-.95 1.2-1.65 1.55-.7.35-1.6.53-2.71.53-1.66.05-2.98-.61-3.94-2-.95-1.38-1.4-3.26-1.37-5.62-.02-1.21.02-2.36.12-3.47s.31-2.1.64-2.99c.35-.86.84-1.55 1.47-2.06s1.48-.78 2.55-.78Zm.03 2.31c-.56.02-1.01.24-1.34.67-.33.43-.59.98-.76 1.64-.19.67-.31 1.41-.37 2.22-.05.81-.08 1.62-.08 2.4-.04 1.84.26 3.19.89 4.05.63.84 1.37 1.25 2.21 1.23.7.02 1.25-.1 1.66-.34.4-.25.7-.61.89-1.1.19-.47.31-1.06.37-1.76.05-.7.09-1.5.1-2.39-.02-.89-.06-1.74-.12-2.53-.06-.8-.21-1.49-.43-2.09-.25-.61-.6-1.09-1.06-1.44-.46-.35-1.12-.53-1.96-.55Zm8.98-1.26c-.09-.44-.03-.78.18-1.04.21-.25.46-.4.76-.43.28-.04.56.04.83.22.27.18.44.49.51.91.07.84.15 1.85.24 3.02s.17 2.44.24 3.81h2c.39 0 .68.12.88.37.2.25.3.52.3.81s-.1.56-.29.8c-.19.24-.49.35-.89.35H104c.05 1.33.1 2.66.13 3.99s.05 2.58.05 3.73c0 .47-.13.83-.38 1.08s-.53.37-.83.37c-.32.02-.6-.09-.84-.33-.25-.24-.37-.61-.37-1.12 0-1.37-.01-2.81-.04-4.33s-.07-3.03-.12-4.52c-.05-1.49-.12-2.89-.2-4.22a72.79 72.79 0 0 0-.28-3.48ZM116.21 31.94v.63h3.07c.47 0 .81.12 1.02.37.21.25.31.52.31.81-.02.3-.14.57-.37.8s-.54.35-.95.35h-8.12c-.49 0-.85-.12-1.09-.35s-.35-.5-.33-.8c0-.3.12-.57.35-.81.24-.25.59-.37 1.06-.37h2.73l-.05-.6c0-.38.12-.68.35-.89.24-.21.5-.32.8-.34.3 0 .57.1.81.29.25.19.37.5.37.92Zm-1.63 4.15c1.96.02 3.44.29 4.44.83 1 .53 1.51 1.43 1.52 2.69 0 .68-.12 1.25-.37 1.71-.25.46-.6.82-1.06 1.09-.46.27-1.03.46-1.71.58-.67.11-1.44.17-2.3.17-.67 0-1.31-.03-1.94-.1-.63-.07-1.2-.23-1.71-.47-.49-.24-.89-.59-1.2-1.05-.31-.46-.46-1.06-.46-1.81 0-.68.13-1.26.38-1.72.25-.46.61-.84 1.06-1.12.44-.26.95-.46 1.52-.58.58-.12 1.18-.19 1.81-.21Zm10.93 14.37c-.35.05-.76.09-1.23.12s-.99.05-1.54.08a79.876 79.876 0 0 1-3.56.1c-.61.02-1.21.03-1.8.04h-1.67c-.53 0-1.01-.02-1.44-.03-.44 0-.8-.03-1.08-.07-.04.14-.05.28-.05.4v.38c0 .14 0 .28.03.4s.03.25.03.37c.37.04.8.06 1.3.08s1.04.03 1.62.04c.58 0 1.18.01 1.81.01h1.89c1.26 0 2.43-.02 3.51-.07 1.08-.04 1.89-.11 2.43-.2.4-.04.72.05.96.26s.36.44.38.7c.02.28-.07.55-.28.82-.2.27-.53.44-.98.51-.3.04-.69.07-1.17.09-.48.03-1.02.06-1.62.09-.61.02-1.27.03-1.96.05-.69.02-1.39.03-2.09.03h-2.11c-.67 0-1.31 0-1.9-.03-.6 0-1.12-.01-1.58-.04-.46-.03-.81-.05-1.05-.07-.4-.05-.71-.2-.93-.43-.22-.24-.33-.5-.33-.78-.07-.28-.11-.59-.13-.92-.02-.33-.02-.67 0-1.02 0-.33 0-.65.03-.96.02-.31.04-.56.05-.75.03-.37.18-.67.45-.92s.77-.34 1.52-.29c.68.07 1.51.11 2.47.13.96.02 1.97.03 3.02.03 1.05-.02 2.08-.04 3.09-.08 1.01-.04 1.9-.08 2.69-.13-.02-.07-.03-.16-.03-.28v-.38c0-.14 0-.28-.01-.42 0-.14-.02-.28-.04-.42-.31.02-.68.04-1.1.05-.42.02-.88.04-1.38.05-.5.02-1.02.03-1.58.04s-1.11.01-1.67.01c-1.16.02-2.25.02-3.3.01s-1.86-.04-2.46-.09c-.4-.04-.71-.18-.92-.45-.21-.26-.32-.54-.34-.84 0-.28.1-.54.3-.77.2-.24.52-.35.96-.33.74.05 1.63.09 2.68.1 1.05.02 2.15.02 3.31 0 1.16 0 2.25-.01 3.3-.04 1.04-.03 1.93-.07 2.67-.12.14 0 .29 0 .46.03.17.02.33.06.49.13.16.07.3.18.42.33.12.15.21.35.26.62.05.25.09.56.12.96.03.39.04.79.04 1.19.02.4.02.77.01 1.1 0 .33-.01.56-.01.68-.04.31-.16.53-.37.66-.21.12-.4.19-.58.21Zm-10.9-12.19c-.74 0-1.34.08-1.83.25-.48.17-.72.56-.72 1.17 0 .35.09.62.26.8.17.18.41.32.71.41.28.1.61.16 1 .17.38 0 .78.01 1.18.01 1 0 1.74-.08 2.23-.25.49-.17.74-.54.74-1.12 0-.49-.25-.85-.76-1.09-.51-.24-1.44-.35-2.81-.35Zm8.7-5.28c-.09-.46-.03-.81.18-1.06s.46-.4.76-.43c.3-.04.58.04.85.22s.44.48.51.88c.04.67.09 1.27.16 1.81.02.28.04.56.05.83.02.27.04.53.08.78h1.92c.39 0 .68.12.88.37.2.25.3.52.3.81s-.1.56-.29.8c-.19.24-.49.36-.89.36h-1.76c0 .26 0 .51.01.75 0 .24.01.47.01.7 0 .25 0 .48.01.7 0 .22.01.43.01.64 0 .47-.13.83-.38 1.08s-.53.37-.83.37c-.32.02-.6-.09-.84-.33-.25-.24-.37-.61-.37-1.12v-1.6c0-.54 0-1.14-.03-1.79-.04-.63-.08-1.33-.13-2.1s-.13-1.66-.24-2.65ZM139.8 33.07h6.83c.74 0 1.23.14 1.5.43s.44.75.53 1.38c.07.53.11 1.12.12 1.8 0 .67 0 1.38-.04 2.12-.04.7-.09 1.38-.17 2.02-.08.65-.17 1.18-.28 1.6-.16.47-.39.81-.7 1.02-.31.21-.7.35-1.17.42-.44.05-.92.09-1.46.1s-1.06.03-1.59.03-1.01 0-1.46-.03c-.45-.02-.79-.05-1.04-.1a5.02 5.02 0 0 1-.92-.21c-.26-.09-.49-.22-.68-.39-.19-.19-.35-.45-.49-.78-.13-.32-.23-.75-.3-1.27-.05-.19-.11-.59-.17-1.18-.06-.59-.12-1.26-.17-2-.05-.7-.09-1.38-.1-2.04-.02-.66 0-1.14.03-1.46 0-.42.16-.77.49-1.06.32-.29.74-.42 1.25-.41Zm1.21 8.25c.23.07.57.12 1.04.14.46.03.95.04 1.46.04.53.02 1.02.01 1.5-.01s.84-.07 1.1-.12c.19-1.05.29-2.09.3-3.13s-.06-2-.2-2.89l-5.73.03c-.05 1.47-.03 2.69.08 3.65s.25 1.73.45 2.29Zm2.5 6.23c0 .26 0 .54.01.81 0 .28.02.56.04.84.02.28.04.54.07.78.03.24.06.43.09.59.21.05.48.09.81.12.33.03.71.05 1.14.08.43.03.89.04 1.38.05.49 0 .99.01 1.5.01s.98 0 1.48-.01c.5 0 .97-.02 1.41-.03.44 0 .84-.02 1.2-.04s.65-.04.88-.08c.44-.02.78.09 1.02.31.25.23.38.5.39.81.02.3-.08.58-.29.85-.21.27-.55.43-1.02.49-.26 0-.59 0-.97.03-.39.02-.82.03-1.3.04-.48 0-.99.02-1.52.03s-1.07.01-1.62.01-1.11 0-1.64-.01-1.04-.02-1.51-.04-.9-.04-1.29-.05-.7-.04-.95-.08c-.26-.04-.53-.13-.79-.29-.26-.16-.5-.47-.71-.95-.05-.12-.1-.36-.14-.72-.04-.36-.07-.76-.09-1.2-.04-.44-.06-.87-.07-1.3 0-.43-.01-.78-.01-1.04 0-.49.13-.86.38-1.1.25-.25.54-.37.85-.37s.6.12.87.37.39.6.39 1.08Zm8.3-13.55c-.09-.46-.03-.81.18-1.06s.46-.4.76-.43c.28-.04.56.04.84.22.28.18.46.49.53.91l.34 4.12h2.15c.39 0 .68.12.88.37s.3.52.3.81-.1.57-.3.8-.49.35-.88.35h-2.02c.05.89.09 1.71.12 2.46s.04 1.37.04 1.88c0 .47-.13.83-.38 1.08-.25.25-.53.37-.83.37-.32.02-.6-.09-.84-.33-.25-.24-.37-.61-.37-1.12s0-1.18-.01-1.96c0-.78-.04-1.64-.09-2.59-.04-.91-.09-1.87-.16-2.88-.07-1.01-.16-2.01-.26-3.01ZM169.09 35.62h-7.75c-.47.02-.83-.1-1.06-.34-.24-.25-.35-.51-.35-.79 0-.3.12-.57.35-.81.24-.24.59-.37 1.06-.37h2.47l-.03-1.13c-.02-.47.1-.82.34-1.05s.51-.34.79-.34c.3 0 .57.12.81.35s.37.58.37 1.04l.03 1.13h2.94c.47 0 .81.12 1.02.37.21.25.31.51.31.79-.02.3-.14.57-.37.8s-.54.35-.95.35Zm.84 5.56c0 .79-.13 1.47-.38 2.03-.25.56-.59 1.01-1.01 1.34-.44.35-.94.61-1.51.76-.57.16-1.18.24-1.83.24-1.49 0-2.64-.34-3.47-1.03-.82-.68-1.23-1.79-1.23-3.32 0-.84.12-1.55.37-2.12.25-.57.59-1.02 1.02-1.36.42-.35.91-.6 1.48-.74s1.18-.21 1.83-.21 1.26.08 1.83.25c.57.17 1.07.43 1.51.78.42.35.76.8 1.01 1.36.25.55.38 1.23.38 2.02Zm-5.15 7.13c0 1.02.07 1.73.21 2.15.19.05.46.09.8.12s.74.04 1.18.05c.45 0 .93.02 1.44.03.52 0 1.04.01 1.56.01s1.09 0 1.63-.01l1.54-.03c.48 0 .93-.02 1.34-.04s.77-.04 1.06-.05c.46-.05.81.04 1.06.26.25.23.39.5.41.81 0 .32-.11.62-.33.91-.22.29-.56.46-1.04.51-.26 0-.6 0-1 .03-.4.02-.86.03-1.38.04-.52 0-1.06.02-1.64.03-.58 0-1.17.01-1.76.01s-1.18 0-1.75-.01c-.57 0-1.13-.02-1.67-.04s-1.01-.04-1.39-.05-.7-.04-.95-.08c-.26-.04-.53-.13-.79-.29-.26-.16-.5-.47-.71-.95-.05-.12-.1-.32-.14-.59-.04-.27-.08-.57-.12-.91-.04-.33-.06-.67-.07-1 0-.33-.01-.63-.01-.89-.02-.42.11-.74.37-.97s.55-.35.87-.37.6.08.87.29c.26.21.39.55.39 1.03Zm2.97-7.11c-.04-.89-.29-1.47-.76-1.75-.47-.28-1.07-.42-1.79-.42s-1.3.14-1.79.42c-.49.28-.73.86-.71 1.75-.07.85.15 1.42.66 1.7.53.26 1.14.39 1.84.39.37 0 .71-.03 1.01-.09.31-.06.57-.17.8-.33.23-.16.41-.37.54-.64.13-.27.2-.61.2-1.03Zm6.28-7.18c-.09-.46-.03-.81.18-1.06s.46-.4.76-.43c.28-.04.56.04.83.22.27.18.44.49.51.91.05.67.11 1.38.17 2.15.06.77.12 1.55.17 2.34h2.13c.39 0 .68.12.88.37.2.25.3.52.3.81s-.1.56-.29.8c-.19.24-.49.35-.89.35h-1.97c.05 1 .09 1.93.12 2.79.03.86.04 1.54.04 2.05 0 .47-.13.83-.38 1.08s-.53.37-.83.37c-.31.02-.6-.09-.84-.33-.25-.24-.37-.61-.37-1.12s0-1.22-.03-2.09c-.02-.87-.04-1.83-.08-2.88-.04-1.05-.09-2.12-.16-3.21-.07-1.08-.16-2.13-.26-3.13ZM3.02 72.19c.25.09.63.15 1.14.18s1.07.05 1.67.05 1.22-.02 1.81-.05c.6-.04 1.11-.09 1.55-.16.47-.07.83 0 1.06.22.24.22.36.49.38.8.02.32-.08.62-.29.91s-.53.47-.97.54c-.42.05-.96.09-1.62.12s-1.32.04-1.98.04-1.28 0-1.84-.03c-.56-.02-.96-.05-1.21-.11-.35-.05-.66-.12-.92-.21s-.49-.22-.68-.39c-.19-.19-.35-.45-.49-.77s-.23-.75-.3-1.27c-.05-.19-.11-.57-.16-1.14s-.1-1.19-.13-1.85c-.04-.65-.05-1.28-.05-1.91s.02-1.08.05-1.38c0-.46.13-.8.39-1.02s.54-.34.84-.34c.32 0 .6.11.84.34.25.23.37.56.37 1-.02.4-.02.9-.01 1.5s.03 1.21.07 1.84c.05.63.11 1.23.18 1.79s.17 1 .29 1.31Zm7.11 5.17c1.15 0 2.14.11 2.96.32.82.21 1.5.5 2.04.87s.94.8 1.19 1.3.38 1.04.38 1.62c0 1.42-.52 2.42-1.57 3-1.03.6-2.8.9-5.3.9-2.36 0-4.1-.3-5.22-.9-1.1-.6-1.65-1.73-1.65-3.4 0-1.32.61-2.27 1.84-2.85s3-.87 5.32-.87Zm.17 2.26c-.7 0-1.35.03-1.94.09s-1.1.15-1.52.28c-.42.12-.75.29-.99.5a.95.95 0 0 0-.35.74c-.02.65.35 1.14 1.12 1.47.76.33 1.83.5 3.19.5s2.54-.11 3.38-.34c.83-.23 1.26-.67 1.27-1.31-.02-.54-.33-1-.95-1.37-.61-.37-1.68-.55-3.21-.55Zm3.6-14.16c-.09-.46-.03-.81.18-1.06s.46-.4.76-.43c.3-.04.58.04.85.22s.44.49.51.91c.02.25.04.49.07.72s.05.47.07.7h1.97c.39 0 .67.13.87.38.19.25.3.53.31.83 0 .3-.1.57-.3.81s-.49.37-.88.37h-1.76c0 .19 0 .37.03.54s.03.34.03.51l.08.97h1.63c.39 0 .67.13.87.38.19.25.3.52.31.8 0 .3-.1.57-.3.81s-.49.37-.88.37H16.8c0 .21 0 .41.01.6 0 .19.01.37.01.53 0 .47-.13.83-.38 1.08-.25.25-.53.37-.83.37-.3.02-.57-.09-.81-.33-.25-.24-.37-.61-.37-1.12 0-1.05-.04-2.31-.1-3.77-.07-1.46-.21-3.19-.42-5.19ZM23.56 64.6h6.83c.74 0 1.23.14 1.5.43s.44.75.53 1.38c.07.53.11 1.12.12 1.8 0 .67 0 1.38-.04 2.12-.04.7-.09 1.38-.17 2.02-.08.65-.17 1.18-.28 1.6-.16.47-.39.81-.7 1.02-.31.21-.7.35-1.17.42-.44.05-.92.09-1.46.1s-1.06.03-1.59.03-1.01 0-1.46-.03c-.45-.02-.79-.05-1.04-.1a5.02 5.02 0 0 1-.92-.21c-.26-.09-.49-.22-.68-.39-.19-.19-.35-.45-.49-.78-.13-.32-.23-.75-.3-1.27-.05-.19-.11-.59-.17-1.18-.06-.59-.12-1.26-.17-2-.05-.7-.09-1.38-.1-2.04-.02-.66 0-1.14.03-1.46 0-.42.16-.77.49-1.06.32-.29.74-.42 1.25-.41Zm1.21 8.25c.23.07.57.12 1.04.14.46.03.95.04 1.46.04.53.02 1.02.01 1.5-.01s.84-.07 1.1-.12c.19-1.05.29-2.09.3-3.13s-.06-2-.2-2.89l-5.73.03c-.05 1.47-.03 2.69.08 3.65s.25 1.73.45 2.29Zm7.29 4.52c1.15 0 2.14.11 2.96.32.82.21 1.5.5 2.04.87s.94.8 1.19 1.3.38 1.04.38 1.62c0 1.42-.52 2.42-1.57 3-1.03.6-2.8.9-5.3.9-2.36 0-4.1-.3-5.22-.9-1.1-.6-1.65-1.73-1.65-3.4 0-1.32.61-2.27 1.84-2.85s3-.87 5.32-.87Zm.17 2.26c-.7 0-1.35.03-1.94.09s-1.1.15-1.52.28c-.42.12-.75.29-.99.5a.95.95 0 0 0-.35.74c-.02.65.35 1.14 1.12 1.47.76.33 1.83.5 3.19.5s2.54-.11 3.38-.34c.83-.23 1.26-.67 1.27-1.31-.02-.54-.33-1-.95-1.37-.61-.37-1.68-.55-3.21-.55Zm4.89-14.16c-.09-.46-.03-.81.18-1.06s.46-.4.76-.43c.3-.04.58.04.85.22s.44.49.51.91c.07.46.14 1.13.21 2.04.07.9.14 1.84.21 2.82.07.96.12 1.89.16 2.79.05.88.08 1.47.08 1.79 0 .47-.13.82-.39 1.05s-.54.34-.84.34-.57-.11-.83-.34-.37-.58-.35-1.05c0-.33-.01-.81-.04-1.45-.03-.63-.07-1.31-.12-2.05h-2.63c-.42 0-.73-.12-.92-.37-.19-.25-.29-.52-.29-.81 0-.28.1-.55.3-.8.2-.25.5-.38.91-.38h2.47c-.04-.33-.06-.66-.08-.97-.02-.32-.04-.61-.05-.89-.04-.28-.06-.53-.08-.76-.02-.23-.03-.42-.03-.58ZM46.81 64.67c1.42 0 2.53.28 3.32.84.8.56 1.39 1.27 1.77 2.13.38.86.62 1.81.71 2.85.09 1.04.14 2.04.16 3.01-.02 1.31-.1 2.47-.25 3.48-.15 1.01-.42 1.85-.83 2.54-.4.68-.95 1.2-1.65 1.55-.7.35-1.6.53-2.71.53-1.66.05-2.98-.61-3.94-2-.95-1.38-1.4-3.26-1.37-5.62-.02-1.21.02-2.36.12-3.47s.31-2.1.64-2.99c.35-.86.84-1.55 1.47-2.06s1.48-.78 2.55-.78Zm.03 2.31c-.56.02-1.01.24-1.34.67-.33.43-.59.98-.76 1.64-.19.67-.31 1.41-.37 2.22-.05.81-.08 1.62-.08 2.4-.04 1.84.26 3.19.89 4.05.63.84 1.37 1.25 2.21 1.23.7.02 1.25-.1 1.66-.34.4-.25.7-.61.89-1.1.19-.47.31-1.06.37-1.76.05-.7.09-1.5.1-2.39-.02-.89-.06-1.74-.12-2.53-.06-.8-.21-1.49-.43-2.09-.25-.61-.6-1.09-1.06-1.44-.46-.35-1.12-.53-1.96-.55Zm10.19-1.16c-.09-.46-.03-.81.18-1.05.21-.25.46-.38.76-.42.28-.04.56.04.83.22.27.18.44.48.51.88.09.95.17 2.09.26 3.44s.17 2.79.24 4.33c.07 1.54.13 3.1.18 4.69.05 1.59.08 3.07.08 4.45 0 .47-.13.83-.38 1.08-.25.25-.53.37-.83.37s-.57-.12-.81-.35c-.25-.24-.37-.6-.37-1.09 0-1.38-.02-2.83-.05-4.35-.04-1.51-.08-3.02-.13-4.5s-.12-2.89-.2-4.22a72.79 72.79 0 0 0-.28-3.48ZM77.44 77.89c.05 0 .09 0 .1-.03-.04-1.1-.07-2.22-.09-3.35-.03-1.13-.07-2.22-.12-3.27s-.11-2.04-.18-2.98c-.07-.94-.14-1.78-.21-2.54-.09-.44-.03-.78.18-1.04.21-.25.46-.4.76-.43.3-.04.58.04.85.22s.44.49.51.91c.09.95.18 2.09.28 3.44s.18 2.79.25 4.33.13 3.1.17 4.69c.04 1.58.07 3.06.07 4.43 0 .47-.13.83-.38 1.08s-.53.37-.83.37c-.32.02-.6-.09-.84-.33-.25-.24-.37-.61-.37-1.12v-2.05c-.95.11-2.03.2-3.24.28-1.22.08-2.46.15-3.72.22-1.28.07-2.52.12-3.73.16-1.21.04-2.27.05-3.18.05-.47 0-.83-.12-1.06-.37s-.35-.52-.35-.81c-.02-.28.09-.55.33-.8.24-.25.61-.38 1.12-.38.74 0 1.67-.01 2.81-.04 1.14-.03 2.35-.07 3.63-.14 1.28-.05 2.56-.12 3.83-.21s2.42-.18 3.42-.29ZM67.43 64.44c1.96 0 3.44.41 4.43 1.24.99.82 1.5 2.16 1.54 4.02-.02.74-.15 1.42-.39 2.06-.25.64-.6 1.2-1.08 1.67a5.1 5.1 0 0 1-1.68 1.12c-.67.27-1.43.4-2.29.38-.61.02-1.23-.07-1.87-.25-.63-.18-1.2-.47-1.71-.85-.51-.39-.92-.88-1.25-1.48-.32-.6-.49-1.33-.49-2.17 0-1 .13-1.85.38-2.56s.61-1.3 1.06-1.77c.44-.47.95-.82 1.52-1.05a4.85 4.85 0 0 1 1.81-.34Zm.03 2.31c-.93 0-1.59.33-2 1-.37.67-.55 1.45-.55 2.36 0 .7.31 1.29.92 1.76.65.47 1.38.7 2.21.68.49 0 .92-.08 1.3-.24.38-.16.69-.36.93-.62.25-.25.43-.55.56-.89.13-.34.2-.7.2-1.06-.02-.42-.07-.81-.14-1.18a1.97 1.97 0 0 0-.49-.95c-.25-.26-.6-.47-1.06-.63-.46-.16-1.09-.24-1.88-.24ZM95.85 65.65c.21.53.42 1.1.64 1.73.22.63.45 1.29.68 1.97.24.68.47 1.38.71 2.09s.47 1.41.7 2.09c.44 1.38.84 2.67 1.21 3.85.37 1.18.64 2.07.81 2.67.05.51-.02.89-.22 1.16-.2.26-.44.42-.72.47-.28.05-.56 0-.84-.18-.28-.17-.46-.46-.55-.84-.14-.58-.34-1.29-.59-2.13-.25-.84-.54-1.74-.85-2.71-.3-.95-.6-1.92-.91-2.93a99.87 99.87 0 0 1-.83-2.88c-.1.81-.26 1.74-.46 2.8-.2 1.06-.43 2.11-.7 3.17s-.53 2.01-.8 2.88c-.27.87-.52 1.49-.75 1.88-.25.46-.54.74-.89.84-.35.11-.67.09-.95-.05-.26-.12-.46-.35-.58-.67-.12-.32-.06-.7.18-1.12.28-.49.59-1.29.92-2.39.33-1.1.66-2.34.97-3.7.32-1.33.6-2.69.87-4.08.26-1.39.48-2.64.66-3.74.05-.35.17-.62.37-.8.19-.18.4-.29.63-.3.54-.03.97.28 1.29.95Zm7.38.08c-.09-.44-.03-.78.18-1.04.21-.25.46-.4.76-.43.28-.04.56.04.83.22.27.18.44.49.51.91.07.84.15 1.85.24 3.02s.17 2.44.24 3.81h2c.39 0 .68.12.88.37.2.25.3.52.3.81s-.1.56-.29.8c-.19.24-.49.35-.89.35h-1.89c.05 1.33.1 2.66.13 3.99s.05 2.58.05 3.73c0 .47-.13.83-.38 1.08s-.53.37-.83.37c-.32.02-.6-.09-.84-.33-.25-.24-.37-.61-.37-1.12 0-1.37-.01-2.81-.04-4.33s-.07-3.03-.12-4.52c-.05-1.49-.12-2.89-.2-4.22a72.79 72.79 0 0 0-.28-3.48ZM121.81 66.83h-3.31c-.04.07-.06.14-.08.2s-.04.13-.05.2c-.02.07-.04.14-.07.21s-.05.13-.07.18l1.76 2.94c.32.56.61 1.11.89 1.64s.5.99.66 1.38c.21.46.26.85.16 1.18s-.28.57-.53.71c-.26.16-.55.19-.87.09-.32-.1-.58-.36-.79-.8-.1-.3-.24-.63-.41-1-.17-.37-.35-.74-.55-1.13-.2-.38-.42-.77-.64-1.17-.23-.39-.45-.77-.66-1.12-.37.89-.73 1.73-1.09 2.52-.36.79-.65 1.36-.88 1.71-.3.51-.63.82-1 .95-.37.12-.68.12-.95 0-.28-.14-.46-.37-.55-.7-.09-.32 0-.68.26-1.06.28-.33.56-.78.85-1.33s.57-1.14.85-1.77c.26-.65.51-1.3.75-1.97.24-.67.45-1.29.64-1.87h-3.26c-.49.02-.85-.1-1.09-.34s-.35-.51-.33-.79c0-.3.12-.57.35-.81.24-.25.59-.37 1.06-.37h8.88c.47 0 .81.12 1.02.37.21.25.31.51.31.79-.02.3-.14.56-.37.8s-.54.35-.95.35Zm-4.83 12.24c0 .26 0 .54.01.81 0 .28.02.56.04.84.02.28.04.54.07.78.03.24.06.43.09.59.21.05.48.09.81.12.33.03.71.05 1.14.08.43.03.89.04 1.38.05.49 0 .99.01 1.5.01s.98 0 1.48-.01c.5 0 .97-.02 1.41-.03.44 0 .84-.02 1.2-.04s.65-.04.88-.08c.44-.02.78.09 1.02.31.25.23.38.5.39.81.02.3-.08.58-.29.85-.21.27-.55.43-1.02.49-.26 0-.59 0-.97.03-.39.02-.82.03-1.3.04-.48 0-.99.02-1.52.03s-1.07.01-1.62.01-1.11 0-1.64-.01-1.04-.02-1.51-.04-.9-.04-1.29-.05-.7-.04-.95-.08c-.26-.04-.53-.13-.79-.29-.26-.16-.5-.47-.71-.95-.05-.12-.1-.36-.14-.72-.04-.36-.07-.76-.09-1.2-.04-.44-.06-.87-.07-1.3 0-.43-.01-.78-.01-1.04 0-.49.13-.86.38-1.1.25-.25.54-.37.85-.37s.6.12.87.37.39.6.39 1.08Zm9.17-13.55c-.09-.44-.03-.78.18-1.04s.45-.4.73-.43c.29-.04.58.04.84.22.27.18.44.49.51.91.07.95.14 1.95.22 3.01.08 1.06.14 2.11.19 3.17.07 1.05.12 2.02.16 2.92.03.89.05 1.61.05 2.15 0 .47-.13.83-.38 1.08-.25.25-.52.37-.82.37-.29.02-.56-.09-.8-.33s-.36-.61-.36-1.12 0-1.2-.03-2.02c-.02-.82-.04-1.73-.08-2.73s-.09-2.02-.16-3.07-.16-2.08-.26-3.07ZM145.9 81.93c-.35.07-.76.13-1.23.18-.47.05-.98.1-1.54.13-.55.04-1.13.07-1.75.09-.61.03-1.23.04-1.84.04-.61.02-1.21.03-1.8.03s-1.13 0-1.64-.01c-.51 0-.96-.02-1.35-.04s-.7-.04-.91-.08c-.07.24-.09.52-.05.83 0 .15 0 .3.01.44 0 .14.01.27.01.39.75.05 1.68.1 2.78.13s2.23.05 3.39.05c1.16.02 2.23 0 3.22-.03.99-.04 1.76-.1 2.3-.18.42-.04.74.05.97.25.23.2.35.45.37.73.03.3-.05.58-.26.85-.21.27-.53.44-.97.53-.3.04-.67.06-1.1.08-.44.02-.96.03-1.58.05-.6.02-1.2.03-1.83.04-.62 0-1.26.01-1.9.01a87.5 87.5 0 0 1-3.73-.08c-.58-.02-1.07-.04-1.48-.05-.41-.02-.74-.04-.98-.08-.4-.05-.71-.2-.92-.45-.21-.25-.37-.5-.47-.76-.09-.23-.15-.51-.18-.85-.04-.34-.05-.7-.05-1.06s0-.72.03-1.05c.02-.33.03-.59.05-.79.02-.17.04-.35.08-.54.03-.18.1-.34.2-.47.1-.13.23-.24.39-.33.17-.09.4-.13.7-.13.67.12 1.52.21 2.56.25 1.04.04 2.14.07 3.3.07 1.12-.02 2.22-.05 3.28-.11 1.07-.05 1.97-.13 2.71-.24-.02-.07-.02-.16-.01-.25s.01-.2.01-.31 0-.22-.03-.35c-.02-.12-.04-.26-.05-.4-.58.02-1.39.03-2.44.03h-3.31c-1.16 0-2.28 0-3.36-.01-1.09 0-1.95-.02-2.6-.04-.46 0-.79-.13-1-.38-.21-.25-.31-.53-.31-.84 0-.29.11-.56.33-.8.22-.24.55-.36.99-.36.59.04 1.42.06 2.48.08 1.06.02 2.19.04 3.4.05h3.51c1.13 0 2.06-.02 2.8-.05.16 0 .32 0 .49.03.17.02.33.06.49.13.16.07.3.18.42.33.12.15.21.35.26.62.03.25.07.56.09.95.03.39.04.77.04 1.16.02.39.02.74.01 1.05 0 .32-.01.54-.01.66-.04.33-.16.56-.37.68s-.4.19-.58.21Zm.13-10.27c.46-.05.81.03 1.05.25.25.22.38.48.39.78.03.3-.04.58-.24.85-.19.27-.5.42-.92.46-.95.07-1.98.13-3.1.17s-2.27.07-3.44.09c-1.17 0-2.33-.01-3.48-.04s-2.22-.08-3.22-.17c-.47 0-.83-.13-1.06-.38s-.35-.52-.35-.8c0-.3.12-.56.37-.8s.62-.35 1.13-.33c.95.09 1.96.14 3.05.17 1.09.03 2.19.03 3.31.01 1.12 0 2.24-.02 3.35-.07 1.11-.04 2.17-.11 3.17-.2Zm-6.87-8.85c.75 0 1.49.07 2.2.21s1.34.37 1.88.68c.54.33.98.76 1.32 1.27.33.52.5 1.15.5 1.9 0 .63-.14 1.19-.43 1.67s-.71.88-1.25 1.21c-.54.32-1.19.56-1.95.72-.75.16-1.59.24-2.5.24s-1.71-.07-2.45-.2c-.74-.13-1.39-.36-1.95-.67-.56-.3-1-.7-1.32-1.21-.32-.51-.47-1.16-.47-1.94s.21-1.46.63-1.96.95-.89 1.58-1.17a8.38 8.38 0 0 1 2.09-.58c.75-.11 1.45-.17 2.12-.18Zm.02 2.13c-.47 0-.95.03-1.43.09s-.92.15-1.3.28c-.4.14-.73.32-.97.55-.25.23-.37.51-.37.84 0 .63.33 1.12 1 1.48.67.36 1.6.5 2.81.43 1.37.05 2.35-.07 2.96-.38.6-.31.91-.78.93-1.43-.04-1.17-1.24-1.79-3.63-1.87ZM170.33 81.93c-.35.07-.76.13-1.23.18-.47.05-.98.1-1.54.13-.55.04-1.13.07-1.75.09-.61.03-1.23.04-1.84.04-.61.02-1.21.03-1.8.03s-1.13 0-1.64-.01c-.51 0-.96-.02-1.35-.04s-.7-.04-.91-.08c-.07.24-.09.52-.05.83 0 .15 0 .3.01.44 0 .14.01.27.01.39.75.05 1.68.1 2.78.13s2.23.05 3.39.05c1.16.02 2.23 0 3.22-.03.99-.04 1.76-.1 2.3-.18.42-.04.74.05.97.25.23.2.35.45.37.73.03.3-.05.58-.26.85-.21.27-.53.44-.97.53-.3.04-.67.06-1.1.08-.44.02-.96.03-1.58.05-.6.02-1.2.03-1.83.04-.62 0-1.26.01-1.9.01a87.5 87.5 0 0 1-3.73-.08c-.58-.02-1.07-.04-1.48-.05-.41-.02-.74-.04-.98-.08-.4-.05-.71-.2-.92-.45-.21-.25-.37-.5-.47-.76-.09-.23-.15-.51-.18-.85-.04-.34-.05-.7-.05-1.06s0-.72.03-1.05c.02-.33.03-.59.05-.79.02-.17.04-.35.08-.54.03-.18.1-.34.2-.47.1-.13.23-.24.39-.33.17-.09.4-.13.7-.13.67.12 1.52.21 2.56.25 1.04.04 2.14.07 3.3.07 1.12-.02 2.22-.05 3.28-.11 1.07-.05 1.97-.13 2.71-.24-.02-.07-.02-.16-.01-.25s.01-.2.01-.31 0-.22-.03-.35c-.02-.12-.04-.26-.05-.4-.58.02-1.39.03-2.44.03h-3.31c-1.16 0-2.28 0-3.36-.01-1.09 0-1.95-.02-2.6-.04-.46 0-.79-.13-1-.38-.21-.25-.31-.53-.31-.84 0-.29.11-.56.33-.8.22-.24.55-.36.99-.36.59.04 1.42.06 2.48.08 1.06.02 2.19.04 3.4.05h3.51c1.13 0 2.06-.02 2.8-.05.16 0 .32 0 .49.03.17.02.33.06.49.13.16.07.3.18.42.33.12.15.21.35.26.62.03.25.07.56.09.95.03.39.04.77.04 1.16.02.39.02.74.01 1.05 0 .32-.01.54-.01.66-.04.33-.16.56-.37.68s-.4.19-.58.21Zm-.03-9.69c.46-.05.81.04 1.05.26.25.23.38.48.39.76.04.3-.04.58-.24.85-.19.27-.5.42-.92.46-.95.07-1.98.13-3.1.17-1.12.04-2.27.08-3.43.09-1.16 0-2.32-.01-3.46-.04s-2.22-.08-3.22-.17c-.47 0-.83-.13-1.06-.38-.24-.25-.35-.53-.35-.83 0-.28.12-.54.37-.77.25-.24.62-.36 1.13-.36.75.07 1.56.12 2.42.16.86.04 1.73.05 2.63.05l-.03-1.39c-.02-.47.09-.83.32-1.08s.49-.38.77-.39.54.09.78.33c.24.24.37.59.39 1.06l.05 1.45c.95 0 1.89-.02 2.82-.07.94-.04 1.83-.1 2.69-.17Zm-6.71-9.43c.75 0 1.49.07 2.2.21s1.34.37 1.88.68c.54.33.98.76 1.32 1.27.33.52.5 1.15.5 1.9 0 .63-.14 1.19-.43 1.67s-.71.88-1.25 1.21c-.54.32-1.19.56-1.95.72-.75.16-1.59.24-2.5.24s-1.71-.07-2.45-.2c-.74-.13-1.39-.36-1.95-.67-.56-.3-1-.7-1.32-1.21-.32-.51-.47-1.16-.47-1.94s.21-1.46.63-1.96.95-.89 1.58-1.17a8.38 8.38 0 0 1 2.09-.58c.75-.11 1.45-.17 2.12-.18Zm.02 2.13c-.47 0-.95.03-1.43.09s-.92.15-1.3.28c-.4.14-.73.32-.97.55-.25.23-.37.51-.37.84 0 .63.33 1.12 1 1.48.67.36 1.6.5 2.81.43 1.37.05 2.35-.07 2.96-.38.6-.31.91-.78.93-1.43-.04-1.17-1.24-1.79-3.63-1.87ZM177.39 74.87c-.02.23-.03.54-.04.95 0 .4 0 .81.01 1.23.02.42.04.81.07 1.18.03.37.07.62.14.76.28.09.68.15 1.21.18s1.09.05 1.68.05 1.2-.01 1.81-.04c.61-.03 1.16-.08 1.65-.14.47-.05.83.04 1.06.26.24.23.36.49.38.79.02.31-.08.61-.29.89-.21.28-.53.45-.95.5-.53.07-1.13.12-1.81.16-.68.04-1.35.05-2 .05s-1.24 0-1.77-.03c-.53-.02-.92-.05-1.17-.11-.74-.12-1.29-.3-1.67-.53s-.62-.69-.72-1.39c-.04-.21-.07-.53-.09-.95-.03-.42-.04-.88-.04-1.39v-1.52c0-.51.02-.95.05-1.34 0-.21.04-.42.11-.64.07-.22.18-.42.33-.6.15-.18.35-.34.59-.47.24-.13.54-.21.89-.22l4.68-.11c.02-.21.03-.56.05-1.06.02-.5.03-1.03.03-1.59s-.01-1.1-.04-1.62-.07-.9-.12-1.14l-6.28.08c-.44.02-.77-.09-1-.33s-.34-.5-.34-.8c-.02-.3.08-.57.3-.83.22-.25.56-.38 1.04-.38l6.02-.05c.58 0 1.03.05 1.37.14.33.1.59.25.76.46.17.19.3.44.37.75s.13.67.18 1.09c.05.84.07 1.74.07 2.71 0 .96-.04 1.97-.09 3.02 0 .21-.04.43-.1.66-.07.23-.18.43-.32.62s-.33.33-.56.45c-.24.11-.52.17-.85.17l-4.6.13Zm11.74-9.04c-.09-.46-.03-.81.18-1.05.21-.25.46-.38.76-.42s.58.04.85.22.44.48.51.88c.09.95.18 2.09.28 3.44.1 1.35.18 2.79.25 4.33s.13 3.1.17 4.69c.04 1.59.07 3.07.07 4.45 0 .47-.13.83-.38 1.08-.25.25-.53.37-.83.37-.31 0-.6-.12-.84-.35-.25-.24-.37-.6-.37-1.09 0-.67 0-1.36-.01-2.08 0-.72-.01-1.45-.01-2.18l-2.65.03c-.42 0-.73-.12-.92-.37-.19-.25-.29-.52-.29-.81 0-.28.1-.55.3-.8.2-.25.5-.38.91-.38l2.6-.03c-.07-1.33-.12-2.64-.16-3.91h-2.34c-.4 0-.71-.12-.91-.37-.2-.24-.29-.52-.28-.81 0-.28.1-.55.29-.8.19-.25.49-.38.89-.38h2.21c-.05-.68-.1-1.33-.14-1.94-.04-.61-.09-1.18-.14-1.71ZM203.5 81.38l-.03 2.65c0 .51-.13.88-.38 1.13-.25.25-.53.37-.83.37s-.57-.12-.83-.35-.38-.58-.38-1.04l-.03-2.68c-1.21.02-2.33.02-3.36 0-1.03-.02-1.83-.06-2.39-.13-.49-.05-.83-.21-1.02-.49-.19-.27-.26-.56-.21-.85.03-.3.17-.56.41-.78.24-.22.56-.3.96-.25.26.04.6.06 1.02.08.42.02.89.03 1.42.04s1.09.01 1.68.01h1.84c1.28-.02 2.57-.06 3.86-.12 1.3-.06 2.44-.15 3.44-.28.46-.07.81 0 1.05.22.25.22.38.48.42.77.03.3-.04.59-.22.87s-.49.45-.91.5c-.74.07-1.58.14-2.52.2-.95.06-1.94.1-3 .12Zm3.7-14.58h-4.23c.33.56.72 1.16 1.17 1.79.45.63.91 1.24 1.41 1.84.47.61.94 1.17 1.39 1.68.46.51.86.92 1.21 1.23.28.32.41.64.39.96-.02.32-.14.57-.37.75-.23.19-.52.29-.88.28-.36 0-.72-.19-1.09-.54-.35-.33-.76-.77-1.22-1.31-.46-.54-.92-1.1-1.38-1.68-.44-.59-.84-1.17-1.21-1.72s-.62-1.01-.76-1.38c-.12.46-.36.99-.71 1.59-.35.6-.74 1.19-1.16 1.77-.42.6-.84 1.15-1.25 1.66-.41.51-.73.89-.96 1.16-.28.38-.6.59-.97.63s-.69-.03-.97-.18c-.28-.16-.48-.38-.6-.66s-.07-.55.16-.81c.23-.17.57-.53 1.02-1.06s.94-1.14 1.44-1.83c.49-.68.96-1.39 1.41-2.13.45-.74.77-1.41.98-2.02h-4.05c-.49.02-.85-.1-1.09-.34s-.35-.51-.33-.79c0-.3.12-.57.35-.81s.59-.37 1.06-.37h11.22c.46 0 .79.12 1.01.37s.32.51.3.79c-.02.3-.14.56-.35.8-.22.24-.54.35-.96.35ZM218.08 65.65c.4 1.07.79 2.31 1.17 3.72.38 1.41.72 2.81 1.04 4.19.16.7.3 1.38.43 2.04.13.66.25 1.27.37 1.83.11.56.22 1.07.31 1.52.1.46.17.82.22 1.1.05.51-.01.89-.2 1.16s-.41.42-.67.47c-.28.05-.55 0-.81-.18-.26-.17-.44-.46-.53-.84-.09-.67-.22-1.48-.39-2.44-.18-.96-.38-1.97-.6-3.02-.21-1.02-.42-2-.64-2.94-.22-.95-.4-1.73-.54-2.36-.16.89-.35 1.88-.56 2.96-.22 1.08-.44 2.14-.67 3.19-.25 1.05-.49 2-.75 2.85s-.5 1.47-.72 1.85c-.25.46-.54.74-.88.84-.34.11-.64.09-.91-.05-.26-.12-.45-.35-.55-.67-.11-.32-.04-.7.21-1.12.28-.49.58-1.29.91-2.39.32-1.1.64-2.34.96-3.7a112.21 112.21 0 0 0 1.55-7.82c.05-.35.17-.62.35-.8.18-.18.39-.29.62-.3.54-.03.97.28 1.29.95Zm5.91.81c-.09-.46-.03-.81.18-1.05s.46-.39.76-.42c.28-.03.56.04.84.22.28.18.45.48.5.88.09.95.17 2 .26 3.17s.17 2.4.24 3.72c.07 1.31.13 2.67.18 4.06.05 1.39.08 2.78.08 4.16 0 .47-.13.83-.38 1.06s-.53.35-.83.35c-.31.02-.6-.09-.84-.33-.25-.24-.37-.6-.37-1.09 0-1.16 0-2.28-.03-3.38-.02-1.09-.04-2.17-.08-3.22h-2.68c-.4 0-.71-.12-.91-.36-.2-.24-.29-.5-.28-.8 0-.3.1-.57.29-.81.19-.25.49-.37.89-.37h2.57c-.05-1.05-.11-2.06-.18-3.02-.07-.96-.15-1.89-.24-2.78Zm4.81-.63c-.07-.46 0-.81.21-1.05s.46-.38.74-.42c.3-.04.58.04.85.22s.44.48.51.88c.09.95.17 2.09.26 3.44s.17 2.79.24 4.33c.07 1.54.13 3.1.18 4.69.05 1.59.08 3.07.08 4.45 0 .47-.13.83-.38 1.08-.25.25-.53.37-.83.37-.31 0-.6-.12-.84-.35-.25-.24-.37-.6-.37-1.09 0-1.38-.02-2.83-.05-4.35s-.08-3.02-.13-4.5-.12-2.89-.2-4.22a72.79 72.79 0 0 0-.28-3.48ZM237.18 80.93l-.03-2.08c-.02-.47.1-.84.34-1.09.25-.25.51-.38.79-.38.3-.02.57.09.81.32.24.23.38.58.39 1.05l.05 2.18c.61 0 1.24 0 1.88-.01.64 0 1.28-.03 1.93-.07l-.03-2c-.02-.47.1-.84.34-1.09.25-.25.51-.38.79-.38.3-.02.57.09.81.32s.38.58.39 1.05l.05 2c.37-.02.73-.04 1.08-.07.35-.03.7-.07 1.05-.12.46-.07.81 0 1.05.22.25.22.38.47.42.75.03.3-.04.59-.22.87s-.48.45-.88.5c-.95.1-1.95.18-3.02.24-1.07.05-2.15.09-3.26.1-1.12.04-2.23.05-3.34.05s-2.16 0-3.18-.03c-.47 0-.83-.12-1.08-.35-.25-.24-.37-.5-.37-.8s.12-.57.35-.81.61-.37 1.12-.37h1.73Zm4.39-16.16c1.96.09 3.54.65 4.73 1.68 1.21 1.01 1.83 2.52 1.86 4.51 0 .82-.15 1.57-.45 2.25-.3.68-.74 1.27-1.34 1.77-.6.5-1.33.88-2.19 1.15-.87.27-1.86.41-2.98.41-1 0-1.91-.08-2.73-.25-.82-.17-1.54-.46-2.15-.88-.61-.42-1.09-.99-1.43-1.7-.34-.72-.5-1.63-.49-2.75-.02-1.15.18-2.13.6-2.92s.97-1.43 1.65-1.9a6.61 6.61 0 0 1 2.3-1.05c.85-.21 1.72-.31 2.61-.31Zm.08 2.26c-1.4 0-2.56.35-3.47 1.05-.91.7-1.36 1.64-1.34 2.81 0 1.26.42 2.14 1.26 2.63.86.51 1.91.74 3.15.71 1.42.02 2.52-.26 3.3-.84.78-.58 1.14-1.47 1.09-2.68 0-.54-.1-1.04-.29-1.5-.19-.46-.46-.84-.8-1.17s-.76-.57-1.26-.75a5.08 5.08 0 0 0-1.64-.26Z"/></svg>