<?xml version="1.0" encoding="UTF-8"?><svg id="uuid-ad65c4ca-09a5-4ae8-8842-e1e574053e83" xmlns="http://www.w3.org/2000/svg" viewBox="0 0 26.88 27.15"><defs><style>.uuid-53ebbe8c-beb2-4573-abcb-619f497997c2{fill:#0c0d0e;}</style></defs><g id="uuid-2ea005fd-a2f2-4c0c-b561-155a6afc3766"><g><path class="uuid-53ebbe8c-beb2-4573-abcb-619f497997c2" d="M22.58,11.24H1.63v-1.59c0-1,.81-1.81,1.81-1.81h1.49c.45,0,.82-.37,.82-.82s-.37-.82-.82-.82h-1.49c-1.9,0-3.44,1.54-3.44,3.44v13.2c0,2.37,1.93,4.3,4.3,4.3H22.58c2.37,0,4.3-1.93,4.3-4.3v-7.31c0-2.37-1.93-4.3-4.3-4.3Zm2.67,11.61c0,1.47-1.2,2.67-2.67,2.67H4.3c-1.47,0-2.67-1.2-2.67-2.67V12.88H22.58c1.47,0,2.67,1.2,2.67,2.67v7.31Z"/><path class="uuid-53ebbe8c-beb2-4573-abcb-619f497997c2" d="M8.51,8.88L14.36,1.7c.04-.05,.1-.07,.13-.07,.03,0,.09,0,.14,.04l1.46,1.19-4.11,4.92c-.29,.35-.24,.86,.1,1.15,.15,.13,.34,.19,.52,.19,.23,0,.47-.1,.63-.29l4.13-4.94,6.83,5.57c.15,.12,.33,.18,.52,.18,.24,0,.47-.1,.63-.3,.28-.35,.23-.86-.12-1.15L15.67,.41c-.38-.31-.85-.45-1.34-.4-.49,.05-.92,.28-1.23,.66L7.25,7.85c-.28,.35-.23,.86,.12,1.15,.35,.29,.86,.23,1.15-.12Z"/><path class="uuid-53ebbe8c-beb2-4573-abcb-619f497997c2" d="M21.49,18.38h-2.56c-.45,0-.82,.37-.82,.82s.37,.82,.82,.82h2.56c.45,0,.82-.37,.82-.82s-.37-.82-.82-.82Z"/></g></g></svg>